<?xml version="1.0" encoding="utf-8"?>
<!-- Generator: Adobe Illustrator 27.0.1, SVG Export Plug-In . SVG Version: 6.00 Build 0)  -->
<svg version="1.1" id="Ebene_1" xmlns="http://www.w3.org/2000/svg" xmlns:xlink="http://www.w3.org/1999/xlink" x="0px" y="0px"
	 viewBox="0 0 192.9 472.3" style="enable-background:new 0 0 192.9 472.3;" xml:space="preserve">
<style type="text/css">
	.st0{fill:#171717;}
</style>
<path id="Vereinigungsmenge_4" class="st0" d="M95.9,0l-2.5,387.6c-0.3,3.2-0.8,6.4-1.4,9.6c-1.2,6-3.1,12-5.5,17.6
	s-5.3,10.9-8.7,16c-3.4,5-7.2,9.7-11.5,13.9c-4.3,4.3-8.9,8.1-13.9,11.5s-10.4,6.3-16,8.7c-5.7,2.4-11.6,4.2-17.6,5.5
	c-6.2,1.3-12.5,1.9-18.9,1.9h192.9c-6.3,0-12.7-0.6-18.9-1.9c-12-2.5-23.4-7.3-33.6-14.1c-15.1-10.2-26.9-24.6-34.1-41.4
	c-3.7-8.7-6-17.9-6.9-27.2L96.9,0H95.9z"/>
</svg>
