<svg xmlns="http://www.w3.org/2000/svg" width="192.886" height="472.273" viewBox="0 0 192.886 472.273">
  <path id="Vereinigungsmenge_4" data-name="Vereinigungsmenge 4" d="M95.943,0,93.481,387.649a93.936,93.936,0,0,1-1.447,9.567,93.56,93.56,0,0,1-5.477,17.645,94.044,94.044,0,0,1-8.667,15.967,94.681,94.681,0,0,1-11.479,13.912A94.677,94.677,0,0,1,52.5,456.218a94.057,94.057,0,0,1-15.968,8.667,93.5,93.5,0,0,1-17.645,5.477A94.763,94.763,0,0,1,0,472.273H192.886A94.763,94.763,0,0,1,174,470.363a93.492,93.492,0,0,1-33.612-14.144,94.281,94.281,0,0,1-34.057-41.357,93.379,93.379,0,0,1-6.925-27.222L96.944,0Z" fill="#04132e"/>
</svg>
