<?xml version="1.0" encoding="utf-8"?>
<!-- Generator: Adobe Illustrator 27.0.1, SVG Export Plug-In . SVG Version: 6.00 Build 0)  -->
<svg version="1.1" id="Ebene_1" xmlns="http://www.w3.org/2000/svg" xmlns:xlink="http://www.w3.org/1999/xlink" x="0px" y="0px"
	 viewBox="0 0 192.9 654.2" style="enable-background:new 0 0 192.9 654.2;" xml:space="preserve">
<style type="text/css">
	.st0{fill:#171717;}
</style>
<path id="Vereinigungsmenge_1" class="st0" d="M98.9,654.2H0c6.3,0,12.7-0.6,18.9-1.9c6-1.2,12-3.1,17.6-5.5s10.9-5.3,16-8.7
	c5-3.4,9.6-7.2,13.9-11.5s8.1-8.9,11.5-13.9s6.3-10.4,8.7-16c2.4-5.7,4.2-11.6,5.5-17.6c0.5-2.7,1-5.4,1.3-8.1L95.9,0h1l2.6,571
	c0.3,2.7,0.7,5.4,1.3,8.1c1.2,6,3.1,12,5.5,17.6s5.3,10.9,8.7,16c6.8,10,15.4,18.6,25.4,25.4c5,3.4,10.4,6.3,16,8.7
	c5.7,2.4,11.6,4.2,17.6,5.5c6.2,1.3,12.5,1.9,18.9,1.9H98.9L98.9,654.2z"/>
</svg>
