<svg xmlns="http://www.w3.org/2000/svg" width="192.885" height="654.153" viewBox="0 0 192.885 654.153">
  <path id="Vereinigungsmenge_1" data-name="Vereinigungsmenge 1" d="M-85.057,654.153H-184a94.777,94.777,0,0,0,18.887-1.91,93.5,93.5,0,0,0,17.645-5.477A94.054,94.054,0,0,0-131.5,638.1a94.677,94.677,0,0,0,13.911-11.478,94.683,94.683,0,0,0,11.479-13.912,94.043,94.043,0,0,0,8.667-15.967A93.559,93.559,0,0,0-91.966,579.1q.82-4.01,1.29-8.106L-88.058,0h1l2.618,570.981q.469,4.094,1.291,8.115a93.492,93.492,0,0,0,5.477,17.645A93.944,93.944,0,0,0-69,612.708a94.479,94.479,0,0,0,25.39,25.39,94.012,94.012,0,0,0,15.967,8.667A93.514,93.514,0,0,0-10,652.243a94.7,94.7,0,0,0,18.887,1.91H-85.057Z" transform="translate(184)" fill="#04132e"/>
</svg>
