<svg xmlns="http://www.w3.org/2000/svg" width="192.885" height="574.263" viewBox="0 0 192.885 574.263">
  <path id="Vereinigungsmenge_1" data-name="Vereinigungsmenge 1" d="M95.942,574.263,93.379,83.66c-.317-2.894-.766-5.768-1.346-8.6a93.56,93.56,0,0,0-5.477-17.645,94.044,94.044,0,0,0-8.667-15.967A94.68,94.68,0,0,0,66.41,27.533,94.677,94.677,0,0,0,52.5,16.055,94.057,94.057,0,0,0,36.531,7.388,93.506,93.506,0,0,0,18.887,1.911,94.776,94.776,0,0,0,0,0H192.885A94.763,94.763,0,0,0,174,1.911a93.475,93.475,0,0,0-33.612,14.144A94.281,94.281,0,0,0,106.33,57.412a93.494,93.494,0,0,0-5.477,17.645q-.871,4.257-1.347,8.612L96.943,574.263Z" fill="#fff"/>
</svg>
