<svg xmlns="http://www.w3.org/2000/svg" width="84.524" height="40.144" viewBox="0 0 84.524 40.144">
  <g id="Gruppe_9" data-name="Gruppe 9" style="isolation: isolate">
    <path id="Pfad_52" data-name="Pfad 52" d="M713.795,273.07a10.309,10.309,0,0,1-7.886,2.907c-.516,0-1.051-.024-1.591-.069a24.319,24.319,0,0,1-9.027-2.679,25.22,25.22,0,0,1-3.246-2.04h22.973a7.44,7.44,0,0,1-1.223,1.882" transform="translate(-661.881 -271.188)" fill="#b1b1b1"/>
    <path id="Pfad_53" data-name="Pfad 53" d="M679.095,327.4a1.607,1.607,0,0,1,.686-.134c1.435,0,3.878,1.206,6.464,2.481h0a63.284,63.284,0,0,0,6.036,2.715,18.823,18.823,0,0,0,6.462,1.332,10.91,10.91,0,0,0,3.525-.561c3.384-1.157,4.785-3.7,5.908-5.733a10.8,10.8,0,0,1,1.478-2.262,2.068,2.068,0,0,1,1.614-.679h.124c1.132.03,2.073.567,3.774,1.594,1.9,1.15,4.269,2.581,7.136,2.581.143,0,.283,0,.417-.01a7.132,7.132,0,0,0,5.37-2.79l.589,1.145.132.253,4.605,8.972a19.324,19.324,0,0,0-6.25-1.267,9.288,9.288,0,0,0-1.618.134,8.092,8.092,0,0,0-4.405,2.23h0a6.625,6.625,0,0,1-2.5,1.551,7.236,7.236,0,0,1-2.368.39,17.807,17.807,0,0,1-4.413-.787l-.038-.01a24.614,24.614,0,0,0-6.3-1.034c-.422,0-.845.019-1.25.053-4.773.414-8.561,3.282-11.263,8.526H681.3v0c-4.823-13.879-3.227-18.2-2.2-18.694" transform="translate(-652.732 -305.947)" fill="#b1b1b1"/>
    <path id="Pfad_54" data-name="Pfad 54" d="M615.226,271.188a12.4,12.4,0,0,1,2.946,5.06,7.644,7.644,0,0,1-.877,5.939,8.761,8.761,0,0,1-2.179,2.411,10.921,10.921,0,0,1-3.245,1.686c-1.615-3.143-3.227-6.282-4.683-9.12l-.57-1.109-.855-1.666a2.23,2.23,0,0,1,2.006-3.2Z" transform="translate(-605.54 -271.188)" fill="#b1b1b1"/>
    <path id="Pfad_55" data-name="Pfad 55" d="M750.512,373.507a18.613,18.613,0,0,1,4.7.827h.008l.018,0a23.8,23.8,0,0,0,6.033,1,12.112,12.112,0,0,0,3.971-.649,10.347,10.347,0,0,0,3.826-2.309,4.225,4.225,0,0,1,2.4-1.3,4.329,4.329,0,0,1,.744-.059c2.461,0,6.089,1.657,8.032,2.646a1.869,1.869,0,0,1-1.681,2.681H744.275a8.408,8.408,0,0,1,5.469-2.812c.252-.022.51-.033.767-.033" transform="translate(-695.898 -336.212)" fill="#b1b1b1"/>
    <path id="Pfad_56" data-name="Pfad 56" d="M639.806,286.38a10.927,10.927,0,0,0,1.716-4.42,13.292,13.292,0,0,0-.334-5.372,17.751,17.751,0,0,0-2.5-5.4h6.832a35.542,35.542,0,0,0,9.1,6.895,32.024,32.024,0,0,0,11.865,3.542c.7.06,1.409.091,2.095.091a14.471,14.471,0,0,0,11.094-4.207,12.009,12.009,0,0,0,2.83-6.009l1.426.122a9.6,9.6,0,0,1,6.569,4.8c.1.177,2.035,3.947,3.917,7.607a9.164,9.164,0,0,1-1.677,3.069,3.058,3.058,0,0,1-2.131,1.143c-.041,0-.082,0-.122,0-.921,0-1.827-.521-3.35-1.439-1.932-1.168-4.335-2.621-7.367-2.732-.116-.006-.227-.006-.332-.006-4.087,0-5.587,2.725-6.792,4.914-.946,1.719-1.841,3.341-3.814,4.012a5.923,5.923,0,0,1-1.923.3c-2.757,0-5.958-1.583-9.347-3.259h0c-3.273-1.616-6.652-3.286-9.612-3.286a6.216,6.216,0,0,0-2.762.6C643,288.4,641.93,291.021,642,295.132s1.267,9.546,3.561,16.194h-.127a9.724,9.724,0,0,1-5.894-4.646c-.14-.258-4.111-7.985-7.614-14.8a16.309,16.309,0,0,0,4.54-2.152,12.518,12.518,0,0,0,3.342-3.346" transform="translate(-622.723 -271.189)" fill="#b1b1b1"/>
  </g>
</svg>
