<svg xmlns="http://www.w3.org/2000/svg" width="84.525" height="40.144" viewBox="0 0 84.525 40.144">
  <g id="Gruppe_8" data-name="Gruppe 8" style="isolation: isolate">
    <path id="Pfad_47" data-name="Pfad 47" d="M487.055,273.07a10.308,10.308,0,0,1-7.886,2.907c-.516,0-1.051-.024-1.591-.069a24.321,24.321,0,0,1-9.027-2.679,25.221,25.221,0,0,1-3.246-2.04h22.973a7.445,7.445,0,0,1-1.223,1.882" transform="translate(-435.141 -271.188)" fill="#f2f2f2"/>
    <path id="Pfad_48" data-name="Pfad 48" d="M452.355,327.4a1.607,1.607,0,0,1,.686-.134c1.435,0,3.877,1.206,6.464,2.481h0a63.28,63.28,0,0,0,6.036,2.715,18.823,18.823,0,0,0,6.462,1.332,10.912,10.912,0,0,0,3.525-.561c3.384-1.157,4.785-3.7,5.908-5.733a10.8,10.8,0,0,1,1.478-2.262,2.068,2.068,0,0,1,1.615-.679h.123c1.132.03,2.073.567,3.774,1.594,1.9,1.15,4.269,2.581,7.137,2.581.143,0,.283,0,.417-.01a7.134,7.134,0,0,0,5.371-2.79l.589,1.145.131.253,4.605,8.972a19.323,19.323,0,0,0-6.249-1.267,9.288,9.288,0,0,0-1.618.134,8.091,8.091,0,0,0-4.405,2.23h0a6.625,6.625,0,0,1-2.5,1.551,7.234,7.234,0,0,1-2.368.39,17.806,17.806,0,0,1-4.413-.787l-.038-.01a24.613,24.613,0,0,0-6.3-1.034c-.422,0-.845.019-1.25.053-4.773.414-8.561,3.282-11.263,8.526H454.558v0c-4.824-13.879-3.227-18.2-2.2-18.694" transform="translate(-425.992 -305.947)" fill="#f2f2f2"/>
    <path id="Pfad_49" data-name="Pfad 49" d="M388.486,271.188a12.4,12.4,0,0,1,2.946,5.06,7.644,7.644,0,0,1-.877,5.939,8.762,8.762,0,0,1-2.179,2.411,10.921,10.921,0,0,1-3.245,1.686c-1.615-3.143-3.227-6.282-4.683-9.12l-.57-1.109-.855-1.666a2.23,2.23,0,0,1,2.006-3.2Z" transform="translate(-378.8 -271.188)" fill="#f2f2f2"/>
    <path id="Pfad_50" data-name="Pfad 50" d="M523.772,373.507a18.612,18.612,0,0,1,4.7.827h.008l.017,0a23.8,23.8,0,0,0,6.033,1,12.111,12.111,0,0,0,3.971-.649,10.348,10.348,0,0,0,3.826-2.309,4.224,4.224,0,0,1,2.4-1.3,4.329,4.329,0,0,1,.744-.059c2.461,0,6.089,1.657,8.032,2.646a1.869,1.869,0,0,1-1.681,2.681H517.535A8.408,8.408,0,0,1,523,373.54c.252-.022.51-.033.766-.033" transform="translate(-469.158 -336.212)" fill="#b1b1b1"/>
    <path id="Pfad_51" data-name="Pfad 51" d="M413.066,286.38a10.927,10.927,0,0,0,1.716-4.42,13.292,13.292,0,0,0-.334-5.372,17.752,17.752,0,0,0-2.5-5.4h6.832a35.54,35.54,0,0,0,9.1,6.895,32.023,32.023,0,0,0,11.865,3.542c.7.06,1.409.091,2.095.091a14.471,14.471,0,0,0,11.095-4.207,12.009,12.009,0,0,0,2.83-6.009l1.426.122a9.6,9.6,0,0,1,6.569,4.8c.1.177,2.035,3.947,3.917,7.607A9.163,9.163,0,0,1,466,287.1a3.058,3.058,0,0,1-2.131,1.143c-.041,0-.082,0-.122,0-.921,0-1.827-.521-3.35-1.439-1.932-1.168-4.335-2.621-7.367-2.732-.116-.006-.227-.006-.332-.006-4.087,0-5.587,2.725-6.793,4.914-.946,1.719-1.84,3.341-3.814,4.012a5.922,5.922,0,0,1-1.923.3c-2.758,0-5.958-1.583-9.347-3.259h0c-3.273-1.616-6.652-3.286-9.612-3.286a6.216,6.216,0,0,0-2.762.6c-2.185,1.056-3.259,3.676-3.192,7.787s1.267,9.546,3.561,16.194h-.127a9.724,9.724,0,0,1-5.894-4.646c-.14-.258-4.111-7.985-7.614-14.8a16.31,16.31,0,0,0,4.54-2.152,12.516,12.516,0,0,0,3.342-3.346" transform="translate(-395.983 -271.189)" fill="#b1b1b1"/>
  </g>
</svg>
