<?xml version="1.0" encoding="UTF-8"?>
<svg id="Ebene_2" xmlns="http://www.w3.org/2000/svg" viewBox="0 0 800.76 94.34">
  <defs><style>.cls-1{fill:#f2f2f2;}.cls-2{fill:#b1b1b1;}</style></defs>
  <g id="Gruppe_33">
    <g id="Gruppe_33-2">
      <path id="Pfad_72-2" class="cls-1" d="M66.38,89.6c-2.21,.73-4.5,1.36-6.86,1.89-2.47,.55-4.96,.95-7.47,1.2-2.8,.28-5.61,.42-8.43,.41-5.91,.05-11.81-.63-17.56-2.04-4.94-1.18-9.63-3.27-13.81-6.16-3.78-2.65-6.88-6.17-9.02-10.27C1,70.17-.11,65.23,0,60.25c-.11-4.98,.99-9.92,3.23-14.38,2.14-4.09,5.23-7.61,9.02-10.27,4.18-2.89,8.87-4.97,13.81-6.16,5.74-1.41,11.64-2.1,17.56-2.05,2.81,0,5.63,.13,8.43,.41,2.51,.26,5.01,.66,7.47,1.2,2.36,.53,4.65,1.16,6.86,1.89,1.97,.65,3.92,1.36,5.86,2.15,.44,.18,.73,.61,.73,1.08v12.46c0,.64-.52,1.16-1.16,1.16-.19,0-.37-.05-.54-.13-1.21-.63-2.46-1.26-3.75-1.89-2.04-.98-4.16-1.81-6.32-2.5-2.48-.79-5.02-1.39-7.59-1.82-3.08-.49-6.2-.73-9.31-.7-4.46-.11-8.9,.44-13.2,1.64-3.06,.86-5.92,2.35-8.38,4.36-1.98,1.67-3.5,3.82-4.41,6.25-.85,2.34-1.28,4.81-1.27,7.29,0,1.66,.18,3.31,.55,4.93,.36,1.62,.97,3.16,1.82,4.59,.89,1.49,2.01,2.83,3.32,3.97,1.52,1.31,3.23,2.37,5.09,3.13,2.28,.95,4.67,1.65,7.11,2.07,3.1,.53,6.24,.78,9.38,.74,3.12,.02,6.23-.2,9.31-.66,2.57-.39,5.11-.97,7.59-1.74,2.16-.67,4.27-1.5,6.32-2.48,1.29-.62,2.53-1.26,3.74-1.9,.56-.31,1.27-.1,1.57,.46,.09,.17,.14,.36,.14,.55v12.44c0,.47-.29,.9-.73,1.08-1.94,.79-3.9,1.51-5.86,2.15"/><path id="Pfad_73-2" class="cls-1" d="M136.52,79.6h-34.8l-5.54,11.17c-.2,.39-.6,.64-1.04,.64h-16.18c-.64,0-1.16-.52-1.16-1.16,0-.19,.05-.37,.13-.54l31.45-60.1c.2-.38,.6-.62,1.03-.62h17.41c.43,0,.83,.24,1.02,.62l31.45,60.11c.3,.57,.08,1.27-.49,1.56-.17,.09-.35,.13-.54,.13h-16.18c-.44,0-.84-.25-1.04-.64l-5.54-11.17Zm-28.76-12.17h22.81l-11.36-22.99-11.45,22.99Z"/><path id="Pfad_74-2" class="cls-1" d="M236.19,50.3c.03,2.93-.43,5.84-1.36,8.61-.88,2.58-2.39,4.91-4.38,6.77-2.26,2.03-4.93,3.54-7.84,4.43-3.8,1.14-7.75,1.68-11.72,1.59h-27.98v18.56c0,.64-.52,1.16-1.16,1.16h-14.54c-.64,0-1.16-.52-1.16-1.16V30.15c0-.64,.52-1.16,1.16-1.16h43.68c3.96-.09,7.92,.44,11.72,1.57,2.91,.87,5.58,2.38,7.84,4.41,1.99,1.86,3.5,4.17,4.38,6.75,.93,2.76,1.4,5.67,1.36,8.59m-17.04,.27c.03-1.28-.18-2.55-.61-3.75-.4-1.04-1.11-1.93-2.02-2.57-1.11-.74-2.37-1.24-3.68-1.48-1.84-.35-3.71-.51-5.59-.48h-24.35v16.09h24.35c1.87,.02,3.74-.11,5.59-.39,1.3-.18,2.56-.63,3.68-1.32,.91-.58,1.61-1.43,2.02-2.43,.44-1.18,.65-2.42,.61-3.68"/><path id="Pfad_75-2" class="cls-1" d="M259.32,91.42h-14.54c-.64,0-1.16-.52-1.16-1.16V30.15c0-.64,.52-1.16,1.16-1.16h41.09c3.9-.08,7.79,.39,11.56,1.41,2.83,.76,5.47,2.13,7.72,4,1.95,1.68,3.44,3.83,4.32,6.25,.92,2.62,1.38,5.38,1.34,8.15,.05,2.35-.33,4.69-1.12,6.91-.68,1.86-1.69,3.58-3,5.07-1.26,1.41-2.74,2.62-4.38,3.57-1.67,.97-3.44,1.78-5.27,2.41l18.87,22.77c.41,.49,.34,1.22-.15,1.63-.21,.17-.47,.27-.74,.27h-16.71c-.35,0-.67-.16-.89-.42l-18.55-22.56h-18.4v21.83c0,.64-.52,1.16-1.16,1.16m34.45-42.71c.03-1.05-.14-2.1-.48-3.09-.32-.85-.9-1.57-1.66-2.07-.96-.6-2.04-.99-3.16-1.16-1.63-.27-3.28-.39-4.93-.36h-23.07v13.36h23.07c1.65,.03,3.3-.1,4.93-.36,1.12-.17,2.19-.56,3.16-1.16,.76-.49,1.34-1.22,1.66-2.07,.34-.99,.5-2.04,.48-3.09"/><path id="Pfad_76-2" class="cls-1" d="M390.71,79.19c-1.71,2.93-4.09,5.4-6.95,7.22-3.56,2.26-7.47,3.91-11.57,4.89-5.3,1.28-10.74,1.88-16.2,1.8-5.47,.08-10.92-.52-16.24-1.8-4.12-.97-8.04-2.62-11.61-4.88-2.86-1.82-5.24-4.3-6.95-7.22-1.53-2.68-2.32-5.72-2.32-8.81V30.15c0-.64,.52-1.16,1.15-1.16h14.5c.64,0,1.16,.52,1.16,1.16v34.19c-.01,2,.26,4,.8,5.93,.53,1.87,1.57,3.56,3,4.88,1.78,1.56,3.89,2.7,6.18,3.32,3.37,.91,6.85,1.32,10.34,1.23,3.46,.1,6.92-.32,10.27-1.23,2.28-.62,4.38-1.76,6.16-3.32,1.43-1.32,2.46-3.01,2.98-4.88,.52-1.93,.78-3.93,.77-5.93V30.15c0-.64,.52-1.16,1.16-1.16h14.54c.64,0,1.16,.52,1.16,1.16h0v40.23c0,3.09-.79,6.12-2.32,8.81"/><path id="Pfad_77-2" class="cls-1" d="M460.75,91.07l-41.77-42.54v41.73c0,.64-.52,1.16-1.16,1.16h-14.54c-.64,0-1.16-.52-1.16-1.16h0V30.15c0-.64,.52-1.16,1.16-1.16h16.67c.31,0,.61,.13,.83,.35l41.82,42.72V30.15c0-.64,.52-1.16,1.16-1.16h14.45c.64,0,1.16,.52,1.16,1.16h0v60.11c0,.64-.52,1.16-1.16,1.16h-16.62c-.31,0-.61-.12-.83-.35"/><path id="Pfad_78-2" class="cls-1" d="M487.6,90.26V30.15c0-.64,.52-1.16,1.16-1.16h14.54c.64,0,1.16,.52,1.16,1.16h0v60.11c0,.64-.52,1.16-1.16,1.16h-14.54c-.64,0-1.16-.52-1.16-1.16h0"/><path id="Pfad_79-2" class="cls-1" d="M569.87,79.6h-34.8l-5.54,11.17c-.2,.39-.6,.64-1.04,.64h-16.18c-.64,0-1.16-.52-1.16-1.16,0-.19,.05-.37,.13-.54l31.45-60.11c.2-.38,.6-.62,1.03-.62h17.41c.43,0,.83,.24,1.02,.62l31.45,60.11c.3,.57,.08,1.27-.49,1.56-.17,.09-.35,.13-.54,.13h-16.18c-.44,0-.84-.25-1.04-.64l-5.54-11.17Zm-28.76-12.17h22.81l-11.36-22.99-11.44,22.99Z"/></g><g id="Gruppe_34"><path id="Pfad_81-2" class="cls-1" d="M724.12,4.42c-4.43,4.62-10.98,7.03-18.53,6.83-1.21,0-2.47-.06-3.74-.16-7.41-.7-14.62-2.84-21.21-6.3-2.66-1.4-5.21-3-7.63-4.79h53.99c-.73,1.61-1.7,3.1-2.87,4.42"/><path id="Pfad_82-2" class="cls-1" d="M664.08,50.41c.51-.22,1.06-.33,1.61-.31,3.37,0,9.11,2.83,15.19,5.83h.01c4.61,2.37,9.35,4.5,14.18,6.38,4.84,1.93,9.98,2.99,15.19,3.13,2.81,.02,5.61-.43,8.28-1.32,7.95-2.72,11.24-8.68,13.88-13.47,.93-1.91,2.1-3.7,3.47-5.31,.97-1.07,2.36-1.65,3.79-1.6h.29c2.66,.07,4.87,1.33,8.87,3.75,4.47,2.7,10.03,6.07,16.77,6.07,.34,0,.67,0,.98-.02,4.97-.2,9.6-2.61,12.62-6.56l1.38,2.69,.31,.59,10.82,21.08c-4.7-1.8-9.66-2.8-14.69-2.98-1.27,0-2.55,.1-3.8,.31-3.91,.63-7.53,2.46-10.35,5.24h0c-1.66,1.64-3.67,2.88-5.87,3.64-1.79,.61-3.67,.92-5.57,.92-3.52-.18-7-.8-10.37-1.85l-.09-.02c-4.81-1.45-9.78-2.27-14.79-2.43-.99,0-1.98,.04-2.94,.12-11.22,.97-20.12,7.71-26.47,20.04h-27.54c-11.34-32.6-7.58-42.76-5.18-43.92"/><path id="Pfad_83-2" class="cls-1" d="M624.89,0c3.22,3.35,5.6,7.43,6.92,11.89,1.24,4.74,.5,9.78-2.06,13.96-1.34,2.19-3.08,4.11-5.12,5.66-2.3,1.74-4.88,3.08-7.63,3.96-3.79-7.39-7.58-14.76-11-21.43l-1.34-2.61-2.01-3.92c-1.26-2.61-.17-5.74,2.44-7,.71-.34,1.49-.52,2.28-.52h17.52Z"/></g><g id="Gruppe_35"><path id="Pfad_85-2" class="cls-2" d="M730.47,87.64c3.75,.17,7.46,.82,11.04,1.94h.06c4.6,1.4,9.37,2.19,14.18,2.37,3.17,.02,6.33-.5,9.33-1.53,3.36-1.13,6.42-2.98,8.99-5.42,1.49-1.61,3.47-2.68,5.63-3.05,.58-.1,1.16-.14,1.75-.14,5.78,0,14.31,3.9,18.88,6.22,1.05,2.18,.14,4.81-2.05,5.86-.59,.29-1.24,.44-1.9,.44h-80.56c3.3-3.75,7.89-6.11,12.85-6.61,.59-.05,1.2-.08,1.8-.08"/><path id="Pfad_86-2" class="cls-2" d="M642.27,35.7c2.09-3.13,3.47-6.67,4.03-10.39,.6-4.22,.34-8.51-.78-12.62-1.23-4.53-3.21-8.82-5.87-12.69h16.06c6.21,6.52,13.43,11.99,21.39,16.2,8.66,4.56,18.13,7.39,27.88,8.32,1.65,.14,3.31,.21,4.92,.21,10.66,.21,19.88-3.29,26.07-9.89,3.5-3.99,5.81-8.88,6.65-14.12l3.35,.29c6.56,1.29,12.22,5.42,15.44,11.28,.23,.41,4.78,9.27,9.2,17.88-.84,2.63-2.18,5.08-3.94,7.21-1.23,1.54-3.04,2.52-5.01,2.69-.1,0-.19,0-.29,0-2.16,0-4.29-1.22-7.87-3.38-4.54-2.74-10.19-6.16-17.31-6.42-.27-.01-.53-.01-.78-.01-9.6,0-13.13,6.4-15.96,11.55-2.22,4.04-4.32,7.85-8.96,9.43-1.46,.49-2.98,.73-4.52,.71-6.48,0-14-3.72-21.97-7.66h0c-7.69-3.8-15.63-7.72-22.59-7.72-2.24-.04-4.46,.44-6.49,1.4-5.13,2.48-7.66,8.64-7.5,18.3,.16,9.63,2.98,22.43,8.37,38.06h-.3c-5.89-1.64-10.88-5.57-13.85-10.92-.33-.61-9.66-18.77-17.89-34.79,3.8-1.12,7.4-2.83,10.67-5.06,3.09-2.1,5.76-4.77,7.85-7.86"/>
    </g>
  </g>
</svg>
