<svg xmlns="http://www.w3.org/2000/svg" width="571.437" height="67.321" viewBox="0 0 571.437 67.321">
  <g id="Gruppe_68" data-name="Gruppe 68" transform="translate(-452.908 -359.901)">
    <g id="Gruppe_67" data-name="Gruppe 67" transform="translate(452.908 379.455)">
      <path id="Pfad_72" data-name="Pfad 72" d="M47.365,66.472Q45,67.25,42.47,67.818a46.336,46.336,0,0,1-5.334.859,58.172,58.172,0,0,1-6.014.292,50.644,50.644,0,0,1-12.53-1.459,29.392,29.392,0,0,1-9.856-4.393A20.618,20.618,0,0,1,2.3,55.79,21.8,21.8,0,0,1,0,45.529,21.8,21.8,0,0,1,2.3,35.268a20.618,20.618,0,0,1,6.435-7.327,29.391,29.391,0,0,1,9.856-4.393,50.642,50.642,0,0,1,12.53-1.46,58.421,58.421,0,0,1,6.014.292,46.332,46.332,0,0,1,5.334.86q2.528.567,4.895,1.346,2.1.692,4.184,1.538a.834.834,0,0,1,.518.771v8.893a.827.827,0,0,1-1.214.729q-1.295-.677-2.677-1.347a34.871,34.871,0,0,0-4.507-1.784,39.119,39.119,0,0,0-5.413-1.3,39.868,39.868,0,0,0-6.647-.5,32.173,32.173,0,0,0-9.418,1.167,16.483,16.483,0,0,0-5.98,3.113,10.692,10.692,0,0,0-3.145,4.457,15.189,15.189,0,0,0-.908,5.2,16.01,16.01,0,0,0,.39,3.517,11.263,11.263,0,0,0,1.3,3.275,11.819,11.819,0,0,0,2.367,2.836,13.446,13.446,0,0,0,3.631,2.237,23.5,23.5,0,0,0,5.073,1.475,37.233,37.233,0,0,0,6.694.536,42.4,42.4,0,0,0,6.647-.471,37.58,37.58,0,0,0,5.413-1.247,33.42,33.42,0,0,0,4.507-1.767q1.378-.668,2.668-1.357a.827.827,0,0,1,1.223.724v8.877a.835.835,0,0,1-.518.771q-2.078.846-4.184,1.538" transform="translate(0 -22.089)" fill="#262626"/>
      <path id="Pfad_73" data-name="Pfad 73" d="M104.609,59.487H79.775L75.82,67.458a.825.825,0,0,1-.739.459H63.535a.825.825,0,0,1-.731-1.208L85.249,23.815a.826.826,0,0,1,.732-.443H98.4a.824.824,0,0,1,.731.443L121.58,66.708a.826.826,0,0,1-.732,1.208H109.3a.827.827,0,0,1-.74-.459ZM84.087,50.8h16.275l-8.1-16.4Z" transform="translate(-7.194 -22.236)" fill="#262626"/>
      <path id="Pfad_74" data-name="Pfad 74" d="M183.894,38.576a18.65,18.65,0,0,1-.972,6.145,11.885,11.885,0,0,1-3.129,4.83,14.8,14.8,0,0,1-5.593,3.16,26.849,26.849,0,0,1-8.364,1.135H145.865V67.09a.826.826,0,0,1-.825.826H134.664a.826.826,0,0,1-.826-.826V24.2a.826.826,0,0,1,.826-.826h31.172A27.232,27.232,0,0,1,174.2,24.49a14.657,14.657,0,0,1,5.593,3.144,11.9,11.9,0,0,1,3.129,4.814,18.509,18.509,0,0,1,.972,6.127m-12.157.2A7.344,7.344,0,0,0,171.3,36.1a3.99,3.99,0,0,0-1.443-1.833,7,7,0,0,0-2.626-1.053,19.813,19.813,0,0,0-3.988-.341H145.865V44.348h17.377a24.375,24.375,0,0,0,3.988-.276,6.79,6.79,0,0,0,2.626-.94A3.748,3.748,0,0,0,171.3,41.4a6.96,6.96,0,0,0,.437-2.626" transform="translate(-15.355 -22.236)" fill="#262626"/>
      <path id="Pfad_75" data-name="Pfad 75" d="M207.575,67.916H197.2a.826.826,0,0,1-.826-.826V24.2a.826.826,0,0,1,.826-.826h29.325a29.326,29.326,0,0,1,8.251,1.006,14.592,14.592,0,0,1,5.512,2.853,10.708,10.708,0,0,1,3.08,4.457,16.814,16.814,0,0,1,.956,5.819,13.95,13.95,0,0,1-.794,4.928,11.415,11.415,0,0,1-2.14,3.615,12.8,12.8,0,0,1-3.129,2.545,21.256,21.256,0,0,1-3.761,1.718l13.468,16.251a.826.826,0,0,1-.636,1.353H235.407a.824.824,0,0,1-.637-.3l-13.239-16.1H208.4V67.09a.826.826,0,0,1-.826.826m24.589-30.475a6.3,6.3,0,0,0-.34-2.2,3.03,3.03,0,0,0-1.184-1.475,5.958,5.958,0,0,0-2.253-.827,19.947,19.947,0,0,0-3.517-.259H208.4v9.531h16.47a19.862,19.862,0,0,0,3.517-.259,5.928,5.928,0,0,0,2.253-.827,3.03,3.03,0,0,0,1.184-1.475,6.3,6.3,0,0,0,.34-2.2" transform="translate(-22.529 -22.236)" fill="#262626"/>
      <path id="Pfad_76" data-name="Pfad 76" d="M308.3,59.2a15.149,15.149,0,0,1-4.961,5.155,27.019,27.019,0,0,1-8.25,3.485,46.373,46.373,0,0,1-11.558,1.281,46.757,46.757,0,0,1-11.589-1.281,27,27,0,0,1-8.284-3.485A15.152,15.152,0,0,1,258.7,59.2a12.663,12.663,0,0,1-1.654-6.289V24.2a.826.826,0,0,1,.825-.826h10.344a.826.826,0,0,1,.825.826v24.4a15.371,15.371,0,0,0,.568,4.232,7.6,7.6,0,0,0,2.14,3.484,11.033,11.033,0,0,0,4.409,2.366,25.6,25.6,0,0,0,7.375.876,25.293,25.293,0,0,0,7.327-.876,11.04,11.04,0,0,0,4.393-2.366,7.494,7.494,0,0,0,2.123-3.484,15.824,15.824,0,0,0,.552-4.232V24.2a.826.826,0,0,1,.826-.826h10.375a.826.826,0,0,1,.826.826V52.906A12.662,12.662,0,0,1,308.3,59.2" transform="translate(-29.49 -22.236)" fill="#262626"/>
      <path id="Pfad_77" data-name="Pfad 77" d="M365.979,67.669l-29.81-30.357V67.09a.826.826,0,0,1-.826.826H324.967a.826.826,0,0,1-.826-.826V24.2a.826.826,0,0,1,.826-.826H336.86a.826.826,0,0,1,.59.248l29.843,30.486V24.2a.826.826,0,0,1,.826-.826h10.311a.826.826,0,0,1,.826.826V67.09a.826.826,0,0,1-.826.826h-11.86a.824.824,0,0,1-.59-.247" transform="translate(-37.188 -22.236)" fill="#262626"/>
      <path id="Pfad_78" data-name="Pfad 78" d="M393.044,67.09V24.2a.826.826,0,0,1,.826-.826h10.375a.826.826,0,0,1,.826.826V67.09a.826.826,0,0,1-.826.826H393.87a.826.826,0,0,1-.826-.826" transform="translate(-45.093 -22.236)" fill="#262626"/>
      <path id="Pfad_79" data-name="Pfad 79" d="M453.928,59.487H429.094l-3.955,7.971a.825.825,0,0,1-.739.459H412.854a.825.825,0,0,1-.731-1.208l22.445-42.893a.826.826,0,0,1,.732-.443h12.422a.824.824,0,0,1,.731.443L470.9,66.708a.826.826,0,0,1-.732,1.208H458.622a.827.827,0,0,1-.74-.459ZM433.406,50.8H449.68l-8.1-16.4Z" transform="translate(-47.271 -22.236)" fill="#262626"/>
    </g>
    <g id="Gruppe_66" data-name="Gruppe 66" transform="translate(882.562 359.901)">
      <path id="Pfad_81" data-name="Pfad 81" d="M578.97,3.155c-3.16,3.294-7.837,5.019-13.224,4.874-.865,0-1.762-.04-2.668-.116a40.8,40.8,0,0,1-15.134-4.493A42.34,42.34,0,0,1,542.5,0h38.524a12.482,12.482,0,0,1-2.056,3.155" transform="translate(-491.893)" fill="#595959"/>
      <path id="Pfad_82" data-name="Pfad 82" d="M535.059,40.017a2.693,2.693,0,0,1,1.153-.224c2.407,0,6.5,2.023,10.839,4.165h.008a106.249,106.249,0,0,0,10.121,4.553,31.574,31.574,0,0,0,10.837,2.234,18.291,18.291,0,0,0,5.911-.941c5.675-1.941,8.024-6.2,9.907-9.613a18.088,18.088,0,0,1,2.48-3.793,3.469,3.469,0,0,1,2.707-1.139h.207c1.9.05,3.476.95,6.33,2.673,3.186,1.928,7.158,4.328,11.967,4.328.24,0,.475-.006.7-.017a11.96,11.96,0,0,0,9.006-4.68l.987,1.921.22.423,7.722,15.04a32.417,32.417,0,0,0-10.48-2.126,15.6,15.6,0,0,0-2.713.224,13.571,13.571,0,0,0-7.388,3.739h-.006a11.116,11.116,0,0,1-4.189,2.6,12.126,12.126,0,0,1-3.971.654,29.869,29.869,0,0,1-7.4-1.319l-.064-.017a41.254,41.254,0,0,0-10.558-1.734c-.708,0-1.413.031-2.1.091-8,.694-14.356,5.5-18.887,14.3H538.753v.007c-8.089-23.274-5.412-30.52-3.7-31.348" transform="translate(-490.829 -4.045)" fill="#595959"/>
      <path id="Pfad_83" data-name="Pfad 83" d="M501.6,0a20.808,20.808,0,0,1,4.941,8.484,12.82,12.82,0,0,1-1.471,9.959,14.7,14.7,0,0,1-3.657,4.043,18.313,18.313,0,0,1-5.442,2.828c-2.707-5.271-5.411-10.537-7.852-15.294l-.956-1.863-1.434-2.794A3.74,3.74,0,0,1,489.1,0Z" transform="translate(-485.335)" fill="#595959"/>
    </g>
    <g id="Gruppe_65" data-name="Gruppe 65" transform="translate(898.012 359.901)">
      <path id="Pfad_85" data-name="Pfad 85" d="M587.459,70.108a31.232,31.232,0,0,1,7.879,1.386h.013l.029.006A39.912,39.912,0,0,0,605.5,73.183a20.309,20.309,0,0,0,6.659-1.089,17.36,17.36,0,0,0,6.416-3.871,7.081,7.081,0,0,1,4.016-2.178,7.285,7.285,0,0,1,1.248-.1c4.126,0,10.21,2.78,13.469,4.438a3.134,3.134,0,0,1-2.819,4.5H577a14.1,14.1,0,0,1,9.171-4.716c.422-.037.855-.056,1.285-.056" transform="translate(-511.302 -7.567)" fill="#262626"/>
      <path id="Pfad_86" data-name="Pfad 86" d="M516.007,25.476a18.324,18.324,0,0,0,2.878-7.412,22.284,22.284,0,0,0-.56-9.009A29.759,29.759,0,0,0,514.139,0H525.6a59.6,59.6,0,0,0,15.261,11.563,53.714,53.714,0,0,0,19.9,5.939c1.181.1,2.364.152,3.513.152,7.606.15,14.187-2.345,18.6-7.056A20.141,20.141,0,0,0,587.619.522l2.388.2a16.1,16.1,0,0,1,11.015,8.047c.163.3,3.413,6.618,6.569,12.756a15.38,15.38,0,0,1-2.81,5.147,5.129,5.129,0,0,1-3.573,1.917c-.068.005-.137.005-.205.005-1.544,0-3.064-.873-5.617-2.413-3.239-1.958-7.27-4.4-12.354-4.582-.194-.011-.381-.011-.557-.011-6.854,0-9.37,4.57-11.391,8.241-1.586,2.882-3.086,5.6-6.4,6.732a9.933,9.933,0,0,1-3.224.509c-4.625,0-9.992-2.654-15.675-5.465h-.005C540.3,28.9,534.629,26.1,529.666,26.1a10.427,10.427,0,0,0-4.632,1c-3.663,1.775-5.466,6.164-5.353,13.06.112,6.871,2.122,16.008,5.972,27.157h-.213a16.3,16.3,0,0,1-9.884-7.79c-.236-.432-6.895-13.392-12.768-24.827a27.343,27.343,0,0,0,7.616-3.608,20.986,20.986,0,0,0,5.6-5.611" transform="translate(-502.787 -0.001)" fill="#262626"/>
    </g>
  </g>
</svg>
