<svg xmlns="http://www.w3.org/2000/svg" xmlns:xlink="http://www.w3.org/1999/xlink" width="127.945" height="21.254" viewBox="0 0 127.945 21.254">
  <defs>
    <clipPath id="clip-path">
      <rect id="Rechteck_1" data-name="Rechteck 1" width="127.945" height="21.253" transform="translate(0 0)" fill="#ffffff"/>
    </clipPath>
  </defs>
  <g id="Gruppe_15" data-name="Gruppe 15" transform="translate(-139 -46)">
    <g id="Gruppe_2" data-name="Gruppe 2" transform="translate(139 46)" opacity="0.002">
      <g id="Gruppe_1" data-name="Gruppe 1" transform="translate(0 0)" clip-path="url(#clip-path)">
        <path id="Pfad_1" data-name="Pfad 1" d="M3.685,19.049A7.189,7.189,0,0,0,5.56,20.513a6.605,6.605,0,0,0,3.224.74,7.349,7.349,0,0,0,3.57-.9A6.741,6.741,0,0,0,15,17.733a7.956,7.956,0,0,0,.987-4.047,7.986,7.986,0,0,0-.9-3.932A6.481,6.481,0,0,0,12.65,7.238,6.656,6.656,0,0,0,9.245,6.35a8.67,8.67,0,0,0-3.323.609,5.824,5.824,0,0,0-2.27,1.559V0A3.652,3.652,0,0,0,0,3.652V20.891H3.685Zm0-6.876a4.045,4.045,0,0,1,.9-1.53A4.453,4.453,0,0,1,6.07,9.623a4.785,4.785,0,0,1,1.925-.378,4.058,4.058,0,0,1,2.155.592A4.448,4.448,0,0,1,11.7,11.416a4.361,4.361,0,0,1,.576,2.237,4.6,4.6,0,0,1-.576,2.3,4.237,4.237,0,0,1-1.546,1.6,4.141,4.141,0,0,1-2.155.576,4.935,4.935,0,0,1-1.941-.362,4.022,4.022,0,0,1-1.448-1.02,4.821,4.821,0,0,1-.921-1.513Z" transform="translate(0 0)" fill="#ffffff"/>
        <path id="Pfad_2" data-name="Pfad 2" d="M98.73,29.628a6.82,6.82,0,0,0-4.721-1.661,7.981,7.981,0,0,0-3.964,1,7.733,7.733,0,0,0-2.846,2.7,6.991,6.991,0,0,0-1.053,3.767,7.866,7.866,0,0,0,.921,3.849,6.546,6.546,0,0,0,2.665,2.632,8.66,8.66,0,0,0,4.211.954,8.236,8.236,0,0,0,2.484-.411,10.085,10.085,0,0,0,2.385-1.1l-1.678-2.731a7.276,7.276,0,0,1-1.5.789,4.513,4.513,0,0,1-1.629.3,4.314,4.314,0,0,1-2.171-.543,3.891,3.891,0,0,1-1.326-1.243l10.7-3.61a8.331,8.331,0,0,0-2.484-4.688m-8.455,3.323a3.929,3.929,0,0,1,1.4-1.53,3.746,3.746,0,0,1,2.04-.559,3.271,3.271,0,0,1,2.27.74,4.026,4.026,0,0,1,1.1,1.6l-7.3,2.6c-.016-.181-.026-.366-.026-.558a4.848,4.848,0,0,1,.51-2.287" transform="translate(-66.587 -21.617)" fill="#ffffff"/>
        <path id="Pfad_3" data-name="Pfad 3" d="M172.589,32.68a3.8,3.8,0,0,1,2.007-.559,4.64,4.64,0,0,1,1.925.378,6.247,6.247,0,0,1,1.365.806l1.81-2.4a7.134,7.134,0,0,0-2.3-1.3,9.375,9.375,0,0,0-3.126-.477A7.7,7.7,0,0,0,170.7,30a6.923,6.923,0,0,0-2.731,2.517,7.192,7.192,0,0,0-1.036,3.915,7.477,7.477,0,0,0,.971,3.9,6.648,6.648,0,0,0,2.714,2.533,8.666,8.666,0,0,0,4.047.9,8.427,8.427,0,0,0,2.681-.444,6.984,6.984,0,0,0,2.254-1.2l-1.842-2.3a4.456,4.456,0,0,1-2.8.921,4.33,4.33,0,0,1-2.254-.576,4.181,4.181,0,0,1-1.53-1.563,4.324,4.324,0,0,1-.559-2.171,4.583,4.583,0,0,1,.526-2.221,3.967,3.967,0,0,1,1.448-1.53" transform="translate(-129.03 -22.514)" fill="#ffffff"/>
        <path id="Pfad_4" data-name="Pfad 4" d="M242.965,0h-.033V20.892h3.685V3.652A3.652,3.652,0,0,0,242.965,0" transform="translate(-187.776 0)" fill="#ffffff"/>
        <path id="Pfad_5" data-name="Pfad 5" d="M292.024,30.485a6.616,6.616,0,0,0-1.822-1.712,5.839,5.839,0,0,0-3.241-.806,6.824,6.824,0,0,0-3.471.921,6.918,6.918,0,0,0-2.566,2.616,8.045,8.045,0,0,0-.971,4.063,8.085,8.085,0,0,0,.921,4.03,6.015,6.015,0,0,0,2.517,2.451,7.609,7.609,0,0,0,3.537.822,6.061,6.061,0,0,0,2.188-.362,6.557,6.557,0,0,0,1.629-.888,8.7,8.7,0,0,0,1.1-.971c.054-.059.1-.112.148-.164v2.023h3.685V28.592h-3.389Zm-.852,7.977a3.785,3.785,0,0,1-1.382,1.02,4.525,4.525,0,0,1-1.842.362,4.024,4.024,0,0,1-2.106-.592,4.621,4.621,0,0,1-1.6-6.152,4.267,4.267,0,0,1,1.513-1.546,4,4,0,0,1,2.089-.559,4.65,4.65,0,0,1,1.859.362,4.172,4.172,0,0,1,1.431,1,3.846,3.846,0,0,1,.855,1.5v3.027a4.172,4.172,0,0,1-.823,1.579" transform="translate(-216.392 -21.617)" fill="#ffffff"/>
        <path id="Pfad_6" data-name="Pfad 6" d="M394,42.51h3.652V32.146a4.1,4.1,0,0,0-1.25-3.01,4.509,4.509,0,0,0-3.257-1.168,5.331,5.331,0,0,0-2.862.839,6.627,6.627,0,0,0-2.069,2.043,3.075,3.075,0,0,0-.744-1.5,4.136,4.136,0,0,0-1.5-1.02,5.377,5.377,0,0,0-2.04-.362,5.857,5.857,0,0,0-3.175.855,5.989,5.989,0,0,0-2.092,2.257l-.26-2.487h-3.323V42.51h3.685V36.259a6.615,6.615,0,0,1,.461-2.451,4.8,4.8,0,0,1,1.316-1.908,2.97,2.97,0,0,1,2.007-.74,1.791,1.791,0,0,1,1.513.74,3.26,3.26,0,0,1,.461,1.661V42.51h3.685V36.259a7.11,7.11,0,0,1,.494-2.451,4.721,4.721,0,0,1,1.332-1.908,3.076,3.076,0,0,1,2.056-.74,1.7,1.7,0,0,1,1.481.74A3.48,3.48,0,0,1,394,33.561Z" transform="translate(-289.923 -21.618)" fill="#ffffff"/>
        <path id="Pfad_7" data-name="Pfad 7" d="M499.049,41.966a8.691,8.691,0,0,0,4.03.9,8.143,8.143,0,0,0,4.08-.987A6.851,6.851,0,0,0,509.84,39.2a8.168,8.168,0,0,0,0-7.6,6.774,6.774,0,0,0-2.665-2.665,8.165,8.165,0,0,0-4.063-.971,8.307,8.307,0,0,0-4.047.971,7.144,7.144,0,0,0-2.78,2.665,7.311,7.311,0,0,0-1,3.8,7.607,7.607,0,0,0,1,3.981,6.745,6.745,0,0,0,2.763,2.583m.477-8.768a4.365,4.365,0,0,1,1.431-1.6,3.6,3.6,0,0,1,2.056-.609,3.79,3.79,0,0,1,2.122.592,4.077,4.077,0,0,1,1.415,1.6,4.906,4.906,0,0,1,.51,2.254,4.831,4.831,0,0,1-.51,2.221,4.074,4.074,0,0,1-1.415,1.6,3.788,3.788,0,0,1-2.122.592,3.692,3.692,0,0,1-2.04-.592,4.145,4.145,0,0,1-1.448-1.6,4.984,4.984,0,0,1,0-4.458" transform="translate(-382.833 -21.617)" fill="#ffffff"/>
      </g>
    </g>
    <path id="Pfad_1-2" data-name="Pfad 1" d="M3.685,19.049A7.189,7.189,0,0,0,5.56,20.513a6.605,6.605,0,0,0,3.224.74,7.349,7.349,0,0,0,3.57-.9A6.741,6.741,0,0,0,15,17.733a7.956,7.956,0,0,0,.987-4.047,7.986,7.986,0,0,0-.9-3.932A6.481,6.481,0,0,0,12.65,7.238,6.656,6.656,0,0,0,9.245,6.35a8.67,8.67,0,0,0-3.323.609,5.824,5.824,0,0,0-2.27,1.559V0A3.652,3.652,0,0,0,0,3.652V20.891H3.685Zm0-6.876a4.045,4.045,0,0,1,.9-1.53A4.453,4.453,0,0,1,6.07,9.623a4.785,4.785,0,0,1,1.925-.378,4.058,4.058,0,0,1,2.155.592A4.448,4.448,0,0,1,11.7,11.416a4.361,4.361,0,0,1,.576,2.237,4.6,4.6,0,0,1-.576,2.3,4.237,4.237,0,0,1-1.546,1.6,4.141,4.141,0,0,1-2.155.576,4.935,4.935,0,0,1-1.941-.362,4.022,4.022,0,0,1-1.448-1.02,4.821,4.821,0,0,1-.921-1.513Z" transform="translate(139 46)" fill="#ffffff"/>
    <path id="Pfad_2-2" data-name="Pfad 2" d="M98.73,29.628a6.82,6.82,0,0,0-4.721-1.661,7.981,7.981,0,0,0-3.964,1,7.733,7.733,0,0,0-2.846,2.7,6.991,6.991,0,0,0-1.053,3.767,7.866,7.866,0,0,0,.921,3.849,6.546,6.546,0,0,0,2.665,2.632,8.66,8.66,0,0,0,4.211.954,8.236,8.236,0,0,0,2.484-.411,10.085,10.085,0,0,0,2.385-1.1l-1.678-2.731a7.276,7.276,0,0,1-1.5.789,4.513,4.513,0,0,1-1.629.3,4.314,4.314,0,0,1-2.171-.543,3.891,3.891,0,0,1-1.326-1.243l10.7-3.61a8.331,8.331,0,0,0-2.484-4.688m-8.455,3.323a3.929,3.929,0,0,1,1.4-1.53,3.746,3.746,0,0,1,2.04-.559,3.271,3.271,0,0,1,2.27.74,4.026,4.026,0,0,1,1.1,1.6l-7.3,2.6c-.016-.181-.026-.366-.026-.558a4.848,4.848,0,0,1,.51-2.287" transform="translate(72.413 24.383)" fill="#ffffff"/>
    <path id="Pfad_3-2" data-name="Pfad 3" d="M172.589,32.68a3.8,3.8,0,0,1,2.007-.559,4.64,4.64,0,0,1,1.925.378,6.247,6.247,0,0,1,1.365.806l1.81-2.4a7.134,7.134,0,0,0-2.3-1.3,9.375,9.375,0,0,0-3.126-.477A7.7,7.7,0,0,0,170.7,30a6.923,6.923,0,0,0-2.731,2.517,7.192,7.192,0,0,0-1.036,3.915,7.477,7.477,0,0,0,.971,3.9,6.648,6.648,0,0,0,2.714,2.533,8.666,8.666,0,0,0,4.047.9,8.427,8.427,0,0,0,2.681-.444,6.984,6.984,0,0,0,2.254-1.2l-1.842-2.3a4.456,4.456,0,0,1-2.8.921,4.33,4.33,0,0,1-2.254-.576,4.181,4.181,0,0,1-1.53-1.563,4.324,4.324,0,0,1-.559-2.171,4.583,4.583,0,0,1,.526-2.221,3.967,3.967,0,0,1,1.448-1.53" transform="translate(9.97 23.486)" fill="#ffffff"/>
    <path id="Pfad_4-2" data-name="Pfad 4" d="M242.965,0h-.033V20.892h3.685V3.652A3.652,3.652,0,0,0,242.965,0" transform="translate(-48.776 46)" fill="#ffffff"/>
    <path id="Pfad_5-2" data-name="Pfad 5" d="M292.024,30.485a6.616,6.616,0,0,0-1.822-1.712,5.839,5.839,0,0,0-3.241-.806,6.824,6.824,0,0,0-3.471.921,6.918,6.918,0,0,0-2.566,2.616,8.045,8.045,0,0,0-.971,4.063,8.085,8.085,0,0,0,.921,4.03,6.015,6.015,0,0,0,2.517,2.451,7.609,7.609,0,0,0,3.537.822,6.061,6.061,0,0,0,2.188-.362,6.557,6.557,0,0,0,1.629-.888,8.7,8.7,0,0,0,1.1-.971c.054-.059.1-.112.148-.164v2.023h3.685V28.592h-3.389Zm-.852,7.977a3.785,3.785,0,0,1-1.382,1.02,4.525,4.525,0,0,1-1.842.362,4.024,4.024,0,0,1-2.106-.592,4.621,4.621,0,0,1-1.6-6.152,4.267,4.267,0,0,1,1.513-1.546,4,4,0,0,1,2.089-.559,4.65,4.65,0,0,1,1.859.362,4.172,4.172,0,0,1,1.431,1,3.846,3.846,0,0,1,.855,1.5v3.027a4.172,4.172,0,0,1-.823,1.579" transform="translate(-77.392 24.383)" fill="#ffffff"/>
    <path id="Pfad_6-2" data-name="Pfad 6" d="M394,42.51h3.652V32.146a4.1,4.1,0,0,0-1.25-3.01,4.509,4.509,0,0,0-3.257-1.168,5.331,5.331,0,0,0-2.862.839,6.627,6.627,0,0,0-2.069,2.043,3.075,3.075,0,0,0-.744-1.5,4.136,4.136,0,0,0-1.5-1.02,5.377,5.377,0,0,0-2.04-.362,5.857,5.857,0,0,0-3.175.855,5.989,5.989,0,0,0-2.092,2.257l-.26-2.487h-3.323V42.51h3.685V36.259a6.615,6.615,0,0,1,.461-2.451,4.8,4.8,0,0,1,1.316-1.908,2.97,2.97,0,0,1,2.007-.74,1.791,1.791,0,0,1,1.513.74,3.26,3.26,0,0,1,.461,1.661V42.51h3.685V36.259a7.11,7.11,0,0,1,.494-2.451,4.721,4.721,0,0,1,1.332-1.908,3.076,3.076,0,0,1,2.056-.74,1.7,1.7,0,0,1,1.481.74A3.48,3.48,0,0,1,394,33.561Z" transform="translate(-150.923 24.382)" fill="#ffffff"/>
    <path id="Pfad_7-2" data-name="Pfad 7" d="M499.049,41.966a8.691,8.691,0,0,0,4.03.9,8.143,8.143,0,0,0,4.08-.987A6.851,6.851,0,0,0,509.84,39.2a8.168,8.168,0,0,0,0-7.6,6.774,6.774,0,0,0-2.665-2.665,8.165,8.165,0,0,0-4.063-.971,8.307,8.307,0,0,0-4.047.971,7.144,7.144,0,0,0-2.78,2.665,7.311,7.311,0,0,0-1,3.8,7.607,7.607,0,0,0,1,3.981,6.745,6.745,0,0,0,2.763,2.583m.477-8.768a4.365,4.365,0,0,1,1.431-1.6,3.6,3.6,0,0,1,2.056-.609,3.79,3.79,0,0,1,2.122.592,4.077,4.077,0,0,1,1.415,1.6,4.906,4.906,0,0,1,.51,2.254,4.831,4.831,0,0,1-.51,2.221,4.074,4.074,0,0,1-1.415,1.6,3.788,3.788,0,0,1-2.122.592,3.692,3.692,0,0,1-2.04-.592,4.145,4.145,0,0,1-1.448-1.6,4.984,4.984,0,0,1,0-4.458" transform="translate(-243.833 24.383)" fill="#ffffff"/>
  </g>
</svg>
