<svg xmlns="http://www.w3.org/2000/svg" width="44.129" height="29.826" viewBox="0 0 44.129 29.826">
  <g id="Gruppe_152" data-name="Gruppe 152" transform="translate(-248 -329.275)">
    <path id="Pfad_93" data-name="Pfad 93" d="M273.252,334.067a4.407,4.407,0,0,0-2.254-.588,5.739,5.739,0,0,0-2.2.4,3.852,3.852,0,0,0-1.5,1.032v-5.639h0a2.418,2.418,0,0,0-2.418,2.418v11.413h2.439v-1.221a4.689,4.689,0,0,0,1.242.97,4.374,4.374,0,0,0,2.134.49,4.866,4.866,0,0,0,2.363-.6,4.463,4.463,0,0,0,1.753-1.731,5.885,5.885,0,0,0,.055-5.282A4.291,4.291,0,0,0,273.252,334.067Zm-.632,5.772A2.806,2.806,0,0,1,271.6,340.9a2.742,2.742,0,0,1-1.427.381h0a3.268,3.268,0,0,1-1.285-.239,2.665,2.665,0,0,1-.958-.675,3.193,3.193,0,0,1-.61-1v-2.025a2.679,2.679,0,0,1,.6-1.013,2.948,2.948,0,0,1,.98-.675,3.168,3.168,0,0,1,1.274-.251,2.686,2.686,0,0,1,1.427.392,2.945,2.945,0,0,1,1.024,1.046,2.889,2.889,0,0,1,.381,1.481A3.049,3.049,0,0,1,272.62,339.839Z" transform="translate(-15.4 0)" fill="#fff"/>
    <path id="Pfad_94" data-name="Pfad 94" d="M423.8,386.538a5.734,5.734,0,0,0,2.788.632,5.447,5.447,0,0,0,1.644-.272,6.681,6.681,0,0,0,1.579-.73L428.7,384.36a4.818,4.818,0,0,1-.991.523,2.993,2.993,0,0,1-1.078.2,2.854,2.854,0,0,1-1.438-.359,2.609,2.609,0,0,1-.879-.823l7.087-2.39a5.516,5.516,0,0,0-1.645-3.1,4.514,4.514,0,0,0-3.125-1.1,5.283,5.283,0,0,0-2.625.664,5.122,5.122,0,0,0-1.884,1.786,4.629,4.629,0,0,0-.7,2.494,5.208,5.208,0,0,0,.61,2.548A4.337,4.337,0,0,0,423.8,386.538Zm.359-5.936a2.6,2.6,0,0,1,.926-1.013,2.482,2.482,0,0,1,1.351-.37,2.166,2.166,0,0,1,1.5.49,2.652,2.652,0,0,1,.73,1.058l-4.829,1.719c-.011-.12-.017-.242-.017-.369A3.209,3.209,0,0,1,424.155,380.6Z" transform="translate(-158.244 -43.824)" fill="#fff"/>
    <path id="Pfad_95" data-name="Pfad 95" d="M577.146,387.89l-1.219-1.524a2.954,2.954,0,0,1-1.852.61,2.868,2.868,0,0,1-1.492-.381,2.769,2.769,0,0,1-1.013-1.035,2.864,2.864,0,0,1-.37-1.438,3.036,3.036,0,0,1,.349-1.47,2.625,2.625,0,0,1,.958-1.013,2.512,2.512,0,0,1,1.328-.37,3.075,3.075,0,0,1,1.274.25,4.141,4.141,0,0,1,.9.534l1.2-1.59a4.724,4.724,0,0,0-1.525-.86,6.21,6.21,0,0,0-2.07-.316,5.1,5.1,0,0,0-2.363.578,4.584,4.584,0,0,0-1.808,1.666,4.764,4.764,0,0,0-.686,2.592,4.951,4.951,0,0,0,.643,2.581,4.4,4.4,0,0,0,1.8,1.677,5.735,5.735,0,0,0,2.679.6,5.586,5.586,0,0,0,1.775-.294A4.622,4.622,0,0,0,577.146,387.89Z" transform="translate(-292.688 -45.634)" fill="#fff"/>
    <path id="Pfad_96" data-name="Pfad 96" d="M707.906,329.275h-.022v13.831h2.439V331.693A2.418,2.418,0,0,0,707.906,329.275Z" transform="translate(-419.637 0)" fill="#fff"/>
    <path id="Pfad_97" data-name="Pfad 97" d="M255.991,559a4.318,4.318,0,0,0-1.206-1.136,3.865,3.865,0,0,0-2.146-.534,4.517,4.517,0,0,0-2.3.61,4.578,4.578,0,0,0-1.7,1.732,6.044,6.044,0,0,0-.033,5.358,3.981,3.981,0,0,0,1.666,1.623,5.035,5.035,0,0,0,2.341.544,4.017,4.017,0,0,0,1.449-.24,4.352,4.352,0,0,0,1.078-.588,5.761,5.761,0,0,0,.73-.643c.034-.034.066-.068.1-.1v1.334h2.439v-9.213h-2.243Zm-.563,5.278a2.506,2.506,0,0,1-.915.675,2.994,2.994,0,0,1-1.22.24h0a2.667,2.667,0,0,1-1.394-.392,3.06,3.06,0,0,1-1.056-4.073,2.825,2.825,0,0,1,1-1.024,2.648,2.648,0,0,1,1.383-.37,3.081,3.081,0,0,1,1.231.239,2.768,2.768,0,0,1,.948.664,2.547,2.547,0,0,1,.566.991v2A2.761,2.761,0,0,1,255.427,564.278Z" transform="translate(0 -208.097)" fill="#fff"/>
    <path id="Pfad_98" data-name="Pfad 98" d="M431.931,557.323a3.529,3.529,0,0,0-1.895.555,4.415,4.415,0,0,0-1.368,1.349,2.064,2.064,0,0,0-.494-.99,2.741,2.741,0,0,0-.991-.675,3.562,3.562,0,0,0-1.35-.24,3.877,3.877,0,0,0-2.1.566,3.979,3.979,0,0,0-1.385,1.493l-.172-1.645h-2.2v9.213h2.44v-4.138a4.378,4.378,0,0,1,.3-1.623,3.174,3.174,0,0,1,.871-1.263,1.966,1.966,0,0,1,1.329-.49,1.185,1.185,0,0,1,1,.49,2.155,2.155,0,0,1,.3,1.1v5.925h2.44v-4.138a4.705,4.705,0,0,1,.327-1.623,3.124,3.124,0,0,1,.882-1.263,2.035,2.035,0,0,1,1.361-.49,1.123,1.123,0,0,1,.98.49,2.3,2.3,0,0,1,.283,1.1v5.925h2.418v-6.861a2.709,2.709,0,0,0-.828-1.993A2.984,2.984,0,0,0,431.931,557.323Z" transform="translate(-156.923 -208.089)" fill="#fff"/>
    <path id="Pfad_99" data-name="Pfad 99" d="M644.64,559.739a4.484,4.484,0,0,0-1.764-1.764,5.4,5.4,0,0,0-2.69-.643,5.5,5.5,0,0,0-2.679.643,4.731,4.731,0,0,0-1.84,1.764,4.842,4.842,0,0,0-.664,2.516,5.033,5.033,0,0,0,.664,2.636,4.465,4.465,0,0,0,1.83,1.71,5.755,5.755,0,0,0,2.668.6,5.4,5.4,0,0,0,2.7-.653,4.535,4.535,0,0,0,1.775-1.775,5.407,5.407,0,0,0,0-5.031Zm-2.178,4.007a2.7,2.7,0,0,1-.936,1.057,2.509,2.509,0,0,1-1.4.392,2.446,2.446,0,0,1-1.351-.392,2.746,2.746,0,0,1-.958-1.056,3.3,3.3,0,0,1,0-2.952,2.891,2.891,0,0,1,.948-1.057,2.385,2.385,0,0,1,1.361-.4,2.509,2.509,0,0,1,1.4.392,2.7,2.7,0,0,1,.936,1.056,3.248,3.248,0,0,1,.338,1.492A3.2,3.2,0,0,1,642.462,563.746Z" transform="translate(-353.133 -208.098)" fill="#fff"/>
  </g>
</svg>
