<?xml version="1.0" encoding="utf-8"?>
<!-- Generator: Adobe Illustrator 27.0.1, SVG Export Plug-In . SVG Version: 6.00 Build 0)  -->
<svg version="1.1" id="Ebene_1" xmlns="http://www.w3.org/2000/svg" xmlns:xlink="http://www.w3.org/1999/xlink" x="0px" y="0px"
	 viewBox="0 0 44.1 29.8" style="enable-background:new 0 0 44.1 29.8;" xml:space="preserve">
<style type="text/css">
	.st0{fill:#191919;}
</style>
<g id="Gruppe_152" transform="translate(-248 -329.275)">
	<path id="Pfad_93" class="st0" d="M257.9,334.1c-0.7-0.4-1.5-0.6-2.3-0.6c-0.8,0-1.5,0.1-2.2,0.4c-0.6,0.2-1.1,0.6-1.5,1v-5.6l0,0
		c-1.3,0-2.4,1.1-2.4,2.4v11.4h2.4v-1.2c0.4,0.4,0.8,0.7,1.2,1c0.7,0.3,1.4,0.5,2.1,0.5c0.8,0,1.6-0.2,2.4-0.6
		c0.7-0.4,1.3-1,1.8-1.7c0.9-1.7,0.9-3.6,0.1-5.3C259.1,335,258.5,334.5,257.9,334.1z M257.2,339.8c-0.2,0.4-0.6,0.8-1,1.1
		c-0.4,0.3-0.9,0.4-1.4,0.4l0,0c-0.4,0-0.9-0.1-1.3-0.2c-0.4-0.2-0.7-0.4-1-0.7c-0.3-0.3-0.5-0.6-0.6-1v-2c0.1-0.4,0.3-0.7,0.6-1
		c0.3-0.3,0.6-0.5,1-0.7c0.4-0.2,0.8-0.3,1.3-0.3c0.5,0,1,0.1,1.4,0.4c0.4,0.3,0.8,0.6,1,1c0.3,0.5,0.4,1,0.4,1.5
		C257.6,338.9,257.5,339.4,257.2,339.8L257.2,339.8z"/>
	<path id="Pfad_94" class="st0" d="M265.6,342.7c0.9,0.4,1.8,0.7,2.8,0.6c0.6,0,1.1-0.1,1.6-0.3c0.6-0.2,1.1-0.4,1.6-0.7l-1.1-1.8
		c-0.3,0.2-0.6,0.4-1,0.5c-0.3,0.1-0.7,0.2-1.1,0.2c-0.5,0-1-0.1-1.4-0.4c-0.4-0.2-0.7-0.5-0.9-0.8l7.1-2.4
		c-0.2-1.2-0.8-2.3-1.6-3.1c-0.9-0.7-2-1.1-3.1-1.1c-0.9,0-1.8,0.2-2.6,0.7c-0.8,0.4-1.4,1-1.9,1.8c-0.5,0.7-0.7,1.6-0.7,2.5
		c0,0.9,0.2,1.8,0.6,2.5C264.2,341.7,264.8,342.3,265.6,342.7z M265.9,336.8c0.2-0.4,0.5-0.8,0.9-1c0.4-0.3,0.9-0.4,1.4-0.4
		c0.5,0,1.1,0.1,1.5,0.5c0.3,0.3,0.6,0.7,0.7,1.1l-4.8,1.7c0-0.1,0-0.2,0-0.4C265.6,337.8,265.7,337.2,265.9,336.8L265.9,336.8z"/>
	<path id="Pfad_95" class="st0" d="M284.5,342.3l-1.2-1.5c-0.5,0.4-1.2,0.6-1.9,0.6c-0.5,0-1-0.1-1.5-0.4c-0.4-0.2-0.8-0.6-1-1
		c-0.2-0.4-0.4-0.9-0.4-1.4c0-0.5,0.1-1,0.3-1.5c0.2-0.4,0.6-0.8,1-1c0.4-0.2,0.9-0.4,1.3-0.4c0.4,0,0.9,0.1,1.3,0.2
		c0.3,0.1,0.6,0.3,0.9,0.5l1.2-1.6c-0.5-0.4-1-0.7-1.5-0.9c-0.7-0.2-1.4-0.3-2.1-0.3c-0.8,0-1.6,0.2-2.4,0.6c-0.7,0.4-1.4,1-1.8,1.7
		c-0.5,0.8-0.7,1.7-0.7,2.6c0,0.9,0.2,1.8,0.6,2.6c0.4,0.7,1.1,1.3,1.8,1.7c0.8,0.4,1.8,0.6,2.7,0.6c0.6,0,1.2-0.1,1.8-0.3
		C283.5,342.9,284,342.6,284.5,342.3z"/>
	<path id="Pfad_96" class="st0" d="M288.3,329.3L288.3,329.3l0,13.8h2.4v-11.4C290.7,330.4,289.6,329.3,288.3,329.3z"/>
	<path id="Pfad_97" class="st0" d="M256,350.9c-0.3-0.5-0.7-0.8-1.2-1.1c-0.6-0.4-1.4-0.6-2.1-0.5c-0.8,0-1.6,0.2-2.3,0.6
		c-0.7,0.4-1.3,1-1.7,1.7c-0.8,1.7-0.9,3.7,0,5.4c0.4,0.7,1,1.3,1.7,1.6c0.7,0.4,1.5,0.6,2.3,0.5c0.5,0,1-0.1,1.4-0.2
		c0.4-0.1,0.7-0.3,1.1-0.6c0.3-0.2,0.5-0.4,0.7-0.6c0,0,0.1-0.1,0.1-0.1v1.3h2.4v-9.2h-2.2L256,350.9z M255.4,356.2
		c-0.2,0.3-0.6,0.5-0.9,0.7c-0.4,0.2-0.8,0.2-1.2,0.2l0,0c-0.5,0-1-0.1-1.4-0.4c-1.4-0.9-1.8-2.7-1.1-4.1c0.2-0.4,0.6-0.8,1-1
		c0.4-0.2,0.9-0.4,1.4-0.4c0.4,0,0.8,0.1,1.2,0.2c0.4,0.2,0.7,0.4,0.9,0.7c0.3,0.3,0.5,0.6,0.6,1v2
		C255.9,355.5,255.7,355.9,255.4,356.2L255.4,356.2z"/>
	<path id="Pfad_98" class="st0" d="M275,349.2c-0.7,0-1.3,0.2-1.9,0.6c-0.5,0.3-1,0.8-1.4,1.3c-0.1-0.4-0.2-0.7-0.5-1
		c-0.3-0.3-0.6-0.5-1-0.7c-0.4-0.2-0.9-0.2-1.4-0.2c-0.7,0-1.5,0.2-2.1,0.6c-0.6,0.4-1.1,0.9-1.4,1.5l-0.2-1.6h-2.2v9.2h2.4v-4.1
		c0-0.6,0.1-1.1,0.3-1.6c0.2-0.5,0.5-0.9,0.9-1.3c0.4-0.3,0.8-0.5,1.3-0.5c0.4,0,0.8,0.2,1,0.5c0.2,0.3,0.3,0.7,0.3,1.1v5.9h2.4
		v-4.1c0-0.6,0.1-1.1,0.3-1.6c0.2-0.5,0.5-0.9,0.9-1.3c0.4-0.3,0.9-0.5,1.4-0.5c0.4,0,0.8,0.2,1,0.5c0.2,0.3,0.3,0.7,0.3,1.1v5.9
		h2.4V352c0-0.8-0.3-1.5-0.8-2C276.6,349.5,275.8,349.2,275,349.2z"/>
	<path id="Pfad_99" class="st0" d="M291.5,351.6c-0.4-0.7-1-1.4-1.8-1.8c-0.8-0.4-1.8-0.7-2.7-0.6c-0.9,0-1.9,0.2-2.7,0.6
		c-0.8,0.4-1.4,1-1.8,1.8c-0.4,0.8-0.7,1.6-0.7,2.5c0,0.9,0.2,1.8,0.7,2.6c0.4,0.7,1.1,1.3,1.8,1.7c0.8,0.4,1.7,0.6,2.7,0.6
		c0.9,0,1.9-0.2,2.7-0.7c0.7-0.4,1.4-1,1.8-1.8C292.3,355.1,292.3,353.2,291.5,351.6L291.5,351.6z M289.3,355.6
		c-0.2,0.4-0.5,0.8-0.9,1.1c-0.4,0.3-0.9,0.4-1.4,0.4c-0.5,0-0.9-0.1-1.4-0.4c-0.4-0.3-0.7-0.6-1-1.1c-0.5-0.9-0.5-2,0-3
		c0.2-0.4,0.5-0.8,0.9-1.1c0.4-0.3,0.9-0.4,1.4-0.4c0.5,0,1,0.1,1.4,0.4c0.4,0.3,0.7,0.6,0.9,1.1c0.2,0.5,0.3,1,0.3,1.5
		C289.7,354.7,289.6,355.2,289.3,355.6L289.3,355.6z"/>
</g>
</svg>
