<svg xmlns="http://www.w3.org/2000/svg" width="1479.446" height="324.208" viewBox="0 0 1479.446 324.208">
  <g id="Gruppe_15" data-name="Gruppe 15" transform="translate(-278 -842)">
    <g id="Gruppe_11" data-name="Gruppe 11" transform="translate(278 931.84)">
      <path id="Pfad_9" data-name="Pfad 9" d="M28.474,194.377c-8.961,0-19.513.434-28.474.723,1.012-10.263,2.457-24.427,2.457-52.758C2.457,107.364,1.156,101,0,90.886c5.348.289,11.274.723,16.621.723s11.13-.434,16.478-.723c-1.156,10.118-2.313,16.478-2.313,51.456,0,18.936.434,31.366,1.012,40.473h53.19c10.7,0,15.611-.434,25.874-11.275l1.879.867-10.7,20.669c-.867,1.59-1.59,2.023-4.191,2.023-64.9,0-65.043-.723-69.379-.723" transform="translate(0 -87.562)" fill="#011f66"/>
      <path id="Pfad_10" data-name="Pfad 10" d="M200.218,87.644c44.229,0,82.677,19.224,82.677,53.481,0,32.666-33.966,57.382-86.435,57.382-43.8,0-82.533-19.368-82.533-53.914,0-33.1,34.112-56.948,86.291-56.948M147.75,142.858c0,28.331,20.669,45.242,50.878,45.242,27.9,0,50.3-14.743,50.3-44.664,0-28.329-20.669-45.385-50.879-45.385-27.607,0-50.3,14.888-50.3,44.806" transform="translate(2.855 -87.643)" fill="#011f66"/>
      <path id="Pfad_11" data-name="Pfad 11" d="M403.455,113.806l-1.879.578c-9.829-10.985-24.861-15.755-45.819-15.755-24.139,0-35.7,6.793-35.7,15.755,0,25.728,90.193.145,90.193,48.133,0,32.666-41.628,35.7-62.731,35.7-25.439,0-37.435-3.758-50.3-8.962l-5.348-21.969,1.879-.579c7.66,13.154,29.052,20.38,53.19,20.38,22.982,0,39.749-5.059,39.749-18.356,0-27.03-90.193-.868-90.193-47.555,0-31.943,41.339-33.533,54.925-33.533,21.538,0,37.147,3.18,48.276,7.949Z" transform="translate(7.315 -87.643)" fill="#011f66"/>
      <path id="Pfad_12" data-name="Pfad 12" d="M577.02,98.837c20.524,35.556,34.255,60.273,59.115,96.264-8.093-.434-13.153-.723-18.067-.723-5.059,0-9.973.289-18.068.723-4.191-8.961-8.672-17.923-13.3-26.885H514.288c-5.492,9.54-10.7,18.79-14.743,26.885a73.053,73.053,0,0,0-11.274-.723,70.98,70.98,0,0,0-11.13.723c20.815-26.6,49-68.512,68.079-97.71-2.747-3.035-6.361-3.758-14.31-4.625V90.887c5.348,0,13.154.723,18.357.723,5.492,0,11.707-.723,15.031-.723,6.939,0,9.829.867,12.721,7.95m-25.006,9.25c-8.961,13.875-19.947,30.931-30.21,47.7h58.25c-8.528-15.466-17.778-31.221-28.041-47.7" transform="translate(11.958 -87.562)" fill="#011f66"/>
      <path id="Pfad_13" data-name="Pfad 13" d="M648.376,88.078C656.9,94,690,117.273,720.357,134.764c16.044,8.672,27.318,15.466,36.569,20.669.289-10.118.723-18.646.723-28.186,0-9.974-.434-20.957-1.879-36.28a57.727,57.727,0,0,0,18.211,0,554.616,554.616,0,0,0-2.746,57.238c0,16.333.578,33.245,1.735,50.3h-1.88c-8.528-5.782-37.869-26.163-62.007-40.327-20.091-10.7-35.124-19.947-46.543-26.451q-.434,9.539-.433,19.946a417.209,417.209,0,0,0,2.168,43.507,59.8,59.8,0,0,0-9.107-.723,58.286,58.286,0,0,0-9.106.723c1.3-11.708,1.879-28.619,1.879-46.253,0-21.969-.868-45.1-2.023-61.285h2.312Z" transform="translate(16.188 -87.643)" fill="#011f66"/>
      <path id="Pfad_14" data-name="Pfad 14" d="M822.686,141.846c0,28.041,21.826,46.253,55.648,46.253,10.552,0,20.669-1.3,28.331-4.191-.289-23.706-1.3-29.342-2.458-37.436,5.06.145,10.407.723,15.466.723,4.914,0,10.262-.578,15.321-.723-1.156,8.673-2.312,14.165-2.312,43.218-5.349,1.012-11.419,2.747-17.779,4.191-10.986,2.457-23.271,4.77-36.714,4.77-47.409,0-88.17-17.779-88.17-56.8,0-34.834,33.677-54.2,87.592-54.2,17.2,0,33.968,2.314,48.854,7.517,2.024.578,3.469,1.59,4.047,3.469l2.458,22.115-1.879.434c-8.239-12.865-25.873-22.982-53.336-22.982-30.642,0-55.069,14.164-55.069,43.651" transform="translate(19.8 -87.643)" fill="#011f66"/>
      <path id="Pfad_15" data-name="Pfad 15" d="M1061.89,93.055l3.469,16.478-1.735.578c-3.324-5.637-10.984-6.938-19.656-6.938H983.982c-.145,10.7-.867,21.68-.867,32.377h35.413c6.793,0,21.97-.577,27.463-1.879a54.407,54.407,0,0,0-.433,8.095,53.489,53.489,0,0,0,.433,7.948c-5.492-1.445-20.669-1.879-27.463-1.879H983.114c0,11.708.723,23.272.867,34.979h54.2c14.6,0,22.259-1.445,31.8-11.563l1.879.867-9.828,20.236c-1.3,2.6-1.734,2.746-4.914,2.746-40.616,0-54.059-.723-66.922-.723-12,0-26.6.434-38.593.723a524.445,524.445,0,0,0,2.313-52.758c0-34.978-1.3-41.338-2.313-51.456,12.142.289,27.029.723,39.171.723,12,0,25.583-.723,68.512-.723,1.59,0,2.168.578,2.6,2.168" transform="translate(23.85 -87.562)" fill="#011f66"/>
      <path id="Pfad_16" data-name="Pfad 16" d="M1109.941,194.377c-8.962,0-19.513.434-28.474.723,1.011-10.263,2.456-24.427,2.456-52.758,0-34.978-1.3-41.338-2.456-51.456,5.347.289,11.274.723,16.621.723s11.13-.434,16.478-.723c-1.156,10.118-2.312,16.478-2.312,51.456,0,18.936.433,31.366,1.012,40.473h53.19c10.7,0,15.611-.434,25.874-11.275l1.879.867-10.7,20.669c-.867,1.59-1.59,2.023-4.191,2.023-64.9,0-65.044-.723-69.379-.723" transform="translate(27.104 -87.562)" fill="#011f66"/>
      <path id="Pfad_17" data-name="Pfad 17" d="M1312.3,93.055l3.469,16.478-1.734.578c-3.324-5.637-10.985-6.938-19.657-6.938H1234.4c-.145,10.7-.867,21.68-.867,32.377h35.413c6.793,0,21.97-.577,27.463-1.879a54.392,54.392,0,0,0-.434,8.095,53.474,53.474,0,0,0,.434,7.948c-5.492-1.445-20.669-1.879-27.463-1.879h-35.413c0,11.708.723,23.272.867,34.979h54.2c14.6,0,22.259-1.445,31.8-11.563l1.879.867-9.828,20.236c-1.3,2.6-1.734,2.746-4.914,2.746-40.616,0-54.059-.723-66.922-.723-12,0-26.6.434-38.592.723a524.432,524.432,0,0,0,2.313-52.758c0-34.978-1.3-41.338-2.312-51.456,12.142.289,27.029.723,39.171.723,12,0,25.583-.723,68.512-.723,1.59,0,2.168.578,2.6,2.168" transform="translate(30.126 -87.562)" fill="#011f66"/>
      <path id="Pfad_18" data-name="Pfad 18" d="M1439.375,113.806l-1.879.578c-9.829-10.985-24.861-15.755-45.819-15.755-24.138,0-35.7,6.793-35.7,15.755,0,25.728,90.193.145,90.193,48.133,0,32.666-41.627,35.7-62.73,35.7-25.44,0-37.437-3.758-50.3-8.962l-5.348-21.969,1.879-.579c7.66,13.154,29.052,20.38,53.19,20.38,22.982,0,39.749-5.059,39.749-18.356,0-27.03-90.193-.868-90.193-47.555,0-31.943,41.338-33.533,54.925-33.533,21.537,0,37.148,3.18,48.277,7.949Z" transform="translate(33.278 -87.643)" fill="#011f66"/>
    </g>
    <g id="Gruppe_12" data-name="Gruppe 12" transform="translate(660.735 1109.521)">
      <path id="Pfad_19" data-name="Pfad 19" d="M414.046,315.508c-2.731,0-5.757.222-8.489.369a54.186,54.186,0,0,0,1.625-13.36c0-15.8-13.73-37.422-28.713-37.422a15.351,15.351,0,0,0-4.724.738l-.369-.96a51.512,51.512,0,0,1,16.09-2.952c14.983,0,24.062,9.6,27.753,26.719,4.724-15.574,15.131-26.941,27.9-26.941a24.283,24.283,0,0,1,10.185,2.362l-.589.886a11.762,11.762,0,0,0-4.724-.959c-3.985,0-8.12,1.845-12.031,4.8-9.891,8.71-16.681,25.834-16.681,33.585a74.219,74.219,0,0,0,1.181,13.506c-2.732-.147-5.683-.369-8.415-.369" transform="translate(-373.377 -260.962)" fill="#011f66"/>
      <path id="Pfad_20" data-name="Pfad 20" d="M489.326,266.7c10.48,18.157,17.493,30.779,30.188,49.158-4.134-.221-6.717-.37-9.227-.37-2.583,0-5.094.149-9.227.37-2.14-4.577-4.428-9.153-6.79-13.73H457.292c-2.806,4.872-5.463,9.6-7.529,13.73a37.281,37.281,0,0,0-5.757-.37,36.212,36.212,0,0,0-5.684.37c10.629-13.581,25.022-34.986,34.765-49.9-1.4-1.551-3.247-1.92-7.308-2.363v-.958c2.731,0,6.717.368,9.374.368,2.8,0,5.978-.368,7.677-.368,3.543,0,5.019.442,6.5,4.059m-12.77,4.723c-4.576,7.085-10.186,15.8-15.426,24.358h29.745c-4.354-7.9-9.078-15.943-14.319-24.358" transform="translate(-371.749 -260.938)" fill="#011f66"/>
      <path id="Pfad_21" data-name="Pfad 21" d="M533.052,288.659c0,14.319,11.146,23.62,28.418,23.62,12.4,0,19.928-3.026,26.646-9.595l1.033.294-2.362,9.743c-.221,1.033-.665,1.181-2.214,1.7a79.168,79.168,0,0,1-23.178,3.248c-24.209,0-45.024-9.08-45.024-29.008,0-17.789,17.2-27.679,44.729-27.679a69.065,69.065,0,0,1,23.694,3.838,2.833,2.833,0,0,1,1.993,1.771l1.919,11.293-.959.221c-4.282-6.569-12.548-11.736-26.572-11.736-15.649,0-28.123,7.234-28.123,22.291" transform="translate(-369.793 -260.98)" fill="#011f66"/>
      <path id="Pfad_22" data-name="Pfad 22" d="M660.5,315.484c-2.732,0-5.758.222-8.489.369.443-4.871,1.107-11.441,1.255-23.988H612.155a221.369,221.369,0,0,0,1.181,23.988c-2.731-.147-5.684-.369-8.415-.369s-5.757.222-8.487.369a240.18,240.18,0,0,0,1.255-26.941c0-17.863-.664-21.11-1.255-26.276,2.731.148,5.757.369,8.487.369s5.684-.221,8.415-.369c-.59,4.8-1.107,8.046-1.181,22.881h41.112c-.074-14.836-.664-18.084-1.255-22.881,2.731.148,5.757.369,8.489.369s5.683-.221,8.414-.369c-.59,5.166-1.18,8.414-1.18,26.276a246.777,246.777,0,0,0,1.18,26.941c-2.731-.147-5.683-.369-8.414-.369" transform="translate(-367.787 -260.939)" fill="#011f66"/>
      <path id="Pfad_23" data-name="Pfad 23" d="M707.208,315.49c-2.732,0-5.683.222-8.415.369a267.8,267.8,0,0,0,1.181-26.941c0-10.924-.3-16.386-.59-20.151H682.038c-3.174,0-5.389,1.181-7.677,4.429l-.96-.3,1.771-10.481h1.107c1.7.148,3.4.221,5.61.221h50.486a41.143,41.143,0,0,0,5.757-.221h1.034l1.771,10.481-.887.3c-2.287-3.248-4.576-4.429-7.676-4.429H714.958c-.3,3.765-.444,9.227-.444,20.151,0,14.467.664,21.7,1.107,26.941-2.731-.147-5.683-.369-8.414-.369" transform="translate(-365.858 -260.944)" fill="#011f66"/>
      <path id="Pfad_24" data-name="Pfad 24" d="M801.97,288.659c0,14.319,11.146,23.62,28.418,23.62,12.4,0,19.928-3.026,26.646-9.595l1.033.294-2.362,9.743c-.221,1.033-.665,1.181-2.214,1.7a79.169,79.169,0,0,1-23.178,3.248c-24.209,0-45.024-9.08-45.024-29.008,0-17.789,17.2-27.679,44.729-27.679a69.066,69.066,0,0,1,23.694,3.838,2.832,2.832,0,0,1,1.993,1.771l1.919,11.293-.959.221c-4.282-6.569-12.548-11.736-26.572-11.736-15.649,0-28.123,7.234-28.123,22.291" transform="translate(-363.053 -260.98)" fill="#011f66"/>
      <path id="Pfad_25" data-name="Pfad 25" d="M879.894,315.484c-4.577,0-9.965.222-14.542.369a239.844,239.844,0,0,0,1.256-26.941c0-17.863-.664-21.11-1.256-26.276,2.732.148,5.758.369,8.489.369s5.684-.221,8.415-.369c-.59,5.166-1.182,8.414-1.182,26.276,0,9.669.222,16.017.518,20.667h27.162c5.462,0,7.972-.222,13.212-5.758l.959.444-5.463,10.555c-.442.812-.812,1.032-2.139,1.032-33.142,0-33.215-.369-35.429-.369" transform="translate(-361.047 -260.939)" fill="#011f66"/>
      <path id="Pfad_26" data-name="Pfad 26" d="M987.655,263a25.4,25.4,0,0,0,5.019-.368c-1.181,8.488-1.181,17.124-1.181,25.685,0,20.077-15.279,29.23-32.772,29.23-16.681,0-33.288-6.864-33.288-29.23,0-8.561,0-17.2-1.328-25.685a74.926,74.926,0,0,0,8.858.368,77.828,77.828,0,0,0,8.93-.368,151.534,151.534,0,0,0-1.255,23.1v2.583c0,16.091,10.408,22.586,20.741,22.586,11.44,0,22.734-6.421,22.734-22.586,0-8.561,0-17.2-1.181-25.685a21.134,21.134,0,0,0,4.724.368" transform="translate(-359.574 -260.938)" fill="#011f66"/>
      <path id="Pfad_27" data-name="Pfad 27" d="M1013.9,315.484c-4.724,0-10.406.222-15.13.369a240.016,240.016,0,0,0,1.254-26.941c0-17.863-.663-21.11-1.254-26.276,4.723.148,10.406.369,15.13.369,5.02,0,9.227-.369,19.93-.369,15.5,0,26.055,3.616,26.055,13.876,0,5.388-2.584,8.858-10.26,10.481,9.817.663,14.91,5.315,14.91,13.064,0,13.212-14.1,15.8-29.007,15.8-10.407,0-16.977-.369-21.628-.369m.518-46.575-.074,15.8h19.486c7.159,0,10.629-2.584,10.629-8.193,0-5.167-3.4-7.6-10.629-7.6Zm-.074,21.627.074,19.044h21.11c7.9,0,12.917-2.732,12.917-9.522,0-7.381-5.832-9.522-14.615-9.522Z" transform="translate(-357.703 -260.939)" fill="#011f66"/>
    </g>
    <g id="Gruppe_13" data-name="Gruppe 13" transform="translate(967.667 842)">
      <path id="Pfad_28" data-name="Pfad 28" d="M679.027,22.541c-.582,0-1.23.091-1.839.122.122-1.962.307-4.9.307-10.513,0-4.843-.062-6.56-.123-8.061l-4.26,2.544-.307-.43L680.652.594h.245c-.153,2.207-.307,3.678-.307,11.556,0,5.609.184,8.552.307,10.513-.615-.031-1.257-.122-1.87-.122" transform="translate(-672.805 0.015)" fill="#011f66"/>
      <path id="Pfad_29" data-name="Pfad 29" d="M696.312,22.928c7.939-1.625,14.13-5.395,15.724-11.1a10.067,10.067,0,0,1-7.908,3.679,16.549,16.549,0,0,1-1.717.092c-5.456,0-9.5-2.575-9.5-7.387,0-4.9,4.261-8.215,11.648-8.215,7.265,0,11.525,3.28,11.525,8.827,0,7.326-7.51,13.026-19.74,14.468ZM712.406,9.043V8.889c0-4.51-2.452-7.51-7.908-7.51-5.364,0-8.03,2.911-8.03,6.712,0,3.985,2.973,6.253,7.51,6.253,3.923,0,7.325-1.655,8.429-5.3" transform="translate(-672.301 0)" fill="#011f66"/>
      <path id="Pfad_30" data-name="Pfad 30" d="M737.77,23.3c-6.345,0-12.076-3.525-12.076-11.372C725.694,3.739,731.488,0,737.924,0c6.407,0,12.138,3.588,12.138,11.463,0,8.123-5.793,11.831-12.292,11.831m8.643-11.372c0-7.294-3.954-10.544-8.674-10.544-4.445,0-8.368,3.034-8.368,10.114,0,7.234,3.9,10.422,8.611,10.422,4.51,0,8.429-2.881,8.429-9.992" transform="translate(-671.479 0)" fill="#011f66"/>
      <path id="Pfad_31" data-name="Pfad 31" d="M766.044,22.541c-.582,0-1.23.091-1.839.122.122-1.962.308-4.9.308-10.513,0-4.843-.062-6.56-.122-8.061L760.13,6.633l-.308-.43L767.669.594h.245c-.153,2.207-.307,3.678-.307,11.556,0,5.609.185,8.552.307,10.513-.615-.031-1.257-.122-1.87-.122" transform="translate(-670.624 0.015)" fill="#011f66"/>
    </g>
    <g id="Gruppe_14" data-name="Gruppe 14" transform="translate(641.181 851.319)">
      <rect id="Rechteck_4" data-name="Rechteck 4" width="281.738" height="3.8" fill="#011f66"/>
      <rect id="Rechteck_5" data-name="Rechteck 5" width="281.738" height="3.8" transform="translate(467.589)" fill="#011f66"/>
    </g>
  </g>
</svg>
