<svg xmlns="http://www.w3.org/2000/svg" width="476.345" height="371.533" viewBox="0 0 476.345 371.533">
  <g id="Gruppe_18" data-name="Gruppe 18" transform="translate(-489 -601)">
    <rect id="Rechteck_1" data-name="Rechteck 1" width="6.304" height="145.562" transform="translate(959.041 758.831)" fill="#f4f4f4"/>
    <rect id="Rechteck_2" data-name="Rechteck 2" width="6.304" height="145.562" transform="translate(489 758.831)" fill="#f4f4f4"/>
    <g id="Gruppe_17" data-name="Gruppe 17" transform="translate(663.916 601)">
      <path id="Pfad_1" data-name="Pfad 1" d="M383.033,28.257c-.708,0-1.489.111-2.234.149.149-2.383.372-5.957.372-12.771,0-5.883-.075-7.968-.149-9.792l-5.176,3.09-.372-.522L385.007,1.6h.3c-.186,2.681-.372,4.468-.372,14.037,0,6.814.224,10.388.372,12.771-.744-.037-1.526-.149-2.271-.149" transform="translate(-375.475 -0.854)" fill="#f4f4f4"/>
      <path id="Pfad_2" data-name="Pfad 2" d="M433.348,27.851c9.644-1.973,17.165-6.553,19.1-13.479-2.16,2.756-5.362,4.282-9.606,4.468a20.2,20.2,0,0,1-2.085.112c-6.628,0-11.542-3.128-11.542-8.973,0-5.957,5.176-9.979,14.149-9.979,8.824,0,14,3.984,14,10.723,0,8.9-9.122,15.824-23.978,17.574ZM452.9,10.984V10.8c0-5.473-2.979-9.122-9.606-9.122-6.516,0-9.755,3.537-9.755,8.153,0,4.841,3.612,7.6,9.123,7.6,4.766,0,8.9-2.011,10.239-6.441" transform="translate(-404.18 0)" fill="#f4f4f4"/>
      <path id="Pfad_3" data-name="Pfad 3" d="M531.511,28.3c-7.708,0-14.67-4.282-14.67-13.813C516.841,4.543,523.878,0,531.7,0c7.782,0,14.745,4.356,14.745,13.925,0,9.867-7.037,14.372-14.931,14.372m10.5-13.813c0-8.861-4.8-12.808-10.537-12.808-5.4,0-10.165,3.686-10.165,12.287,0,8.787,4.729,12.66,10.463,12.66,5.473,0,10.239-3.5,10.239-12.138" transform="translate(-450.985 0)" fill="#f4f4f4"/>
      <path id="Pfad_4" data-name="Pfad 4" d="M615.623,28.257c-.707,0-1.489.111-2.234.149.148-2.383.372-5.957.372-12.771,0-5.883-.075-7.968-.149-9.792l-5.176,3.09-.372-.522L617.6,1.6h.3c-.186,2.681-.373,4.468-.373,14.037,0,6.814.224,10.388.373,12.771-.745-.037-1.526-.149-2.271-.149" transform="translate(-499.712 -0.854)" fill="#f4f4f4"/>
    </g>
    <g id="Gruppe_16" data-name="Gruppe 16" transform="translate(543.144 690.691)">
      <path id="Pfad_5" data-name="Pfad 5" d="M298.886,535.042a54.147,54.147,0,0,0-22.709-5.266c-28.468,0-51.671,25.343-62.2,60.064-8.228-38.178-28.469-59.57-61.875-59.57-10.532,0-22.544,2.139-35.873,6.582l.823,2.14a34.228,34.228,0,0,1,10.532-1.646c33.4,0,64.013,48.216,64.013,83.432a120.936,120.936,0,0,1-3.621,29.785c6.089-.329,12.836-.823,18.924-.823s12.671.494,18.76.823a165.443,165.443,0,0,1-2.633-30.115c0-17.278,15.139-55.456,37.19-74.874,8.722-6.582,17.937-10.7,26.823-10.7a26.225,26.225,0,0,1,10.532,2.139Z" transform="translate(-116.226 -372.669)" fill="#f4f4f4"/>
      <path id="Pfad_6" data-name="Pfad 6" d="M662.27,619.219c-14.975,14.646-31.759,21.393-59.406,21.393-38.506,0-63.355-20.735-63.355-52.659,0-33.57,27.811-49.7,62.7-49.7,31.266,0,49.7,11.519,59.241,26.165l2.139-.493-4.278-25.177c-.658-2.139-2.468-3.292-4.443-3.95-16.785-5.924-33.57-8.557-52.823-8.557-61.38,0-99.722,22.051-99.722,61.71,0,44.431,46.406,64.671,100.381,64.671a176.475,176.475,0,0,0,51.672-7.24c3.456-1.152,4.443-1.481,4.937-3.785l5.265-21.722Z" transform="translate(-322.456 -370.783)" fill="#f4f4f4"/>
      <path id="Pfad_7" data-name="Pfad 7" d="M281.86,297.19H221.3c-.658-10.367-1.152-24.519-1.152-46.076,0-39.823,1.316-47.064,2.633-58.583-6.089.329-12.671.822-18.76.822s-12.836-.493-18.924-.822c1.317,11.519,2.8,18.759,2.8,58.583,0,32.253-1.645,48.38-2.8,60.063,10.2-.329,22.216-.823,32.418-.823,4.937,0,5.1.823,78.988.823,2.962,0,3.785-.493,4.773-2.3l12.177-23.532-2.139-.987C299.633,296.7,294.038,297.19,281.86,297.19" transform="translate(-153.015 -192.531)" fill="#f4f4f4"/>
      <path id="Pfad_8" data-name="Pfad 8" d="M503.094,192.531c-3.785,0-10.86.822-17.114.822-5.924,0-14.81-.822-20.9-.822v2.139c9.051.987,13.165,1.81,16.291,5.266-9.77,14.952-21.639,32.832-33.9,50.738l-4.2-1.984-2.838-1.321-2.924-1.288-1.464-.641c-.489-.212-1-.4-1.505-.607l-3.022-1.2c-1.017-.384-2.068-.72-3.1-1.079-1.041-.343-2.056-.736-3.128-1.009-2.124-.577-4.216-1.243-6.38-1.647l-3.217-.682c-1.074-.208-2.16-.332-3.237-.5l-3.233-.467c-1.081-.1-2.16-.222-3.239-.307-1.081-.067-2.159-.161-3.238-.2s-2.157-.092-3.233-.1a109.951,109.951,0,0,0-12.812.55c-1.058.1-2.115.2-3.164.346l-3.147.413c-2.082.351-4.173.642-6.229,1.078-1.03.206-2.063.4-3.089.616l-3.063.7-1.529.353-1.516.4-3.027.8a204.173,204.173,0,0,0-23.492,8.12l2.314,6.337a196.4,196.4,0,0,1,23.165-5.929l2.923-.518,1.46-.256,1.465-.212,2.926-.424c.976-.124,1.954-.223,2.93-.336,1.95-.25,3.906-.354,5.853-.523l2.922-.139c.973-.058,1.945-.068,2.915-.077a98.712,98.712,0,0,1,11.551.455c.953.087,1.9.22,2.846.326s1.884.278,2.825.413c.938.153,1.869.335,2.8.5l2.759.641c.916.223,1.842.4,2.746.655l2.691.813c1.807.483,3.539,1.215,5.293,1.843.881.3,1.732.718,2.594,1.083.859.384,1.721.734,2.575,1.14l2.553,1.266c.425.214.85.41,1.275.639l1.276.691,2.553,1.386,2.579,1.47,2.318,1.338c-12.123,17.427-24.226,34.2-34.691,47.575a80.826,80.826,0,0,1,12.671-.823,83.223,83.223,0,0,1,12.836.823c4.608-9.215,10.532-19.747,16.785-30.608l5.813-9.614.776.385c.491.239.971.491,1.473.717l1.516.668,3.04,1.332c1.034.408,2.082.791,3.126,1.186l1.569.587.786.291.8.249a103.741,103.741,0,0,0,12.966,3.342c16.607,3.213,33.6,2.644,49.94-.334l.638,1.192c5.266,10.2,10.367,20.405,15.139,30.608,9.215-.493,14.81-.823,20.57-.823,5.595,0,11.354.329,20.57.823-28.3-40.975-43.937-69.114-67.3-109.6-3.291-8.063-6.583-9.05-14.482-9.05m-11.131,69.162c-.932.026-1.857-.017-2.787-.024s-1.856-.057-2.783-.1L485,261.5l-1.376-.129-2.758-.252a81.064,81.064,0,0,1-20.019-4.642c9.816-15.776,19.823-31.309,28.257-44.367,10.009,16.071,19.171,31.537,27.7,46.712a126.217,126.217,0,0,1-13.682,2.242,110.78,110.78,0,0,1-11.158.626" transform="translate(-234.924 -192.531)" fill="#f4f4f4"/>
    </g>
  </g>
</svg>
