<svg id="Gruppe_53" data-name="Gruppe 53" xmlns="http://www.w3.org/2000/svg" width="40" height="32" viewBox="0 0 40 32">
  <path id="Rechteck_36" data-name="Rechteck 36" d="M8.615,2.462A6.161,6.161,0,0,0,2.462,8.615V23.385a6.161,6.161,0,0,0,6.154,6.154H31.385a6.161,6.161,0,0,0,6.154-6.154V8.615a6.161,6.161,0,0,0-6.154-6.154H8.615M8.615,0H31.385A8.615,8.615,0,0,1,40,8.615V23.385A8.615,8.615,0,0,1,31.385,32H8.615A8.615,8.615,0,0,1,0,23.385V8.615A8.615,8.615,0,0,1,8.615,0Z" fill="#04132e"/>
  <path id="iconmonstr-behance-1" d="M17.9,6.627H12.2V5H17.9Zm1.4,8.135c-.36,1.055-1.651,2.441-4.15,2.441s-4.526-1.407-4.526-4.617c0-3.181,1.891-4.816,4.447-4.816a4.082,4.082,0,0,1,4.373,3.6,10.893,10.893,0,0,1,.077,1.741h-6.53a2.191,2.191,0,0,0,3.732,1.651H19.3Zm-6.253-3.254h4.039A1.818,1.818,0,0,0,15.073,9.7,1.864,1.864,0,0,0,13.049,11.508ZM5.26,17.193H0V5.017H5.656c4.455.066,4.539,4.429,2.213,5.618C10.685,11.66,10.779,17.193,5.26,17.193ZM2.441,9.881H5.356c2.04,0,2.364-2.441-.254-2.441H2.441V9.881ZM5.2,12.322H2.441v2.454H5.158C7.644,14.775,7.492,12.322,5.2,12.322Z" transform="translate(10.238 4.899)" fill="#04132e"/>
</svg>
