<?xml version="1.0" encoding="UTF-8"?><svg id="Ebene_2" xmlns="http://www.w3.org/2000/svg" viewBox="0 0 84.34 33.7"><defs><style>.cls-1{fill:#29aa58;}</style></defs><g id="Ebene_2-2"><polygon class="cls-1" points="84.34 10.69 84.28 12.61 84.25 13.16 80.89 13.24 76.28 14.05 60.77 14.85 54.41 6.03 45.79 12.59 43.4 11.17 37.73 14.41 31.3 17.57 29.23 15.66 26.03 14.13 21.98 15.46 9.11 15.38 6.88 14.91 1.41 14.83 0 14.81 .14 10.45 1.3 10.63 9.16 11.81 21.55 12.03 26.63 9.81 30.71 12.89 43.38 4.3 44.96 6.8 45.89 6.66 53.04 .21 57.2 0 64.29 11.02 75.67 11.17 80.82 10.74 84.34 10.69 84.34 10.69"/><polygon class="cls-1" points="83.65 32.65 80.16 32.27 62.09 33.7 57.67 26.2 51.14 27.21 46.22 20.94 43.81 21.27 35.94 27.63 29.03 32.44 23.51 28.56 17.83 33.32 1.59 33.32 .69 31.64 .56 29.7 0 27.93 1.62 28.02 6.5 28.31 16.19 28.56 25.37 23 29.24 28.18 34.17 23.97 41.88 16.09 46.3 16.39 52.11 23.68 60.62 23.25 66.73 29.02 75.91 28.39 83.58 28.27 83.58 29.11 83.65 32.65"/></g></svg>