<?xml version="1.0" encoding="UTF-8"?><svg id="Ebene_2" xmlns="http://www.w3.org/2000/svg" viewBox="0 0 143.9 28.31"><defs><style>.cls-1{fill:none;}.cls-2{fill:#fcffff;}.cls-3{fill:#29aa58;}</style></defs><g id="Ebene_2-2"><polygon class="cls-3" points="40.46 11.13 40.43 12.05 40.41 12.32 38.8 12.35 36.59 12.74 29.15 13.13 26.1 8.89 21.96 12.04 20.82 11.36 18.1 12.91 15.01 14.43 14.02 13.52 12.49 12.78 10.55 13.42 4.37 13.38 3.3 13.16 .67 13.12 0 13.11 .07 11.02 .62 11.1 4.4 11.67 10.34 11.77 12.77 10.71 14.73 12.18 20.81 8.06 21.56 9.27 22.01 9.2 25.44 6.11 27.44 6 30.84 11.29 36.3 11.36 38.77 11.15 40.46 11.13 40.46 11.13"/><polygon class="cls-3" points="40.13 21.66 38.45 21.48 29.79 22.17 27.66 18.57 24.53 19.06 22.17 16.05 21.02 16.21 17.24 19.26 13.93 21.56 11.28 19.7 8.55 21.99 .76 21.99 .33 21.18 .27 20.25 0 19.4 .78 19.45 3.12 19.58 7.76 19.7 12.17 17.04 14.03 19.52 16.39 17.5 20.09 13.72 22.21 13.86 25 17.36 29.08 17.16 32.01 19.93 36.41 19.62 40.09 19.56 40.09 19.97 40.13 21.66"/><path class="cls-2" d="m49.71,11.42c.6-1.09,1.44-1.93,2.51-2.54,1.07-.61,2.29-.91,3.65-.91,1.67,0,3.09.44,4.28,1.32,1.19.88,1.98,2.08,2.38,3.6h-3.76c-.28-.59-.68-1.03-1.19-1.34-.51-.31-1.1-.46-1.75-.46-1.05,0-1.91.37-2.56,1.1-.65.73-.98,1.71-.98,2.94s.33,2.21.98,2.94c.65.73,1.51,1.1,2.56,1.1.65,0,1.24-.15,1.75-.46.51-.31.91-.75,1.19-1.34h3.76c-.4,1.52-1.19,2.72-2.38,3.59-1.19.87-2.61,1.31-4.28,1.31-1.36,0-2.58-.3-3.65-.91-1.07-.61-1.91-1.45-2.51-2.53-.6-1.08-.9-2.31-.9-3.7s.3-2.62.9-3.71Z"/><path class="cls-2" d="m67.64,21.39c-1.1-.61-1.97-1.47-2.62-2.57-.65-1.1-.97-2.34-.97-3.71s.32-2.61.97-3.7c.65-1.09,1.52-1.95,2.62-2.56,1.1-.61,2.31-.92,3.63-.92s2.53.31,3.63.92c1.1.61,1.97,1.47,2.6,2.56.63,1.09.95,2.33.95,3.7s-.32,2.61-.96,3.71c-.64,1.1-1.51,1.96-2.6,2.57-1.09.61-2.3.92-3.62.92s-2.53-.31-3.63-.92Zm6.32-3.32c.67-.75,1.01-1.73,1.01-2.96s-.34-2.23-1.01-2.97c-.67-.74-1.57-1.11-2.69-1.11s-2.04.37-2.71,1.1c-.67.73-1.01,1.73-1.01,2.98s.34,2.23,1.01,2.97c.67.74,1.58,1.11,2.71,1.11s2.02-.37,2.69-1.12Z"/><path class="cls-2" d="m92.92,22.17h-3.42l-5.72-8.66v8.66h-3.42v-14.05h3.42l5.72,8.7v-8.7h3.42v14.05Z"/><path class="cls-2" d="m105.51,8.13v2.74h-3.72v11.3h-3.42v-11.3h-3.72v-2.74h10.86Z"/><path class="cls-2" d="m114.39,22.17l-2.92-5.3h-.82v5.3h-3.42v-14.05h5.74c1.11,0,2.05.19,2.83.58.78.39,1.36.92,1.75,1.59.39.67.58,1.42.58,2.25,0,.93-.26,1.77-.79,2.5-.53.73-1.3,1.25-2.33,1.56l3.24,5.56h-3.86Zm-3.74-7.72h2.12c.63,0,1.1-.15,1.41-.46.31-.31.47-.74.47-1.3s-.16-.95-.47-1.26c-.31-.31-.78-.46-1.41-.46h-2.12v3.48Z"/><path class="cls-2" d="m123.29,21.39c-1.1-.61-1.97-1.47-2.62-2.57-.65-1.1-.97-2.34-.97-3.71s.32-2.61.97-3.7c.65-1.09,1.52-1.95,2.62-2.56,1.1-.61,2.31-.92,3.63-.92s2.53.31,3.63.92c1.1.61,1.97,1.47,2.6,2.56.63,1.09.95,2.33.95,3.7s-.32,2.61-.96,3.71c-.64,1.1-1.51,1.96-2.6,2.57-1.09.61-2.3.92-3.62.92s-2.53-.31-3.63-.92Zm6.32-3.32c.67-.75,1.01-1.73,1.01-2.96s-.34-2.23-1.01-2.97c-.67-.74-1.57-1.11-2.69-1.11s-2.04.37-2.71,1.1c-.67.73-1.01,1.73-1.01,2.98s.34,2.23,1.01,2.97c.67.74,1.58,1.11,2.71,1.11s2.02-.37,2.69-1.12Z"/><path class="cls-2" d="m139.42,19.53h4.48v2.64h-7.9v-14.05h3.42v11.4Z"/><rect class="cls-1" width="143.9" height="28.31"/></g></svg>