<svg xmlns="http://www.w3.org/2000/svg" width="453.827" height="416.877" viewBox="0 0 453.827 416.877">
  <path id="Vereinigungsmenge_12_-_Kontur" data-name="Vereinigungsmenge 12 - Kontur" d="M-4468.742,391.46a34.929,34.929,0,0,0,29.134-15.532,35.094,35.094,0,0,0-9.723-48.673,34.659,34.659,0,0,0-26.274-5.268l3.579,18.352c3.782-.755,7.762-.1,12.1,2.8,6.807,4.54,8.547,13.683,3.35,21.476-5.132,7.694-14.241,9.6-21.048,5.059-4.736-3.159-6.971-7.072-7.462-11.249l-18.319,3.745a35.261,35.261,0,0,0,15.188,23.385,34.992,34.992,0,0,0,19.474,5.907m-46.057-50.893a34.449,34.449,0,0,0,18.044-5.12,35.018,35.018,0,0,0,11.309-48.071,35.02,35.02,0,0,0-47.955-11.8,34.791,34.791,0,0,0-11.309,48.072,35.09,35.09,0,0,0,29.91,16.918m.96-50.466h0c5.044,0,9.369,2.764,12.109,7.241,4.271,6.978,3.023,15.388-5.673,20.711-9,5.509-16.755,2.608-21.026-4.369s-3.389-15.3,5.611-20.813a17.211,17.211,0,0,1,8.978-2.77m-72.458-22.39,83.1-16.148-3.844-19.787-83.106,16.148,3.846,19.787m47.817-45.7a35.108,35.108,0,0,0,34.5-30.126,35.02,35.02,0,0,0-29.37-39.7,34.793,34.793,0,0,0-39.4,29.773,34.793,34.793,0,0,0,29.37,39.7,34.3,34.3,0,0,0,4.9.353m-.956-50a22.317,22.317,0,0,1,3.185.238c10.092,1.458,14.541,8.809,13.373,16.906s-7.507,13.773-17.593,12.316c-10.445-1.508-14.559-8.692-13.39-16.789,1.045-7.235,5.941-12.672,14.424-12.671m44.652-18.448,10.907-17.232-39.777-25.174,10.336-16.332-16.031-10.145-21.242,33.565,55.807,35.318m258.337-.677,34.178-26.745-9.938-12.7,26.79-2.9-13.519-17.275-26.5,3.27-2.12-2.708,32.776-25.649-12.568-16.061-66.954,52.394,12.569,16.062,19.237-15.054,12.788,16.342-19.237,15.053,12.5,15.969m-236.334-36.948,16.541-10.886-5.215-7.923.5-.326c9.876,4.006,17.979,1.653,25.408-3.236,14.361-9.452,16.684-29.434,6.059-45.578-10.689-16.244-29.959-22.015-44.322-12.563-8.418,5.541-12.912,14.46-12.136,22.323l-.5.327L-4502.286,34l-17.036,11.212,46.542,70.72m12.5-64.042h0c4.859,0,9.313,2.927,12.667,8.022,5.084,7.726,4.51,15.911-3.314,21.06-7.727,5.085-15.867,2.636-20.952-5.089-5.149-7.825-4.179-16.272,3.547-21.356a14.61,14.61,0,0,1,8.052-2.636m165.595,39.468A34.847,34.847,0,0,0-4262.9,71.081a34.793,34.793,0,0,0-17.6-46.143,34.791,34.791,0,0,0-46.32,17.125,35.021,35.021,0,0,0,17.6,46.143,35.071,35.071,0,0,0,14.532,3.153m-.4-50.581h0a16.269,16.269,0,0,1,6.7,1.542c7.45,3.382,11.388,10.77,7.026,20.378-4.217,9.285-12.516,11.507-19.966,8.125s-11.132-11.044-6.918-20.329c3.064-6.747,7.941-9.717,13.154-9.717m-82.959,35.294c.752,0,1.512-.024,2.272-.073a35.021,35.021,0,0,0,32.81-36.912,34.8,34.8,0,0,0-37.244-32.431,34.791,34.791,0,0,0-32.808,36.912,35,35,0,0,0,34.97,32.5m.278-50.4c7.626,0,13.929,4.71,14.569,14.712.65,10.177-5.629,16.045-13.793,16.567s-15.021-4.505-15.672-14.682c-.673-10.531,5.51-16.035,13.675-16.557q.616-.039,1.221-.039m-90.966,381.791h0a50.936,50.936,0,0,1-28.352-8.6,51.505,51.505,0,0,1-22.079-33.986l-1.486-8.644a50.831,50.831,0,0,1-37.7-24.233,51.029,51.029,0,0,1-6.289-38.378,50.512,50.512,0,0,1,6.132-15.012l-40.437,7.858-9.951-51.2,39.708-7.716a51.194,51.194,0,0,1-19.4-47.889,50.651,50.651,0,0,1,38.111-42.417l-22.188-14.042,38.354-60.605,12.472,7.893-19.644-29.848,43.767-28.8,9.555,14.518a45.46,45.46,0,0,1,5.551-4.3,43.53,43.53,0,0,1,24-7.19,49.051,49.051,0,0,1,31.6,11.989A50.254,50.254,0,0,1-4416.243,7.63a51.028,51.028,0,0,1,35.007-16.942,51.157,51.157,0,0,1,49.971,30.091,50.837,50.837,0,0,1,36.057-15.046,51.251,51.251,0,0,1,21.325,4.636,51.17,51.17,0,0,1,29.934,50.075l39.345-30.789,32.288,41.262-14.753,11.546,32,40.887-26.79,2.9,2.057,2.629-59.38,46.467-25.282-32.31h0l-27.956-35.724q-1.128.05-2.264.05h0a50.815,50.815,0,0,1-21.146-4.583A51.1,51.1,0,0,1-4341.544,76.8a50.889,50.889,0,0,1-33.215,15.168c-1.1.07-2.2.105-3.292.105h0a51.021,51.021,0,0,1-30.568-10.137,43.594,43.594,0,0,1-18.135,24.993,49.926,49.926,0,0,1-12.436,6.054l-25.322,16.665,2.713,1.717-27.308,43.145a51.129,51.129,0,0,1,.959,19.659,50.836,50.836,0,0,1-6.759,18.951l.525-.1,9.947,51.2-.917.178a51,51,0,0,1,13.552,14.628,50.9,50.9,0,0,1,7.547,26.48,51.005,51.005,0,0,1,23.8,8.441,51.156,51.156,0,0,1,14.155,70.863,50.9,50.9,0,0,1-42.443,22.653Zm-32.836-301.27,5.536,3.5-3.952-6.005Z" transform="translate(4608.901 9.417)" fill="#fff"/>
</svg>
