<?xml version="1.0" encoding="UTF-8"?><svg id="Ebene_1" xmlns="http://www.w3.org/2000/svg" viewBox="0 0 453.83 416.88"><defs><style>.cls-1{fill:none;}.cls-2{fill:red;}.cls-3{fill: transparent;}</style></defs><polygon class="cls-1" points="107.32 115.61 112.86 119.11 108.91 113.11 107.32 115.61"/><path class="cls-3" d="M265.93,48.51c-1.24-19.41-17.96-33.66-37.24-32.43-19.29,1.23-34.05,17.51-32.81,36.91,1.17,18.3,16.66,32.51,34.97,32.5,.75,0,1.51-.02,2.27-.07,19.29-1.23,34.03-17.86,32.81-36.91Zm-49.7,3.18c-.67-10.53,5.51-16.04,13.67-16.56,.41-.03,.82-.04,1.22-.04,7.63,0,13.93,4.71,14.57,14.71,.65,10.18-5.63,16.04-13.79,16.57-8.16,.52-15.02-4.51-15.67-14.68Z"/><path class="cls-3" d="M159.57,336.67c-8.09-5.39-17.39-7.04-26.27-5.27l3.58,18.35c3.78-.76,7.76-.1,12.1,2.8,6.81,4.54,8.55,13.68,3.35,21.48-5.13,7.69-14.24,9.6-21.05,5.06-4.74-3.16-6.97-7.07-7.46-11.25l-18.32,3.75c1.58,9.18,6.8,17.79,15.19,23.39,5.99,3.99,12.77,5.91,19.47,5.91,11.31,0,22.4-5.44,29.13-15.53,10.79-16.18,6.36-37.95-9.72-48.67Z"/><path class="cls-3" d="M346,80.5c8.04-17.71,0-38.15-17.6-46.14-17.6-7.99-38.28-.58-46.32,17.13-7.89,17.38,0,38.15,17.6,46.14,4.72,2.14,9.66,3.15,14.53,3.15,13.3,0,26.01-7.55,31.79-20.28Zm-18.46-8.38c-4.22,9.29-12.52,11.51-19.97,8.12-7.45-3.38-11.13-11.04-6.92-20.33,3.06-6.75,7.94-9.72,13.15-9.72h0c2.21,0,4.48,.53,6.7,1.54,7.45,3.38,11.39,10.77,7.03,20.38Z"/><polygon class="cls-3" points="383.47 105.95 381.35 103.24 414.12 77.59 401.56 61.53 334.6 113.93 347.17 129.99 366.41 114.94 379.2 131.28 359.96 146.33 372.46 162.3 406.63 135.55 396.7 122.85 423.49 119.96 409.97 102.68 383.47 105.95"/><path class="cls-3" d="M179.41,57.4c-10.69-16.24-29.96-22.02-44.32-12.56-8.42,5.54-12.91,14.46-12.14,22.32l-.5,.33-15.84-24.07-17.04,11.21,46.54,70.72,16.54-10.89-5.21-7.92,.5-.33c9.88,4.01,17.98,1.65,25.41-3.24,14.36-9.45,16.68-29.43,6.06-45.58Zm-21.44,32.99c-7.73,5.08-15.87,2.64-20.95-5.09-5.15-7.83-4.18-16.27,3.55-21.36,2.73-1.8,5.45-2.64,8.05-2.64h0c4.86,0,9.31,2.93,12.67,8.02,5.08,7.73,4.51,15.91-3.31,21.06Z"/><polygon class="cls-3" points="85.25 120.57 95.58 104.24 79.55 94.09 58.31 127.66 114.12 162.98 125.02 145.74 85.25 120.57"/><rect class="cls-3" x="19.9" y="249.08" width="84.66" height="20.16" transform="translate(-48.29 16.63) rotate(-11)"/><path class="cls-3" d="M75.5,285c-16.59,10.15-21.4,31.59-11.31,48.07,6.64,10.84,18.11,16.92,29.91,16.92,6.14,0,12.37-1.65,18.04-5.12,16.28-9.97,21.4-31.59,11.31-48.07-10.09-16.49-31.67-21.76-47.95-11.8Zm26,42.48c-9,5.51-16.76,2.61-21.03-4.37-4.27-6.98-3.39-15.3,5.61-20.81,3.12-1.91,6.16-2.77,8.98-2.77h0c5.04,0,9.37,2.76,12.11,7.24,4.27,6.98,3.02,15.39-5.67,20.71Z"/><path class="cls-3" d="M65.52,231.07c1.65,.24,3.28,.35,4.9,.35,16.97,0,31.97-12.66,34.5-30.13,2.76-19.13-10.48-36.97-29.37-39.7-19.25-2.78-36.64,10.64-39.4,29.77-2.76,19.13,10.12,36.92,29.37,39.7Zm-10.48-36.97c1.04-7.24,5.94-12.67,14.42-12.67,1.01,0,2.07,.08,3.19,.24,10.09,1.46,14.54,8.81,13.37,16.91-1.17,8.1-7.51,13.77-17.59,12.32-10.45-1.51-14.56-8.69-13.39-16.79Z"/><path class="cls-2" d="M453.83,132.77l-32-40.89,14.75-11.55-32.29-41.26-39.35,30.79c1.45-20.62-9.92-40.99-29.93-50.08-6.78-3.08-13.95-4.64-21.32-4.64-13.76,0-26.69,5.6-36.06,15.05C269.24,11.41,249.7-1.3,227.67,.11c-13.58,.87-26.01,6.89-35.01,16.94-5.04,5.64-8.68,12.18-10.77,19.22-9.07-7.67-20.17-11.99-31.6-11.99-8.55,0-16.85,2.49-24,7.19-1.98,1.3-3.83,2.75-5.55,4.3l-9.55-14.52-43.77,28.8,19.64,29.85-12.47-7.89-38.35,60.61,22.19,14.04c-19.78,4.79-35.04,21.17-38.11,42.42-2.74,18.96,5.28,37.01,19.4,47.89L0,244.69l9.95,51.2,40.44-7.86c-2.81,4.58-4.88,9.63-6.13,15.01-3.05,13.14-.81,26.77,6.29,38.38,8.37,13.68,22.18,22.46,37.7,24.23l1.49,8.64c2.38,13.82,10.42,26.21,22.08,33.99,8.43,5.62,18.24,8.6,28.35,8.6,17.12,0,32.98-8.47,42.44-22.65,15.63-23.44,9.28-55.23-14.16-70.86-7.21-4.81-15.36-7.69-23.8-8.44-.03-9.27-2.59-18.38-7.55-26.48-3.54-5.78-8.18-10.73-13.55-14.63l.92-.18-9.95-51.2-.53,.1c3.41-5.68,5.77-12.08,6.76-18.95,.96-6.66,.62-13.31-.96-19.66l27.31-43.15-2.71-1.72,25.32-16.67c4.16-1.31,8.28-3.32,12.44-6.05,9.21-6.06,15.34-14.95,18.13-24.99,8.55,6.37,19.15,10.14,30.57,10.14,1.09,0,2.19-.03,3.29-.11,12.67-.81,24.37-6.17,33.22-15.17,4.9,11.11,13.77,20.56,25.71,25.98,6.7,3.04,13.82,4.58,21.15,4.58,.76,0,1.51-.02,2.26-.05l27.96,35.72h0s25.28,32.31,25.28,32.31l59.38-46.47-2.06-2.63,26.79-2.9Zm-57.13-9.91l9.94,12.7-34.18,26.75-12.5-15.97,19.24-15.05-12.79-16.34-19.24,15.05-12.57-16.06,66.95-52.39,12.57,16.06-32.78,25.65,2.12,2.71,26.5-3.27,13.52,17.28-26.79,2.9Zm-97.02-25.23c-17.6-7.99-25.49-28.76-17.6-46.14,8.04-17.71,28.72-25.12,46.32-17.13,17.6,7.99,25.63,28.44,17.6,46.14-5.78,12.72-18.49,20.28-31.79,20.28-4.87,0-9.81-1.01-14.53-3.15Zm-103.8-44.64c-1.24-19.41,13.52-35.68,32.81-36.91,19.28-1.23,36,13.03,37.24,32.43,1.22,19.05-13.52,35.68-32.81,36.91-.76,.05-1.52,.07-2.27,.07-18.31,0-33.8-14.2-34.97-32.5Zm-47.94,53.23l-.5,.33,5.21,7.92-16.54,10.89L89.58,54.63l17.04-11.21,15.84,24.07,.5-.33c-.78-7.86,3.72-16.78,12.14-22.32,14.36-9.45,33.63-3.68,44.32,12.56,10.62,16.14,8.3,36.13-6.06,45.58-7.43,4.89-15.53,7.24-25.41,3.24Zm-7.78,294.66c-6.71,0-13.49-1.91-19.47-5.91-8.38-5.59-13.61-14.21-15.19-23.39l18.32-3.75c.49,4.18,2.73,8.09,7.46,11.25,6.81,4.54,15.92,2.63,21.05-5.06,5.2-7.79,3.46-16.94-3.35-21.48-4.34-2.9-8.32-3.55-12.1-2.8l-3.58-18.35c8.88-1.77,18.19-.13,26.27,5.27,16.08,10.72,20.51,32.5,9.72,48.67-6.73,10.09-17.83,15.53-29.13,15.53Zm-28.01-56.01c-5.68,3.47-11.9,5.12-18.04,5.12-11.8,0-23.27-6.07-29.91-16.92-10.09-16.48-5.28-37.92,11.31-48.07,16.28-9.97,37.86-4.69,47.95,11.8,10.09,16.48,4.97,38.11-11.31,48.07ZM18.76,257.34l83.11-16.15,3.84,19.79-83.1,16.15-3.85-19.79Zm17.39-65.97c2.76-19.13,20.16-32.55,39.4-29.77,18.89,2.73,32.13,20.57,29.37,39.7-2.52,17.46-17.53,30.13-34.5,30.13-1.62,0-3.26-.12-4.9-.35-19.25-2.78-32.13-20.57-29.37-39.7Zm22.16-63.71l21.24-33.57,16.03,10.15-10.34,16.33,39.78,25.17-10.91,17.23-55.81-35.32Zm49.01-12.05l1.58-2.5,3.95,6.01-5.54-3.5Z"/><path class="cls-2" d="M245.7,49.8c-.64-10-6.94-14.71-14.57-14.71-.4,0-.81,.01-1.22,.04-8.17,.52-14.35,6.03-13.67,16.56,.65,10.18,7.51,15.2,15.67,14.68,8.16-.52,14.44-6.39,13.79-16.57Z"/><path class="cls-2" d="M68.43,210.89c10.09,1.46,16.42-4.22,17.59-12.32,1.17-8.1-3.28-15.45-13.37-16.91-1.11-.16-2.17-.24-3.19-.24-8.48,0-13.38,5.44-14.42,12.67-1.17,8.1,2.94,15.28,13.39,16.79Z"/><path class="cls-2" d="M148.62,61.31h0c-2.6,0-5.32,.84-8.05,2.64-7.73,5.08-8.7,13.53-3.55,21.36,5.08,7.73,13.23,10.17,20.95,5.09,7.82-5.15,8.4-13.33,3.31-21.06-3.35-5.09-7.81-8.02-12.67-8.02Z"/><path class="cls-2" d="M320.51,51.74c-2.22-1.01-4.49-1.54-6.7-1.54h0c-5.21,0-10.09,2.97-13.15,9.72-4.21,9.28-.53,16.95,6.92,20.33,7.45,3.38,15.75,1.16,19.97-8.12,4.36-9.61,.42-17-7.03-20.38Z"/><path class="cls-2" d="M95.06,299.52h0c-2.82,0-5.86,.86-8.98,2.77-9,5.51-9.88,13.83-5.61,20.81,4.27,6.98,12.02,9.88,21.03,4.37,8.7-5.32,9.94-13.73,5.67-20.71-2.74-4.48-7.06-7.24-12.11-7.24Z"/></svg>
