<svg xmlns="http://www.w3.org/2000/svg" viewBox="0 0 674.05 679.56"><defs><style>.cls-1{fill:#205479;}</style></defs><g id="Ebene_2" data-name="Ebene 2"><g id="Ebene_1-2" data-name="Ebene 1"><path class="cls-1" d="M584.85,283.27c8.6,2.72,16.39,7.7,23.51,13.18q1.68,1.32,3.54,2.75a37.64,37.64,0,1,0-4.59-52.38c-1,1.14-2,2.27-3,3.32-6,6.61-12.86,12.89-20.84,17.06-3.17,1.65-12.83,3.47-21.11,4.74a239.1,239.1,0,0,0-40.55-77c4.55-3.13,12.48-8.23,15.27-9,5.48-1.4,11.24-1.32,16.82-.77l2.78.28A23.51,23.51,0,1,0,537,159.29c-.18.94-.34,1.87-.51,2.74-1,5.51-2.55,11.09-5.4,15.94-1.48,2.53-8.72,8.81-13,12.29A241,241,0,0,0,450.8,134.1c4.12-5.37,8.35-10.46,10.66-12.06,7.41-5.15,16.12-8.29,24.8-10.57l4.33-1.12A37.65,37.65,0,1,0,446.32,82c.26,1.52.54,3,.79,4.41,1.54,8.83,2.35,18.07.77,26.93-.5,2.89-3.59,9.28-6.91,15.53a237.87,237.87,0,0,0-73.83-23.12c.95-5.56,2.45-12.9,3.69-15.12,2.8-5,6.9-9.23,11.22-13l2.16-1.85A24,24,0,1,0,351,72c.57.8,1.16,1.56,1.68,2.3,3.35,4.62,6.41,9.67,8,15.18.7,2.44.48,9.87.15,15.49a242.46,242.46,0,0,0-27.5-1.62,239.76,239.76,0,0,0-64,8.72c-1.87-8.77-4.18-21.56-3.61-25.76,1.2-9,4.76-17.49,8.94-25.43.67-1.26,1.38-2.58,2.09-4a37.64,37.64,0,1,0-50.8,13.54c1.3.83,2.59,1.62,3.79,2.39,7.56,4.81,14.91,10.45,20.39,17.6,2.61,3.39,7,15.86,9.76,24.41a239.45,239.45,0,0,0-85.27,48.63c-3.35-3.71-8.78-10.08-9.75-12.47a43.91,43.91,0,0,1-2.71-14.93c0-.81,0-1.65-.07-2.52A21.19,21.19,0,1,0,125.76,148,21,21,0,0,0,141,154.29l2.51.13a44.19,44.19,0,0,1,14.89,2.91c2.34,1,8.46,6.35,12.15,9.77a241,241,0,0,0-36.82,43.13c-2.78-2.16-6.09-4.92-6.93-6.19a31.88,31.88,0,0,1-4-10.32c-.14-.57-.27-1.17-.41-1.79a15.46,15.46,0,1,0-12.19,17.81l1.82-.26a32.4,32.4,0,0,1,11.07,0c1.52.31,5.35,2.46,8.39,4.28a239.26,239.26,0,0,0-21,41c-7.92-2.49-17-5.68-19.84-7.77-7.29-5.34-13.08-12.55-18.07-20-.78-1.19-1.6-2.45-2.47-3.74a37.63,37.63,0,1,0-12.41,51.1c1.35-.75,2.66-1.5,3.91-2.19,7.85-4.33,16.31-8.1,25.21-9.5,3.33-.52,12.09.67,20,2a239.16,239.16,0,0,0-13.2,78.46c0,6.89.35,13.7.92,20.45-4.66.65-14.3,1.66-17,1.05a43.63,43.63,0,0,1-13.81-6.29c-.68-.44-1.38-.91-2.12-1.37a21.19,21.19,0,1,0,5,29.15l1.53-2a44.26,44.26,0,0,1,10.89-10.57c2.31-1.46,11.25-3.63,16-4.62a238.17,238.17,0,0,0,19,71c-8.85,3.54-22.26,8.41-26.83,8.56-9.57.35-19.14-1.85-28.2-4.81-1.44-.47-2.95-1-4.52-1.49a40,40,0,1,0,23.22,50.77c.64-1.52,1.24-3,1.83-4.4,3.71-8.76,8.29-17.48,14.79-24.48,3.12-3.37,15.64-10.35,24.11-14.72a240.38,240.38,0,0,0,36.17,53.48c-5.26,4.3-11.46,9-14.14,10.05-7,2.62-14.52,3.32-21.91,3.41l-3.68,0a30.94,30.94,0,1,0,29.55,31.55c.1-1.27.16-2.51.26-3.67.56-7.36,1.78-14.88,4.81-21.65,1.18-2.61,6.31-8.48,10.95-13.44a241,241,0,0,0,35.94,30.76c-3.16,3.92-8.39,10-10.54,11.34a43.8,43.8,0,0,1-14.3,5.07l-2.48.48a21.19,21.19,0,1,0,23.87,17.48c-.08-.86-.19-1.7-.28-2.49a44.4,44.4,0,0,1,.5-15.17c.61-2.49,4.95-9.44,7.73-13.61A239.38,239.38,0,0,0,249,567.62c-3.14,8.23-7.57,18.84-10.12,21.85-5.81,6.9-13.4,12.18-21.2,16.64-1.23.71-2.55,1.43-3.89,2.22a37.64,37.64,0,1,0,50.12,15.88c-.65-1.4-1.32-2.76-1.92-4.06-3.77-8.12-7-16.83-7.73-25.79-.35-3.89,2.09-14.91,4.26-23.41a239.66,239.66,0,0,0,74.81,12c3.68,0,7.33-.12,11-.28-.27,5.25-1.19,15.85-2.42,18.69A48.2,48.2,0,0,1,332.07,615c-.61.65-1.28,1.32-1.93,2a23.51,23.51,0,1,0,32.82.67c-.64-.73-1.28-1.42-1.85-2.09-3.71-4.2-7.16-8.85-9.23-14.08-1.17-3-1.64-14.24-1.69-19.29a238.4,238.4,0,0,0,75.54-17.83c1.84,8.61,3.87,19.85,3.37,23.74-1.13,9-4.63,17.51-8.75,25.49-.65,1.27-1.36,2.59-2.07,4A37.65,37.65,0,1,0,469,603.72c-1.31-.82-2.6-1.6-3.81-2.36-7.59-4.77-15-10.35-20.52-17.45-2.56-3.28-6.88-15.12-9.69-23.61a240.59,240.59,0,0,0,58.33-38.62c3.21,4.53,8.33,12.21,9.1,15a48.44,48.44,0,0,1,1.05,16.8c-.07.89-.17,1.83-.23,2.78a23.5,23.5,0,1,0,25.9-20.16l-2.75-.45c-5.53-.93-11.13-2.37-16-5.13-2.58-1.46-9.09-8.73-12.61-12.91a241,241,0,0,0,43.93-55.83c7.67,4.62,18.39,11.53,21,14.77,5.72,7,9.53,15.41,12.49,23.88.47,1.35,1,2.77,1.47,4.24a37.64,37.64,0,1,0,24.77-46.38c-1.49.38-3,.78-4.33,1.14-8.68,2.23-17.83,3.77-26.79,2.9-4.15-.4-15.81-5.44-23.91-9.25a238.15,238.15,0,0,0,23.9-73.18c5.46.84,14.71,2.54,17.25,3.92a48.4,48.4,0,0,1,12.78,11c.59.67,1.2,1.4,1.83,2.11a23.51,23.51,0,1,0,3.6-32.63c-.78.57-1.53,1.14-2.25,1.66a49.13,49.13,0,0,1-14.85,7.92c-2.76.81-12,.46-17.59.09a238.63,238.63,0,0,0-5.79-91.65C573.15,282.1,581.71,282.27,584.85,283.27Z"/></g></g></svg>