<?xml version="1.0" encoding="UTF-8"?>
<svg id="Ebene_2" xmlns="http://www.w3.org/2000/svg" viewBox="0 0 76.26 42.29" width="80px">
  <defs>
    <style>
      .cls-1{fill:#fff;}
      .cls-2{fill:#ce0e2d;}
    </style>
  </defs>
  <g id="Ebene_1-2">
    <g>
      <g>
        <g>
          <rect class="cls-2" x="30.76" y="-3.21" width="23.98" height="59.01" rx="11.99" ry="11.99" transform="translate(69.04 -16.45) rotate(90)"/>
          <path class="cls-1" d="M60.26,14.31c6.62,0,11.99,5.37,11.99,11.99h0c0,6.62-5.37,11.99-11.99,11.99H25.23c-6.62,0-11.99-5.37-11.99-11.99h0c0-6.62,5.37-11.99,11.99-11.99H60.26m0-4.01H25.23c-8.82,0-16,7.18-16,16s7.18,16,16,16H60.26c8.82,0,16-7.18,16-16s-7.18-16-16-16h0Z"/>
        </g>
        <g>
          <path class="cls-1" d="M23.97,30.66h2.62v.37h4.13v-.29c-.32,0-.63-.1-.9-.19l-3.4-.94c-1.52-.43-2.54-2.06-2.54-3.76,0-2.24,1.79-4.03,4.19-4.03h4.7v1.79h-.6c-.24,0-.35-.03-.56-.1h-.08c.48,.67,.75,1.46,.75,2.33,0,1.35-.75,2.54-1.59,2.95v.1c.43-.03,.76-.02,1.06,.06l.97,.27v4h-8.74v-2.57Zm5.59-4.81c0-.89-.6-1.48-1.49-1.48s-1.46,.59-1.46,1.48,.57,1.48,1.46,1.48,1.49-.59,1.49-1.48Z"/>
          <path class="cls-1" d="M34.49,21.82h5.32v2.54h-2.59v6.3h-2.73v-8.84Z"/>
          <path class="cls-1" d="M40.28,26.25c0-2.6,1.75-4.67,4.19-4.67,1.36,0,2.44,.67,2.94,1.6h.08v-1.36h2.65v8.84h-2.65v-1.27h-.08c-.81,1.17-1.73,1.51-2.94,1.51-2.44,0-4.19-2.06-4.19-4.65Zm6.81,0c0-1.25-.73-2.13-1.98-2.13s-1.92,.87-1.92,2.13,.68,2.11,1.92,2.11,1.98-.87,1.98-2.11Z"/>
          <path class="cls-1" d="M54.91,29.39h-.08v1.27h-2.65v-11.33h2.73v3.86h.08c.49-.94,1.65-1.6,3-1.6,2.3,0,4.03,2.06,4.03,4.67s-1.73,4.65-4.03,4.65c-1.19,0-2.27-.33-3.08-1.51Zm4.21-3.14c0-1.25-.67-2.13-1.92-2.13s-1.97,.87-1.97,2.13,.73,2.11,1.97,2.11,1.92-.87,1.92-2.11Z"/>
        </g>
      </g>
      <g>
        <circle class="cls-2" cx="6.64" cy="6.64" r="3.64"/>
        <path class="cls-1" d="M6.64,3c2.01,0,3.64,1.63,3.64,3.64s-1.63,3.64-3.64,3.64-3.64-1.63-3.64-3.64,1.63-3.64,3.64-3.64m0-3C2.98,0,0,2.98,0,6.64s2.98,6.64,6.64,6.64,6.64-2.98,6.64-6.64S10.3,0,6.64,0h0Z"/>
      </g>
    </g>
  </g>
</svg>
