<?xml version="1.0" encoding="utf-8"?>
<!-- Generator: Adobe Illustrator 25.1.0, SVG Export Plug-In . SVG Version: 6.00 Build 0)  -->
<svg version="1.1" id="Ebene_1" xmlns="http://www.w3.org/2000/svg" xmlns:xlink="http://www.w3.org/1999/xlink" x="0px" y="0px"
	 viewBox="0 0 363.8 589.4" style="enable-background:new 0 0 363.8 589.4;" xml:space="preserve">
<style type="text/css">
	.st0{fill:#fff;}
</style>
<g>
	<path class="st0" d="M317.7,0H46.1C20.7,0,0,20.7,0,46.1v497.1c0,25.5,20.7,46.1,46.1,46.1h271.6c25.5,0,46.1-20.7,46.1-46.1V46.1
		C363.8,20.7,343.2,0,317.7,0z M317.1,520.8c0,11.3-9.2,20.4-20.4,20.4H67.2c-11.3,0-20.4-9.2-20.4-20.4V68.6
		c0-11.3,9.2-20.4,20.4-20.4h229.5c11.3,0,20.4,9.2,20.4,20.4V520.8z"/>
	
		<ellipse transform="matrix(0.9951 -9.853791e-02 9.853791e-02 0.9951 -47.0948 20.2952)" class="st0" cx="181.9" cy="486.9" rx="31.5" ry="31.5"/>
</g>
<path class="st0" d="M229.5,98.6h-95.1c-5.5,0-9.9-4.4-9.9-9.9v0c0-5.5,4.4-9.9,9.9-9.9h95.1c5.5,0,9.9,4.4,9.9,9.9v0
	C239.4,94.2,234.9,98.6,229.5,98.6z"/>
</svg>
