<?xml version="1.0" encoding="utf-8"?>
<!-- Generator: Adobe Illustrator 25.1.0, SVG Export Plug-In . SVG Version: 6.00 Build 0)  -->
<svg version="1.1" id="Ebene_1" xmlns="http://www.w3.org/2000/svg" xmlns:xlink="http://www.w3.org/1999/xlink" x="0px" y="0px"
	 viewBox="0 0 635.4 409.8" style="enable-background:new 0 0 635.4 409.8;" xml:space="preserve">
<style type="text/css">
	.st0{fill:#52b788;}
</style>
<path class="st0" d="M560.3,0H75.1C33.7,0,0,33.7,0,75.1v259.6c0,41.4,33.7,75.1,75.1,75.1h485.1c41.4,0,75.1-33.7,75.1-75.1V75.1
	C635.4,33.7,601.7,0,560.3,0z M560.3,46c7.7,0,14.7,3,19.9,7.9l-242.9,150c-12,7.4-27,7.4-39,0L55.3,53.9C60.5,49,67.5,46,75.1,46
	H560.3z M560.3,363.8H75.1c-16.1,0-29.1-13.1-29.1-29.1V83.4l236.4,145.9c10.9,6.7,23.1,10.1,35.3,10.1c12.2,0,24.4-3.4,35.3-10.1
	L589.4,83.4v251.3C589.4,350.7,576.3,363.8,560.3,363.8z"/>
</svg>
