<svg xmlns="http://www.w3.org/2000/svg" viewBox="0 0 511.36 145.02"><defs><style>.cls-1{fill:#f3be8c;}.cls-2{fill:#e98021;}.cls-3{fill:#205479;}</style></defs><g id="Ebene_2" data-name="Ebene 2"><g id="Ebene_1-2" data-name="Ebene 1"><path class="cls-1" d="M11,67.37c-.37,3.21-1.22,6.37-1.16,9.81a12.68,12.68,0,0,0,.24,3.24,11.5,11.5,0,0,0,2.35,5.78l0,0a10,10,0,0,0,1.29,1.31c.46.38.92.74,1.39,1.07a21.34,21.34,0,0,0,9.39,3.79c.57.09,1.15.15,1.74.2s1.06,0,1.59,0h.27c.72,0,1.45,0,2.16-.11l.26,0c.74-.07,1.48-.18,2.21-.3l.42-.07c.72-.13,1.43-.27,2.14-.43l.4-.09L38,91.12c5.79-1.47,11.42-3.59,17.44-4.09,1.07-.09,2.14-.13,3.21-.13q1.26,0,2.52.06l.54.05c.7.06,1.41.15,2.11.25l.72.12a23.91,23.91,0,0,1,2.58.58c.82.23,1.63.49,2.43.77l.11,0c.77.27,1.52.57,2.27.9h0a48.1,48.1,0,0,1,11.27,7,93.14,93.14,0,0,0,10.48,7.46h0l1.44.85c1.05.61,2.11,1.2,3.19,1.75q.67.33,1.35.6l.39.15c.35.13.71.25,1.07.36l.35.1a13.93,13.93,0,0,0,1.4.29l.26,0a9.2,9.2,0,0,0,1.17.08l.22,0,.22,0c.31,0,.62,0,.93-.06l.41-.05a10.18,10.18,0,0,0,1.33-.29c.56-.16,1.11-.3,1.66-.43l.54-.1c.37-.08.74-.15,1.11-.2l.65-.09,1-.11.69,0c.32,0,.64,0,1,0h.53c.82,0,1.63,0,2.45.14l.33,0c.86.11,1.73.25,2.59.44s1.52.29,2.28.39c.25,0,.49,0,.73.06.52,0,1,.08,1.57.09l.29,0c.33,0,.66,0,1,0l.65,0a17,17,0,0,0,2-.29,12.24,12.24,0,0,0,6.61-3.33,9.46,9.46,0,0,0,2.17-4.14,6.74,6.74,0,0,0,.21-1.31c0-.18,0-.35,0-.53a5.53,5.53,0,0,0,0-.71,4.2,4.2,0,0,0-.17-.7c0-.14-.06-.3-.11-.44a5.23,5.23,0,0,0-.38-.79c0-.08-.07-.15-.11-.22a6.23,6.23,0,0,0-.61-.82l-.06-.07a5.69,5.69,0,0,0-3-1.67h0a5.47,5.47,0,0,0-.61-.13c-.23,0-.45-.06-.68-.11a109.14,109.14,0,0,1-14.22-4.28,116,116,0,0,1-15-7.19C97.14,78.48,93,74.35,89,70.14c-2.87-3-5.56-6.19-8.39-9.24-8.58-9.23-18.7-16.6-29-23.79-4.57-3.2-9.1-6.43-13.36-10S30,19.32,26,15.27a72.62,72.62,0,0,0-21.89,28,24.44,24.44,0,0,1,4,6.38A31.18,31.18,0,0,1,11,67.37Z"/><path class="cls-2" d="M46.29,17.59c4,3.33,8.34,6.45,12.49,9.35,10.49,7.35,21.51,15.37,30.93,25.51,1.35,1.44,2.64,2.89,3.89,4.29,1.51,1.71,2.94,3.31,4.4,4.84,3.38,3.55,6.72,6.91,10.28,8.88a106.55,106.55,0,0,0,13.43,6.44,98.21,98.21,0,0,0,12.21,3.7,15.18,15.18,0,0,1,1.65.32,18,18,0,0,1,6.56,2.92A72.5,72.5,0,0,0,36.67,8.39C39.92,11.7,43,14.83,46.29,17.59Z"/><path class="cls-2" d="M124.75,120.54l-.86,0c-.83,0-1.57-.09-2.14-.14-.37,0-.75-.06-1.13-.11-1.17-.14-2.31-.34-3.41-.58-.41-.09-.88-.17-1.43-.24l-.24,0c-.36,0-.73,0-1.16-.06h-.25l-.46,0h-.33l-.48,0-.28,0h-.09l-.49.09-.36.07-.74.19a22.24,22.24,0,0,1-3,.66l-.94.12c-.55.06-1.08.1-1.61.12-.25,0-.56,0-.91,0s-.65,0-.9,0c-.62,0-1.24-.07-1.85-.14-.24,0-.49,0-.72-.09a23.61,23.61,0,0,1-2.75-.57l-.68-.19c-.65-.19-1.31-.41-2-.67l-.63-.25c-.81-.33-1.55-.66-2.25-1-1.17-.59-2.36-1.24-3.8-2.07-.57-.33-1.14-.66-1.7-1a104.62,104.62,0,0,1-11.87-8.45A36,36,0,0,0,67,101.07c-.51-.22-1-.43-1.53-.61l-.24-.09c-.5-.17-1-.33-1.46-.46a14.17,14.17,0,0,0-1.42-.31l-.41-.07c-.42-.06-.84-.11-1.25-.14l-.42,0c-.42,0-.87,0-1.36,0h-.18c-.81,0-1.55,0-2.28.09a55.46,55.46,0,0,0-10.08,2.28c-1.71.49-3.47,1-5.31,1.47q-1.23.31-2.46.6l-.11,0-.36.08c-.89.2-1.79.38-2.66.54l-.57.09c-1.07.18-2.06.32-3,.41l-.45,0c-.94.09-1.88.13-2.8.15h-1c-.76,0-1.47,0-2.17-.09-.89-.07-1.78-.17-2.65-.3A33.7,33.7,0,0,1,8,98.74Q6.89,98,5.85,97.09A22.17,22.17,0,0,1,3.14,94.4L3,94.28,2.83,94A22.94,22.94,0,0,1,0,89.44a72.5,72.5,0,0,0,124.81,31.1Z"/><path class="cls-2" d="M71.88,89.68h0c-.75-.33-1.5-.63-2.27-.9C70.38,89.05,71.13,89.35,71.88,89.68Z"/><polygon class="cls-2" points="71.88 89.68 71.88 89.68 71.88 89.68 71.88 89.68"/><path class="cls-3" d="M185,33.74a19,19,0,0,1,5.89.81A11.26,11.26,0,0,1,195,36.79a8.8,8.8,0,0,1,2.35,3.36,11.51,11.51,0,0,1,.75,4.19,12.31,12.31,0,0,1-.78,4.45,8.88,8.88,0,0,1-2.38,3.47,11.27,11.27,0,0,1-4.06,2.26,18.67,18.67,0,0,1-5.82.81h-3.92V66.17h-7.52V33.74Zm0,15.92a5.5,5.5,0,0,0,4.23-1.41,5.55,5.55,0,0,0,1.29-3.91,5.69,5.69,0,0,0-.34-2,4.12,4.12,0,0,0-1-1.57,4.52,4.52,0,0,0-1.71-1,7.51,7.51,0,0,0-2.46-.36h-3.92V49.66Z"/><path class="cls-3" d="M210.83,42.73a13.29,13.29,0,0,1,4.78.83,10.29,10.29,0,0,1,6.11,6.09,13.45,13.45,0,0,1,.86,4.93,13.71,13.71,0,0,1-.86,5,10.64,10.64,0,0,1-2.4,3.76,10.47,10.47,0,0,1-3.71,2.38,13.07,13.07,0,0,1-4.78.84,13.21,13.21,0,0,1-4.82-.84,10.59,10.59,0,0,1-3.74-2.38,10.44,10.44,0,0,1-2.43-3.76,13.71,13.71,0,0,1-.85-5,13.45,13.45,0,0,1,.85-4.93,10.31,10.31,0,0,1,2.43-3.73A10.55,10.55,0,0,1,206,43.56,13.43,13.43,0,0,1,210.83,42.73Zm0,18.68a3.92,3.92,0,0,0,3.5-1.68,9.28,9.28,0,0,0,1.13-5.11,9.24,9.24,0,0,0-1.13-5.1,3.93,3.93,0,0,0-3.5-1.67,4,4,0,0,0-3.59,1.67,9.24,9.24,0,0,0-1.13,5.1,9.28,9.28,0,0,0,1.13,5.11A4,4,0,0,0,210.83,61.41Z"/><path class="cls-3" d="M247,32.85V66.17h-4.27A1.61,1.61,0,0,1,241,65l-.54-1.76A13.75,13.75,0,0,1,239,64.59a9.67,9.67,0,0,1-1.64,1,8.45,8.45,0,0,1-1.89.66,9.57,9.57,0,0,1-2.2.24,7.12,7.12,0,0,1-3.33-.8,7.69,7.69,0,0,1-2.65-2.32,11.66,11.66,0,0,1-1.75-3.7,18.16,18.16,0,0,1-.64-5,15.47,15.47,0,0,1,.72-4.8,11.74,11.74,0,0,1,2-3.83,9.42,9.42,0,0,1,3.13-2.52,8.88,8.88,0,0,1,4-.92,7.64,7.64,0,0,1,3,.52,8.15,8.15,0,0,1,2.23,1.38V32.85Zm-6.9,16.43a4.36,4.36,0,0,0-1.69-1.22,5.38,5.38,0,0,0-1.91-.34,4.09,4.09,0,0,0-1.76.38,3.46,3.46,0,0,0-1.39,1.21,6.31,6.31,0,0,0-.93,2.17,13.66,13.66,0,0,0-.33,3.23,14.75,14.75,0,0,0,.27,3.07,6.24,6.24,0,0,0,.74,2,2.94,2.94,0,0,0,1.15,1.1,3.3,3.3,0,0,0,1.49.33,6.41,6.41,0,0,0,1.37-.14,4.81,4.81,0,0,0,1.12-.42,4.43,4.43,0,0,0,1-.67,9.17,9.17,0,0,0,.9-1Z"/><path class="cls-3" d="M262.27,42.73a13.29,13.29,0,0,1,4.78.83,10.29,10.29,0,0,1,6.11,6.09,13.45,13.45,0,0,1,.86,4.93,13.71,13.71,0,0,1-.86,5,10.64,10.64,0,0,1-2.4,3.76,10.47,10.47,0,0,1-3.71,2.38,13.07,13.07,0,0,1-4.78.84,13.21,13.21,0,0,1-4.82-.84,10.59,10.59,0,0,1-3.74-2.38,10.44,10.44,0,0,1-2.43-3.76,13.71,13.71,0,0,1-.86-5,13.45,13.45,0,0,1,.86-4.93,10.31,10.31,0,0,1,2.43-3.73,10.55,10.55,0,0,1,3.74-2.36A13.43,13.43,0,0,1,262.27,42.73Zm0,18.68a3.92,3.92,0,0,0,3.5-1.68,9.28,9.28,0,0,0,1.13-5.11,9.24,9.24,0,0,0-1.13-5.1,3.93,3.93,0,0,0-3.5-1.67,4,4,0,0,0-3.59,1.67,9.24,9.24,0,0,0-1.13,5.1,9.28,9.28,0,0,0,1.13,5.11A4,4,0,0,0,262.27,61.41Z"/><path class="cls-3" d="M284.39,32.85V66.17h-6.9V32.85Z"/><path class="cls-3" d="M299.71,42.73a13.29,13.29,0,0,1,4.78.83,10.29,10.29,0,0,1,6.11,6.09,13.45,13.45,0,0,1,.86,4.93,13.71,13.71,0,0,1-.86,5,10.64,10.64,0,0,1-2.4,3.76,10.47,10.47,0,0,1-3.71,2.38,13.07,13.07,0,0,1-4.78.84,13.21,13.21,0,0,1-4.82-.84,10.59,10.59,0,0,1-3.74-2.38,10.44,10.44,0,0,1-2.43-3.76,13.71,13.71,0,0,1-.86-5,13.45,13.45,0,0,1,.86-4.93,10.31,10.31,0,0,1,2.43-3.73,10.55,10.55,0,0,1,3.74-2.36A13.43,13.43,0,0,1,299.71,42.73Zm0,18.68a3.92,3.92,0,0,0,3.5-1.68,9.28,9.28,0,0,0,1.13-5.11,9.24,9.24,0,0,0-1.13-5.1,3.93,3.93,0,0,0-3.5-1.67,4,4,0,0,0-3.59,1.67,9.15,9.15,0,0,0-1.13,5.1,9.19,9.19,0,0,0,1.13,5.11A4,4,0,0,0,299.71,61.41Z"/><path class="cls-3" d="M335.65,43.8v2.52a1.23,1.23,0,0,1-.32.91,2.21,2.21,0,0,1-1.1.51l-1.67.38a8.45,8.45,0,0,1,.21,1,7.37,7.37,0,0,1,.08,1.07,6.64,6.64,0,0,1-.72,3.12,7.1,7.1,0,0,1-2,2.34,9,9,0,0,1-3,1.5,12.43,12.43,0,0,1-3.67.52c-.36,0-.7,0-1.05,0s-.67-.07-1-.13c-.5.32-.75.66-.75,1.05a.85.85,0,0,0,.62.83,5.65,5.65,0,0,0,1.65.36c.68.07,1.45.11,2.32.13s1.76.08,2.66.16a21.05,21.05,0,0,1,2.66.41,7.31,7.31,0,0,1,2.33.94,4.83,4.83,0,0,1,1.64,1.72,5.41,5.41,0,0,1,.63,2.75,6.59,6.59,0,0,1-.76,3,7.91,7.91,0,0,1-2.22,2.65,11.8,11.8,0,0,1-3.61,1.86,15.92,15.92,0,0,1-4.9.7,18.81,18.81,0,0,1-4.68-.51,11,11,0,0,1-3.27-1.35,5.71,5.71,0,0,1-1.93-1.92,4.5,4.5,0,0,1-.62-2.28,3.71,3.71,0,0,1,.89-2.55,6,6,0,0,1,2.49-1.65,3.82,3.82,0,0,1-1.33-1.32,3.87,3.87,0,0,1-.49-2.07,3.56,3.56,0,0,1,.17-1.08,4,4,0,0,1,.57-1.11,5.48,5.48,0,0,1,1-1,5.82,5.82,0,0,1,1.38-.87A7.7,7.7,0,0,1,315,53.85a6.4,6.4,0,0,1-1-3.66,6.6,6.6,0,0,1,.74-3.13,7.22,7.22,0,0,1,2-2.36,9.69,9.69,0,0,1,3-1.49,13,13,0,0,1,3.76-.52,11.7,11.7,0,0,1,5.21,1.11ZM328.84,67a1.23,1.23,0,0,0-.73-1.19,6.14,6.14,0,0,0-1.92-.53,24.91,24.91,0,0,0-2.63-.18c-1,0-1.95-.08-2.91-.17a4.82,4.82,0,0,0-1.06,1,2,2,0,0,0-.41,1.23,1.86,1.86,0,0,0,.21.89,1.69,1.69,0,0,0,.75.69,4.71,4.71,0,0,0,1.43.46,13.15,13.15,0,0,0,2.29.17,13.52,13.52,0,0,0,2.44-.18,5.19,5.19,0,0,0,1.53-.49,1.86,1.86,0,0,0,.79-.75A2,2,0,0,0,328.84,67Zm-5.34-13.6a2.85,2.85,0,0,0,3.25-3.07,3.08,3.08,0,0,0-.77-2.21,4.24,4.24,0,0,0-5,0,3.08,3.08,0,0,0-.77,2.21,3.67,3.67,0,0,0,.19,1.22,2.61,2.61,0,0,0,.59,1,2.73,2.73,0,0,0,1,.64A4,4,0,0,0,323.5,53.42Z"/><path class="cls-3" d="M346.32,36.77a3.5,3.5,0,0,1-.34,1.54,4,4,0,0,1-.91,1.27,4.35,4.35,0,0,1-1.35.87,4.05,4.05,0,0,1-1.63.32,3.78,3.78,0,0,1-1.58-.32,4.28,4.28,0,0,1-1.31-.87,4.1,4.1,0,0,1-.89-1.27,3.79,3.79,0,0,1-.32-1.54,4,4,0,0,1,.32-1.58,4.15,4.15,0,0,1,2.2-2.16,3.94,3.94,0,0,1,1.58-.31,4.22,4.22,0,0,1,1.63.31,4.35,4.35,0,0,1,1.35.87,4.19,4.19,0,0,1,.91,1.29A3.65,3.65,0,0,1,346.32,36.77Zm-.72,6.32V66.17h-6.9V43.09Z"/><path class="cls-3" d="M356.11,55.87a6.48,6.48,0,0,0,1.76,4.19,5.21,5.21,0,0,0,3.67,1.3,6.38,6.38,0,0,0,2.07-.29,9.78,9.78,0,0,0,1.55-.64l1.24-.65a2.65,2.65,0,0,1,1.2-.29,1.43,1.43,0,0,1,1.24.61l2,2.47a10.15,10.15,0,0,1-2.3,2,12,12,0,0,1-2.54,1.2,13.39,13.39,0,0,1-2.6.6,19.89,19.89,0,0,1-2.48.17,13.06,13.06,0,0,1-4.55-.79,10.47,10.47,0,0,1-3.72-2.35,11.19,11.19,0,0,1-2.52-3.87,14.63,14.63,0,0,1-.92-5.39,12.07,12.07,0,0,1,.79-4.38,10.72,10.72,0,0,1,2.27-3.63,10.85,10.85,0,0,1,3.58-2.47,12.67,12.67,0,0,1,8.95-.2,9,9,0,0,1,3.27,2.07,9.28,9.28,0,0,1,2.14,3.32,12.29,12.29,0,0,1,.77,4.47,8.83,8.83,0,0,1-.07,1.27,1.89,1.89,0,0,1-.24.77.89.89,0,0,1-.48.4,2.11,2.11,0,0,1-.77.12Zm8.68-4a6.11,6.11,0,0,0-.21-1.6,3.78,3.78,0,0,0-.69-1.39,3.48,3.48,0,0,0-1.26-1,4.19,4.19,0,0,0-1.89-.38,4.11,4.11,0,0,0-3.07,1.12,5.89,5.89,0,0,0-1.47,3.24Z"/><path class="cls-3" d="M374.41,49.86h12v5.56h-12Z"/><path class="cls-3" d="M403.32,33.74a19,19,0,0,1,5.89.81,11.26,11.26,0,0,1,4.05,2.24,8.8,8.8,0,0,1,2.35,3.36,11.51,11.51,0,0,1,.75,4.19,12.31,12.31,0,0,1-.78,4.45,8.78,8.78,0,0,1-2.38,3.47,11.18,11.18,0,0,1-4.06,2.26,18.67,18.67,0,0,1-5.82.81H399.4V66.17h-7.52V33.74Zm0,15.92a5.5,5.5,0,0,0,4.23-1.41,5.55,5.55,0,0,0,1.29-3.91,5.92,5.92,0,0,0-.33-2,4.15,4.15,0,0,0-1-1.57,4.52,4.52,0,0,0-1.71-1,7.51,7.51,0,0,0-2.46-.36H399.4V49.66Z"/><path class="cls-3" d="M425.56,46.65A9.7,9.7,0,0,1,428,43.71a5.09,5.09,0,0,1,3.19-1.07,4.14,4.14,0,0,1,2.54.74l-.45,5.07a1,1,0,0,1-.36.67,1.24,1.24,0,0,1-.71.18l-.46,0-.6-.06-.64-.06a4.18,4.18,0,0,0-.59,0,3.5,3.5,0,0,0-2.41.8A6.32,6.32,0,0,0,426,52.15v14h-6.9V43.09h4.1a3.4,3.4,0,0,1,.85.09,1.43,1.43,0,0,1,.58.28,1.1,1.1,0,0,1,.36.5,4.77,4.77,0,0,1,.21.76Z"/><path class="cls-3" d="M435.35,46.29A14.06,14.06,0,0,1,440,43.55a16.06,16.06,0,0,1,5.47-.91,10,10,0,0,1,3.77.68,8,8,0,0,1,4.64,4.78,10.25,10.25,0,0,1,.62,3.65V66.17h-3.16a3.38,3.38,0,0,1-1.48-.26,2,2,0,0,1-.83-1.12l-.49-1.27c-.58.49-1.14.92-1.67,1.29a10.26,10.26,0,0,1-1.66,1,8.41,8.41,0,0,1-1.82.58,11.86,11.86,0,0,1-2.15.19,9.52,9.52,0,0,1-2.87-.41,6,6,0,0,1-2.2-1.22,5.37,5.37,0,0,1-1.39-2,7.1,7.1,0,0,1-.49-2.75,5.66,5.66,0,0,1,.63-2.52,6.11,6.11,0,0,1,2.15-2.34,13.57,13.57,0,0,1,4.15-1.77,27.46,27.46,0,0,1,6.56-.8v-1a4.27,4.27,0,0,0-.83-2.93,3.08,3.08,0,0,0-2.37-.9,6.26,6.26,0,0,0-2,.27,7.75,7.75,0,0,0-1.39.6c-.41.22-.8.42-1.19.6a3.27,3.27,0,0,1-1.38.27,2,2,0,0,1-1.2-.36,2.93,2.93,0,0,1-.8-.85Zm12.42,10.49a22.58,22.58,0,0,0-3.4.36,8.32,8.32,0,0,0-2.12.66,2.58,2.58,0,0,0-1.08.91,2.21,2.21,0,0,0-.3,1.12,1.94,1.94,0,0,0,.65,1.66,3.14,3.14,0,0,0,1.89.48,5.52,5.52,0,0,0,2.34-.47,7.13,7.13,0,0,0,2-1.52Z"/><path class="cls-3" d="M481,66.17h-6.63a1.91,1.91,0,0,1-1.19-.35,2.69,2.69,0,0,1-.73-.85l-4.11-7.08a6.55,6.55,0,0,1-.27.71c-.11.23-.22.43-.33.63L464.33,65a4.71,4.71,0,0,1-.73.82,1.56,1.56,0,0,1-1.09.38h-6.15l7.75-11.93-7.43-11.15h6.63a2.29,2.29,0,0,1,1.08.19,1.68,1.68,0,0,1,.61.63l4.12,6.84a6,6,0,0,1,.33-.79c.14-.26.28-.53.45-.79L472.83,44a2.41,2.41,0,0,1,.66-.71,1.55,1.55,0,0,1,.86-.22h6.32l-7.43,10.84Z"/><path class="cls-3" d="M490.89,36.77a3.5,3.5,0,0,1-.34,1.54,4,4,0,0,1-.91,1.27,4.23,4.23,0,0,1-1.35.87,4.05,4.05,0,0,1-1.63.32,3.78,3.78,0,0,1-1.58-.32,4.28,4.28,0,0,1-1.31-.87,4.1,4.1,0,0,1-.89-1.27,3.79,3.79,0,0,1-.32-1.54,4,4,0,0,1,.32-1.58,4.15,4.15,0,0,1,2.2-2.16,3.94,3.94,0,0,1,1.58-.31,4.21,4.21,0,0,1,3.89,2.47A3.65,3.65,0,0,1,490.89,36.77Zm-.72,6.32V66.17h-6.9V43.09Z"/><path class="cls-3" d="M509.67,48.14a1.72,1.72,0,0,1-.56.6,1.51,1.51,0,0,1-.77.18,2.43,2.43,0,0,1-1-.21l-1.06-.46A12.58,12.58,0,0,0,505,47.8a5.73,5.73,0,0,0-1.62-.21,3.41,3.41,0,0,0-2,.5,1.59,1.59,0,0,0-.7,1.39,1.39,1.39,0,0,0,.46,1.07,4.1,4.1,0,0,0,1.21.74,14.57,14.57,0,0,0,1.71.61c.64.2,1.29.41,2,.65a19.84,19.84,0,0,1,2,.83,7.71,7.71,0,0,1,1.72,1.18,5.45,5.45,0,0,1,1.21,1.71,5.81,5.81,0,0,1,.45,2.4,7.82,7.82,0,0,1-.62,3.16,6.48,6.48,0,0,1-1.86,2.49A8.79,8.79,0,0,1,505.83,66a13.91,13.91,0,0,1-4.17.58,13.46,13.46,0,0,1-2.36-.22,16.57,16.57,0,0,1-2.28-.6,12.71,12.71,0,0,1-2-.91,8.83,8.83,0,0,1-1.6-1.12l1.6-2.54a2.07,2.07,0,0,1,.68-.7,2,2,0,0,1,1.06-.25,2.16,2.16,0,0,1,1.08.26l1,.58a8.85,8.85,0,0,0,1.3.58,5.65,5.65,0,0,0,1.89.27,4.77,4.77,0,0,0,1.35-.17,2.27,2.27,0,0,0,.89-.46,1.79,1.79,0,0,0,.65-1.38,1.49,1.49,0,0,0-.47-1.13,3.93,3.93,0,0,0-1.22-.77,17.22,17.22,0,0,0-1.73-.6c-.64-.19-1.3-.4-2-.64a16,16,0,0,1-2-.85,7,7,0,0,1-1.72-1.27,5.79,5.79,0,0,1-1.23-1.88,7,7,0,0,1-.46-2.7,7.17,7.17,0,0,1,.56-2.79,6.43,6.43,0,0,1,1.71-2.32,8.32,8.32,0,0,1,2.85-1.6,12.35,12.35,0,0,1,4-.59,12.81,12.81,0,0,1,2.42.23,11.36,11.36,0,0,1,2.19.62,10.24,10.24,0,0,1,1.87,1,8.94,8.94,0,0,1,1.49,1.19Z"/><path class="cls-3" d="M185.52,79.52a22.94,22.94,0,0,1,5.72.62,11.09,11.09,0,0,1,3.85,1.76,6.72,6.72,0,0,1,2.17,2.76,9.36,9.36,0,0,1,.68,3.63,7.31,7.31,0,0,1-.31,2.1,6.25,6.25,0,0,1-1,1.9,7.85,7.85,0,0,1-1.72,1.61,10.7,10.7,0,0,1-2.51,1.27,9,9,0,0,1,4.74,2.51,6.57,6.57,0,0,1,1.54,4.5,9.2,9.2,0,0,1-.81,3.85,8.73,8.73,0,0,1-2.35,3.11,11,11,0,0,1-3.81,2.06,16.54,16.54,0,0,1-5.19.75H173.59V79.52Zm-4.41,5.63v8H185a12.88,12.88,0,0,0,2.25-.17,4.7,4.7,0,0,0,1.7-.63,2.83,2.83,0,0,0,1.07-1.22,4.67,4.67,0,0,0,.36-2,5.41,5.41,0,0,0-.29-1.93,2.71,2.71,0,0,0-.88-1.23,3.77,3.77,0,0,0-1.53-.67,10.76,10.76,0,0,0-2.19-.2Zm5.3,21.12a6.77,6.77,0,0,0,2.44-.37,4,4,0,0,0,1.48-1,3.34,3.34,0,0,0,.73-1.36,6.2,6.2,0,0,0,.2-1.54,5.33,5.33,0,0,0-.23-1.6,2.73,2.73,0,0,0-.81-1.2,3.78,3.78,0,0,0-1.5-.76,8.65,8.65,0,0,0-2.36-.27h-5.25v8.08Z"/><path class="cls-3" d="M208,101.65a6.5,6.5,0,0,0,1.75,4.19,5.24,5.24,0,0,0,3.68,1.3,6.38,6.38,0,0,0,2.07-.29,10.05,10.05,0,0,0,1.54-.64l1.25-.65a2.64,2.64,0,0,1,1.19-.29,1.43,1.43,0,0,1,1.25.6l2,2.47a10.16,10.16,0,0,1-2.3,2,12.22,12.22,0,0,1-2.54,1.2,13.74,13.74,0,0,1-2.6.6,19.91,19.91,0,0,1-2.49.17,13.15,13.15,0,0,1-4.55-.79,10.47,10.47,0,0,1-3.72-2.35A11,11,0,0,1,202,105.3a14.42,14.42,0,0,1-.92-5.39,12.16,12.16,0,0,1,.79-4.39,10.67,10.67,0,0,1,5.85-6.09,12.67,12.67,0,0,1,9-.2,9,9,0,0,1,3.27,2.07,9.55,9.55,0,0,1,2.14,3.32,12.29,12.29,0,0,1,.77,4.47,10.27,10.27,0,0,1-.07,1.26,2,2,0,0,1-.25.78.86.86,0,0,1-.48.4,2.05,2.05,0,0,1-.76.12Zm8.68-4a5.72,5.72,0,0,0-.22-1.6,3.78,3.78,0,0,0-.69-1.39,3.48,3.48,0,0,0-1.25-1,4.33,4.33,0,0,0-1.89-.37,4.15,4.15,0,0,0-3.08,1.12A5.89,5.89,0,0,0,208,97.64Z"/><path class="cls-3" d="M233.18,78.63V112h-6.91V78.63Z"/><path class="cls-3" d="M244.75,78.63V112h-6.9V78.63Z"/><path class="cls-3" d="M255.1,101.65a6.5,6.5,0,0,0,1.76,4.19,5.21,5.21,0,0,0,3.67,1.3,6.38,6.38,0,0,0,2.07-.29,10.19,10.19,0,0,0,1.55-.64l1.24-.65a2.64,2.64,0,0,1,1.19-.29,1.43,1.43,0,0,1,1.25.6l2,2.47a10.16,10.16,0,0,1-2.3,2,12,12,0,0,1-2.54,1.2,13.56,13.56,0,0,1-2.6.6,19.89,19.89,0,0,1-2.48.17,13.16,13.16,0,0,1-4.56-.79,10.52,10.52,0,0,1-3.71-2.35,11.19,11.19,0,0,1-2.52-3.87,14.63,14.63,0,0,1-.92-5.39,12.16,12.16,0,0,1,.79-4.39,10.67,10.67,0,0,1,5.85-6.09,12.67,12.67,0,0,1,9-.2,9,9,0,0,1,3.27,2.07,9.28,9.28,0,0,1,2.14,3.32,12.29,12.29,0,0,1,.77,4.47,8.59,8.59,0,0,1-.07,1.26,2.05,2.05,0,0,1-.24.78.89.89,0,0,1-.48.4,2.11,2.11,0,0,1-.77.12Zm8.68-4a6.11,6.11,0,0,0-.21-1.6,3.78,3.78,0,0,0-.69-1.39,3.61,3.61,0,0,0-1.26-1,4.33,4.33,0,0,0-1.89-.37,4.11,4.11,0,0,0-3.07,1.12,5.83,5.83,0,0,0-1.47,3.24Z"/><path class="cls-3" d="M294.5,88.87,285.55,112h-6.28l-8.95-23.08h5.75a2.1,2.1,0,0,1,1.23.34,1.71,1.71,0,0,1,.68.86l3.21,10.35c.28.85.53,1.67.74,2.47s.41,1.6.57,2.41a37.21,37.21,0,0,1,1.36-4.88l3.34-10.35a1.72,1.72,0,0,1,.66-.86,2,2,0,0,1,1.16-.34Z"/><path class="cls-3" d="M317.44,88.87V112h-4.27a1.62,1.62,0,0,1-1.69-1.16l-.4-1.33a14.76,14.76,0,0,1-1.38,1.17,9.26,9.26,0,0,1-1.53.89,9.82,9.82,0,0,1-1.76.58,9.42,9.42,0,0,1-2.05.21,8,8,0,0,1-3.35-.66,6.75,6.75,0,0,1-2.46-1.84A7.88,7.88,0,0,1,297,107a11.56,11.56,0,0,1-.51-3.52V88.87h6.9v14.64a4,4,0,0,0,.78,2.65,2.79,2.79,0,0,0,2.29.94,4.82,4.82,0,0,0,2.13-.48,8.45,8.45,0,0,0,1.92-1.3V88.87Z"/><path class="cls-3" d="M327.79,101.65a6.55,6.55,0,0,0,1.76,4.19,5.24,5.24,0,0,0,3.68,1.3,6.38,6.38,0,0,0,2.07-.29,10.05,10.05,0,0,0,1.54-.64l1.25-.65a2.64,2.64,0,0,1,1.19-.29,1.44,1.44,0,0,1,1.25.6l2,2.47a10.16,10.16,0,0,1-2.3,2,12.22,12.22,0,0,1-2.54,1.2,13.66,13.66,0,0,1-2.61.6,19.63,19.63,0,0,1-2.48.17,13.15,13.15,0,0,1-4.55-.79,10.47,10.47,0,0,1-3.72-2.35,11,11,0,0,1-2.51-3.87,14.42,14.42,0,0,1-.92-5.39,12.16,12.16,0,0,1,.79-4.39,10.67,10.67,0,0,1,5.85-6.09,12.67,12.67,0,0,1,8.95-.2,9,9,0,0,1,3.27,2.07,9.55,9.55,0,0,1,2.14,3.32,12.29,12.29,0,0,1,.76,4.47,10.58,10.58,0,0,1-.06,1.26,2,2,0,0,1-.25.78.86.86,0,0,1-.48.4,2.05,2.05,0,0,1-.76.12Zm8.69-4a5.72,5.72,0,0,0-.22-1.6,3.78,3.78,0,0,0-.69-1.39,3.57,3.57,0,0,0-1.25-1,4.35,4.35,0,0,0-1.9-.37,4.12,4.12,0,0,0-3.07,1.12,5.89,5.89,0,0,0-1.47,3.24Z"/><rect class="cls-2" x="374.41" y="93.16" width="118.97" height="11.92"/></g></g></svg>