<?xml version="1.0" encoding="UTF-8"?><svg id="FINAL" xmlns="http://www.w3.org/2000/svg" viewBox="0 0 331.87 173.15"><defs><style>.cls-1{fill:#52b788;}</style></defs><path class="cls-1" d="m297.09,115.04c-1.64,0-2.82-1.57-2.36-3.15l17.82-60.95c1.8-6.18.03-12.35-3.9-16.62-5.02-5.44-13.66-7.27-20.32-3.82-3.23,1.67-6.37,5.12-8.19,7.13-9.83,10.82-37.06,40.86-43.09,47.52-.29.32-.82.03-.69-.39l14.07-48.14c1.5-5.13.53-10.25-2.1-14.29-6.85-10.52-20.31-9.58-28.32-1.15-7.08,7.45-35.04,39.48-41.24,46.58-.29.33-.82.03-.7-.39l8.99-30.75C194.68,10.54,177.05,0,149.05,0H12.45c-.92,0-1.76.51-2.19,1.33L.09,21.13c-.28.55.12,1.19.73,1.19h134.17c30.83,0,15.16,56.99-36.53,59.43-1.7.08-2.98-1.51-2.5-3.14l11.78-40.31c.46-1.57-.72-3.15-2.36-3.15h-31.01c-1.09,0-2.05.72-2.36,1.77l-37.98,129.93c-1.08,3.7,2.32,7.14,6.03,6.11l17.63-4.89c8.19-2.27,14.63-8.62,17.01-16.78l13.83-47.3c.3-1.04,1.25-1.75,2.34-1.77,15.36-.27,29.18-3.87,42.14-9.02.63-.25,1.28.33,1.09.99l-8.01,27.38c-.92,3.15,1.44,6.29,4.72,6.29h8.04c6.93,0,13.54-2.93,18.19-8.06l47.37-52.19c.29-.32.82-.03.7.39l-15.66,53.56c-.92,3.15,1.44,6.29,4.72,6.29h18.69c6.93,0,13.53-2.92,18.19-8.05,10.98-12.09,30.98-34.13,36.05-39.71.29-.32.81-.02.69.39l-12.01,41.08c-.92,3.15,1.44,6.29,4.72,6.29h62.5c.84,0,1.62-.43,2.07-1.13l6.67-10.43c.35-.55-.04-1.26-.69-1.26h-33.96Z"/></svg>