<?xml version="1.0" encoding="UTF-8"?><svg id="Ebene_1" xmlns="http://www.w3.org/2000/svg" viewBox="0 0 359.54 214.09"><defs><style>.cls-1{fill:#fff;}</style></defs><path class="cls-1" d="m309.94,139.96c.25-.87.38-1.46.59-2.01,3.83-10.16,7.68-20.33,11.52-30.49,4.46-11.77,8.99-23.51,13.35-35.32,1.57-4.24,3.22-8.48,3.49-13.12.48-8.19-3.77-13.93-11.77-15.31-8.41-1.45-15.8,1.18-22.04,6.63-12.83,11.22-25.4,22.74-38.15,34.05-4.81,4.27-9.8,8.33-14.72,12.47-.46.39-1.04.65-1.74,1.08,0-.63-.06-.92,0-1.17,1.68-5.8,3.31-11.61,5.08-17.38,1.85-6.03,3.84-12.02,5.76-18.04,1.98-6.22,4-12.44,5.87-18.69.98-3.28,2.05-6.61,2.43-9.99.59-5.18-.72-9.87-5.5-12.85-3.52-2.19-7.45-2.16-11.29-1.29-8.91,2.02-16.58,6.5-22.72,13.16-12.83,13.91-25.45,28.03-38,42.2-4.13,4.66-6.87,8.04-11.19,12.97-.18.21-.43.56-.69.59-1.02.14-3.1-.31-2.79-1.25,2.31-7.12,4.72-14.2,6.9-21.36,2.27-7.46,4.72-14.9,6.34-22.51,1.8-8.48.29-16.72-4.54-24.07-7.1-10.8-18.24-14.5-30.16-16.45-3.91-.64-7.98-.43-11.98-.49-14.78-.22-29.55-.41-44.33-.57-16-.16-32-.25-47.99-.41C41.87.25,32.03.03,22.2,0c-2.8,0-5.23.91-6.86,3.58C10.72,11.09,5.95,18.51,1.24,25.97c-.21.34-.33.73-.59,1.29.86,0,1.46,0,2.07,0,30.83,0,61.66-.05,92.5.03,10.22.03,20.44.23,30.64.65,4.84.2,9.4,1.85,13.06,5.2,5.77,5.3,5.89,12,4.11,18.93-1.83,7.12-5.73,13.05-11.08,18.06-11.33,10.62-24.5,18.08-39.26,22.77-4.62,1.47-9.37,2.29-14.23,2.3-1.84,0-2.11-.4-1.55-2.08.75-2.26,1.49-4.52,2.19-6.8,3.39-10.95,6.77-21.91,10.15-32.87,1.02-3.32,2.03-6.64,3.08-10.07-.54-.09-.86-.19-1.17-.19-10.94.02-21.89,0-32.83.15-1.27.02-2.65.76-3.75,1.49-1.87,1.25-2.74,3.28-3.4,5.38-3.23,10.25-6.48,20.5-9.7,30.75-3.26,10.36-6.51,20.71-9.74,31.08-4.02,12.91-8,25.83-12.03,38.73-2.85,9.15-5.77,18.28-8.62,27.43-2.87,9.2-5.72,18.4-8.57,27.61-.81,2.62-1.6,5.25-2.51,8.26,3.15-.77,5.93-1.44,8.7-2.14,8.8-2.24,17.62-4.43,26.4-6.77,4.74-1.27,8.1-4.25,9.73-8.98,1.09-3.14,2.17-6.29,3.17-9.45,3.43-10.82,6.89-21.63,10.22-32.48,2.64-8.58,5.35-17.14,7.58-25.82,1.76-6.86,5.66-10.86,12.57-12.6,8.91-2.24,17.7-4.97,26.52-7.57,7.92-2.33,15.8-4.79,23.72-7.13,1.38-.41,2.86-.47,4.67-.75-5.83,18.99-11.55,37.59-17.29,56.3.63.13.94.25,1.26.26,4.44.15,8.89.48,13.32.39,9.54-.18,17.54-3.44,23.85-11.1,16.83-20.44,33.99-40.61,50.94-60.95,4.5-5.41,8.7-11.07,13.03-16.62.48-.61.67-1.76,1.8-1.19,1,.5,1.92,1.17,1.5,2.6-.47,1.59-.81,3.23-1.31,4.81-2.52,8.03-5.09,16.05-7.62,24.08-2.82,8.98-5.7,17.94-8.41,26.95-1.93,6.41-3.8,12.85-5.33,19.37-.82,3.51.19,6.94,3.11,9.31,6.97,5.66,15.55,5.88,22.54-.94,8.62-8.41,17.06-17,25.6-25.49,12.17-12.09,24.36-24.16,36.55-36.24,1.09-1.08,2.31-1.55,3.97-1.06-1.65,4.37-3.21,8.56-4.81,12.74-4.24,11.14-8.5,22.27-12.74,33.41-1.33,3.49-2.38,7.02-2.2,10.84.22,4.8,3.48,7.7,8.2,7.91,7.71.33,15.44.64,23.15.52,13.82-.21,27.65-.68,41.46-1.18,5.33-.19,9.53-2.76,12.53-7.16,1.58-2.32,2.8-4.84,3.15-8h-49.6Z"/></svg>