<svg xmlns="http://www.w3.org/2000/svg" xmlns:xlink="http://www.w3.org/1999/xlink" viewBox="0 0 359.268 158.09">
  <g transform="matrix(1, 0, 0, 1, 0, 0)">
    <path id="" d="M155.549,128.09V114.531h4.823v-51.6h15.652V128.09ZM1.3,128.09V62.934H16.5V70.76h.455c2.821-5.368,9.919-9.191,17.654-9.191,13.195,0,23.114,11.83,23.114,26.754,0,14.833-9.919,26.662-23.114,26.662-6.826,0-12.559-1.911-17.2-8.645h-.455V128.09ZM18.776,88.323c0,8.007,5.1,12.1,11.284,12.1,6.279,0,11.557-4.1,11.557-12.1,0-8.1-5.278-12.194-11.557-12.194C23.873,76.129,18.776,80.224,18.776,88.323Zm164.893-.274c0-14.833,12.1-26.481,27.846-26.481A27.483,27.483,0,0,1,239.36,89.324c0,1.092-.091,3-.183,4H200.048c.819,5.187,5.642,7.1,11.648,7.1,4.277,0,7.825-1,9.463-4.368h17.2c-3.276,11.284-13.65,18.928-26.845,18.928C195.771,114.986,183.668,102.974,183.668,88.05Zm16.925-5.187h21.568c-.637-2.821-4.641-6.734-10.921-6.734S201.049,79.5,200.594,82.863ZM98.765,88.323A26.937,26.937,0,1,1,125.7,114.986,26.7,26.7,0,0,1,98.765,88.323Zm15.652,0c0,7.826,5,12.011,11.284,12.011s11.375-4.186,11.375-12.011c0-8.1-5.1-12.012-11.375-12.012S114.417,80.224,114.417,88.323Zm192.556,25.3V77.494h-6.916V62.934h6.916V48.647h15.561V62.934h6.734V77.494h-6.734V99.061h6.734v14.56Zm-28.391,0V94.875H262.656v18.746H247V48.374h15.652V80.315h2.639l10.556-17.563h16.835L281.766,80.315h12.377v33.306Zm-213.032,0V62.934H96.035V77.494H81.2v36.128ZM159.462,48.01a8.691,8.691,0,1,1,8.736,8.736A8.72,8.72,0,0,1,159.462,48.01ZM38.52,27.781V3.517H50.832V28.573c0,2.952,1.872,4.608,5.328,4.608,3.816,0,5.256-2.016,5.256-4.608V3.517H73.8V27.781c0,9.648-7.2,16.92-17.64,16.92C45.792,44.7,38.52,37.429,38.52,27.781Zm93.24,15.84V15.037H119.088V43.621h-12.24V15.037h-12.6V43.621H82.008V3.517H144v40.1ZM0,43.621V33.829l16.128-19.08H.5V3.517H31.68V14.245L16.344,32.389H32.256V43.621Zm313.859-23.5,7.5-7.5H180.481v-3H321.359l-7.5-7.5L315.98,0,327.1,11.121,315.98,22.243Z" transform="translate(15 15)" fill="#fff"/>
  </g>
</svg>
