<?xml version="1.0" encoding="utf-8"?>
<!-- Generator: $$$/GeneralStr/196=Adobe Illustrator 27.6.0, SVG Export Plug-In . SVG Version: 6.00 Build 0)  -->
<svg version="1.1" id="Ebene_1" xmlns="http://www.w3.org/2000/svg" xmlns:xlink="http://www.w3.org/1999/xlink" x="0px" y="0px"
	 viewBox="0 0 1136.1 500" style="enable-background:new 0 0 1136.1 500;" xml:space="preserve">
<style type="text/css">
	.st0{fill:#FFFFFF;}
</style>
<g>
	<path class="st0" d="M39.5,117.3h60.8c11.5,0,20.9,3.7,28.4,11.1c7.4,7.4,11.1,16.5,11.1,27.4c0,4.7-0.7,9.1-2,13.2
		c-1.4,4.1-3,7.4-5.1,9.8c-2,2.4-4.1,4.7-6.1,6.4c-2,1.7-3.7,3-5.1,3.7l-2,1l24.7,44.2h-26.4l-22.3-40.8h-31v40.9h-25V117.3
		L39.5,117.3z M110.7,144.3c-3-3-6.8-4.4-11.1-4.4H64.5v30.7h35.1c4.4,0,8.1-1.4,11.1-4.4s4.4-6.4,4.4-10.8
		C115.1,151.1,113.8,147.3,110.7,144.3"/>
	<path class="st0" d="M220.8,117.3c11.8,0,21.6,3.7,29.4,11.1c7.8,7.4,11.8,16.9,11.8,28s-4.1,20.3-11.8,28
		c-7.8,7.4-17.6,11.1-29.4,11.1h-38.5V234h-24.7V117.6L220.8,117.3z M182.3,139.9v33.4h37.5c5.1,0,9.1-1.7,12.5-4.7
		s5.1-7.1,5.1-11.8c0-4.7-1.7-8.8-5.1-11.8c-3.4-3.4-7.4-4.7-12.5-4.7h-37.5V139.9z"/>
	<polygon class="st0" points="370.8,117.3 370.8,139.9 330.9,139.9 330.9,234.1 306.3,234.1 306.3,139.9 266.4,139.9 266.4,117.3 	
		"/>
	<g id="Ebene_1_Kopie">
		<g>
			<path class="st0" d="M488.6,186.1v-68.8H464V186c0,7.7-2.3,14.2-7.4,19.6c-2.3,2.3-5.1,4.4-7.7,5.7c-0.6,0.3-0.7,0.3-1.4,0.7
				c-3.7,2-6.4,5.7-6.4,10.5c0,6.4,5.1,11.4,11.4,11.4c1,0,2.9-0.4,4.4-1c6.4-2.3,12.5-6.1,17.5-11.1
				C483.9,212,488.6,200.2,488.6,186.1"/>
			<path class="st0" d="M384.4,186.1c0,14.1,4.7,25.9,14.2,35.7c5.1,5.1,11.1,8.8,17.5,11.1c1.5,0.6,3.3,1,4.4,1
				c6.4,0,11.4-5,11.4-11.4c0-4.7-2.7-8.4-6.4-10.5c-0.6-0.3-0.8-0.4-1.4-0.7c-2.7-1.4-5.4-3.4-7.7-5.7c-5.1-5.4-7.4-11.8-7.4-19.6
				v-68.7h-24.6V186.1"/>
		</g>
	</g>
	<g>
		<path class="st0" d="M716.4,384.2v-26.9h-3v13.8c0,6.7-3.7,11.1-9.8,11.1c-5.7,0-9.1-3.7-9.1-9.8v-15.1h-3v15.5
			c0,7.4,4.4,12.1,11.4,12.1c5,0,8.7-2,10.4-6.1l0,0v5.4L716.4,384.2L716.4,384.2z M670.3,382.2c-6.4,0-11.1-4.7-11.1-11.4
			s4.7-11.4,11.1-11.4c6.7,0,11.4,4.7,11.4,11.4C681.4,377.5,676.7,382.2,670.3,382.2 M684.1,384.2v-26.9h-2.7v5.7l0,0
			c-2-3.7-6.4-6.1-11.8-6.1c-8.1,0-13.8,5.7-13.8,14.1c0,8.1,5.7,14.1,13.8,14.1c5.4,0,9.4-2.4,11.8-6.1l0,0v5.7h2.7V384.2z
			 M635.7,382.2c-6.4,0-11.1-4.7-11.1-11.4s4.7-11.4,11.1-11.4c6.7,0,11.4,4.7,11.4,11.4C646.8,377.5,642.1,382.2,635.7,382.2
			 M649.8,384.2v-40.7h-3v18.8l0,0c-2-3.7-6.1-5.7-11.4-5.7c-8.1,0-13.8,5.7-13.8,14.1c0,8.1,5.7,14.1,13.8,14.1
			c5.4,0,9.4-2.4,11.8-6.1l0,0v5.7h2.7V384.2z M604.4,356.7c-5,0-8.7,2.4-10.4,6.1l0,0V357h-2.7v26.9h3v-13.5
			c0-7.1,3.7-11.1,9.8-11.1c5.7,0,9.1,3.7,9.1,9.8v15.1h3v-15.5C615.8,361.4,611.4,356.7,604.4,356.7 M568.7,382.2
			c-6.4,0-11.1-4.7-11.1-11.4s4.7-11.4,11.1-11.4c6.7,0,11.4,4.7,11.4,11.4S575.4,382.2,568.7,382.2 M582.8,384.2v-26.9h-2.7v5.7
			l0,0c-2-3.7-6.4-6.1-11.8-6.1c-8.1,0-13.8,5.7-13.8,14.1c0,8.1,5.7,14.1,13.8,14.1c5.4,0,9.4-2.4,11.8-6.1l0,0v5.7h2.7V384.2z
			 M550.5,384.2v-3H527v-35.7h-3v38.4h26.6V384.2z"/>
		<path class="st0" d="M869.8,280.6c-5,0-8.7,2.4-10.4,6.1l0,0V281h-2.7v26.9h3v-13.8c0-7.1,3.7-11.1,9.8-11.1
			c5.7,0,9.1,3.7,9.1,9.8v15.1h3v-15.5C881.3,285,876.9,280.6,869.8,280.6 M847.6,280.6c-4.4,0-7.4,2-8.7,5.7l0,0v-5h-2.7v26.9h3
			v-12.8c0-7.7,2.7-11.8,8.4-11.8c1.7,0,3,0.3,4.4,1.3h0.3v-3C851,281,849.3,280.6,847.6,280.6 M816,283.3c6.4,0,10.4,3.7,10.8,9.8
			h-22.2C805.6,287,809.9,283.3,816,283.3 M829.8,295.4v-1.7c0-7.7-5.4-13.1-13.8-13.1c-8.1,0-14.1,5.7-14.1,14.1
			c0,8.7,6.1,14.1,15.5,14.1c4.4,0,8.1-1.3,10.4-3.7v-3h-0.3c-2.7,2.7-6.1,4-10.4,4c-7.4,0-12.1-4-12.4-10.8L829.8,295.4
			L829.8,295.4z M797.8,304.5L797.8,304.5c-1.3,1-2.7,1.3-4.4,1.3c-3.4,0-5.4-2.4-5.4-6.1v-16.1h9.4V281h-9.1v-7.1h-2.4l-0.7,7.1
			H780v2.7h5.4v16.5c0,5.4,3,8.7,8.1,8.7c2,0,3.4-0.3,4.7-1L797.8,304.5L797.8,304.5z M775.3,308.2v-26.9h-3v13.8
			c0,6.7-3.7,11.1-9.8,11.1c-5.7,0-9.1-3.7-9.1-9.8v-15.1h-3v15.5c0,7.4,4.4,12.1,11.4,12.1c5,0,8.7-2,10.4-6.1l0,0v5.4L775.3,308.2
			L775.3,308.2z M728.9,305.8c-6.4,0-11.1-4.7-11.1-11.4c0-6.7,4.7-11.4,11.1-11.4c6.7,0,11.4,4.7,11.4,11.4
			C740.3,301.5,735.6,305.8,728.9,305.8 M743,308.2v-26.9h-2.7v5.7l0,0c-2-3.7-6.4-6.1-11.8-6.1c-8.1,0-13.8,5.7-13.8,14.1
			c0,8.1,5.7,14.1,13.8,14.1c5.4,0,9.4-2.4,11.8-6.1l0,0v5.7h2.7V308.2z M705.6,308.2h3v-40.7h-3V308.2z M689.2,280.6
			c-6.1,0-10.1,3.4-10.1,8.1c0,4.7,2.4,6.7,9.8,7.1c6.1,0.3,7.7,1.7,7.7,4.7c0,3.4-3,5.4-7.4,5.4c-4.4,0-8.1-1.3-10.1-3.7h-0.3v3.4
			c2.4,2,5.7,3,10.4,3c6.4,0,10.1-3,10.1-8.1c0-5-2.7-7.4-10.1-7.7c-5.7-0.3-7.4-1.3-7.4-4.4s3-5.4,7.1-5.4c4,0,6.7,1,8.7,3h0.3
			v-3.4C696.2,281.3,692.9,280.6,689.2,280.6 M672,280.6c-4.4,0-7.4,2-8.7,5.7l0,0v-5h-2.7v26.9h3v-12.8c0-7.7,2.7-11.8,8.4-11.8
			c1.7,0,3,0.3,4.4,1.3h0.3v-3C675,281,673.7,280.6,672,280.6 M640.4,283.3c6.4,0,10.4,3.7,10.8,9.8h-22.2
			C629.9,287,634.3,283.3,640.4,283.3 M653.8,295.4v-1.7c0-7.7-5.4-13.1-13.8-13.1c-8.1,0-14.1,5.7-14.1,14.1
			c0,8.7,6.1,14.1,15.5,14.1c4.4,0,8.1-1.3,10.4-3.7v-3h-0.3c-2.7,2.7-6.1,4-10.4,4c-7.4,0-12.1-4-12.4-10.8L653.8,295.4
			L653.8,295.4z M611.4,280.6c-6.1,0-10.1,3.4-10.1,8.1c0,4.7,2.4,6.7,9.8,7.1c6.1,0.3,7.7,1.7,7.7,4.7c0,3.4-3,5.4-7.4,5.4
			c-4.4,0-8.1-1.3-10.1-3.7H601v3.4c2.4,2,5.7,3,10.4,3c6.4,0,10.1-3,10.1-8.1c0-5-2.7-7.4-10.1-7.7c-5.7-0.3-7.4-1.3-7.4-4.4
			s3-5.4,7.1-5.4c4,0,6.7,1,8.7,3h0.3v-3.4C618.5,281.3,615.1,280.6,611.4,280.6 M592.3,308.2h3v-26.9h-3V308.2z M593.6,270.2
			c-1.3,0-2,1-2,2.4c0,1,1,2,2,2c1.3,0,2-1,2-2C595.6,271.2,595,270.2,593.6,270.2 M569.7,305.8c-6.4,0-11.1-4.7-11.1-11.4
			c0-6.7,4.7-11.4,11.1-11.4c6.7,0,11.4,4.7,11.4,11.4C581.2,301.5,576.4,305.8,569.7,305.8 M583.8,308.2v-26.9h-2.7v5.7l0,0
			c-2-3.7-6.4-6.1-11.8-6.1c-8.1,0-13.8,5.7-13.8,14.1c0,8.1,5.7,14.1,13.8,14.1c5.4,0,9.4-2.4,11.8-6.1l0,0v5.7h2.7V308.2z
			 M527.3,308.2v-18.5l21.5,18.5h4.7l-22.9-19.5l22.2-19.2h-4.7L527,287.7v-18.2h-3v38.4h3.4V308.2z"/>
		<path class="st0" d="M1096.6,227.8L1096.6,227.8c-1.3,1-2.7,1.7-4.4,1.7c-3,0-4.7-2-4.7-5v-13.8h8.7v-4.4h-8.7v-7.4h-4l-0.7,7.4
			h-5v4.4h5v14.1c0,6.1,3,9.4,8.7,9.4c2,0,3.7-0.3,5-1V227.8z M1064.6,194.5c-2,0-3,1.3-3,3s1.3,3,3,3s3-1.3,3-3
			C1067.7,195.5,1066.3,194.5,1064.6,194.5 M1053.2,194.5c-1.7,0-3,1.3-3,3s1.3,3,3,3c1.7,0,3-1.3,3-3
			C1056.6,195.5,1055.2,194.5,1053.2,194.5 M1059.2,229.1c-5.7,0-9.4-4-9.4-9.8c0-5.7,3.7-9.8,9.4-9.8c5.4,0,9.4,4,9.4,9.8
			C1068.3,225.4,1064.6,229.1,1059.2,229.1 M1073.4,233.2v-27.3h-4l-0.3,4.4l0,0c-2-3-5.7-5-10.4-5c-7.7,0-13.5,6.1-13.5,14.1
			c0,8.1,5.7,14.1,13.5,14.1c4.7,0,8.4-2,10.4-4.7l0,0l0.3,4.4H1073.4z M1041.1,227.8L1041.1,227.8c-1.3,1-2.7,1.7-4.4,1.7
			c-3,0-4.7-2-4.7-5v-13.8h8.7v-4.4h-8.7v-7.4h-4l-0.7,7.4h-5v4.4h5v14.1c0,6.1,3,9.4,8.7,9.4c2,0,3.7-0.3,5-1V227.8z M1012.8,233.2
			h5v-27.3h-5V233.2z M1015.2,194.2c-2,0-3.4,1.3-3.4,3.4c0,2,1.3,3.4,3.4,3.4c2,0,3.4-1.3,3.4-3.4
			C1018.5,195.5,1017.2,194.2,1015.2,194.2 M997,205.3c-6.4,0-10.4,3.4-10.4,8.7c0,5,2.7,7.1,9.8,7.7c4.7,0.3,6.4,1.3,6.4,3.7
			s-2.4,4-6.1,4c-4.4,0-7.7-1.3-9.8-3.7h-0.3v5.4c2.4,2,5.7,2.7,10.4,2.7c6.7,0,10.8-3.4,10.8-8.4c0-5.4-2.7-7.7-10.1-8.1
			c-4.4-0.3-6.1-1-6.1-3c0-2.4,2.4-4,5.7-4c3.7,0,6.7,1,8.4,3h0.3v-5.4C1003.7,206.3,1000.4,205.3,997,205.3 M979.2,205.3
			c-4,0-7.1,1.7-8.4,5l0,0v-4.4h-4v27.3h5v-12.4c0-7.1,2.4-10.8,7.7-10.8c1.7,0,3,0.3,4.4,1.3h0.3v-5
			C982.5,205.9,980.9,205.3,979.2,205.3 M946.9,210c5,0,8.4,2.7,9.1,7.4h-18.2C938.5,212.7,942.2,210,946.9,210 M960.3,221.1v-2.7
			c0-7.7-5.4-13.1-13.8-13.1c-8.4,0-14.1,5.7-14.1,14.1s6.1,14.1,15.8,14.1c4.4,0,8.1-1,10.4-3v-5h-0.3c-2.7,2.4-6.1,3.7-10.1,3.7
			c-6.1,0-10.1-3-10.8-8.1L960.3,221.1L960.3,221.1z M919.6,233.2l11.4-27.3h-5l-8.7,21.9l0,0l-8.7-21.9h-5.4l11.4,27.3H919.6z
			 M894,233.2h5v-27.3h-5V233.2z M896.4,194.2c-2,0-3.4,1.3-3.4,3.4c0,2,1.3,3.4,3.4,3.4s3.4-1.3,3.4-3.4
			C899.8,195.5,898.4,194.2,896.4,194.2 M875.9,205.3c-4.7,0-7.7,1.7-9.8,4.7l0,0v-4.4h-4v27.3h5V219c0-5.7,3-9.1,8.1-9.1
			c4.7,0,7.4,3,7.4,8.1v15.1h5v-15.8C887,210,882.9,205.3,875.9,205.3 M854.3,194.5H849v21.9c0,8.1-4,12.1-11.1,12.1
			c-7.1,0-11.1-4.4-11.1-12.1v-21.9H821v22.2c0,11.1,5.7,16.8,16.5,16.8c10.8,0,16.5-5.7,16.5-16.8v-22.2L854.3,194.5L854.3,194.5z
			 M789.4,210c5,0,8.4,2.7,9.1,7.4h-18.2C781.3,212.7,785,210,789.4,210 M803.2,221.1v-2.7c0-7.7-5.4-13.1-13.8-13.1
			c-8.4,0-14.1,5.7-14.1,14.1s6.1,14.1,15.8,14.1c4.4,0,8.1-1,10.4-3v-5h-0.3c-2.7,2.4-6.1,3.7-10.1,3.7c-6.1,0-10.1-3-10.8-8.1
			L803.2,221.1L803.2,221.1z M759.1,205.3c-4,0-7.1,1.3-9.1,4l0,0v-16.8h-5v40.7h5V219c0-5.7,3-9.1,8.1-9.1c4.7,0,7.4,3,7.4,8.1
			v15.1h5v-15.8C770.2,210,765.9,205.3,759.1,205.3 M729.5,205.3c-8.7,0-14.5,5.7-14.5,14.1c0,8.1,5.7,14.1,14.5,14.1
			c3.7,0,6.7-1,8.7-2.7v-5h-0.3c-2,2.4-4.7,3.7-8.1,3.7c-6.1,0-10.1-4-10.1-9.8c0-5.7,4-9.8,10.1-9.8c3.4,0,6.1,1,8.1,3.7h0.3v-5.4
			C736.3,206.3,733.2,205.3,729.5,205.3 M700.6,205.3c-6.4,0-10.4,3.4-10.4,8.7c0,5,2.7,7.1,9.8,7.7c4.7,0.3,6.4,1.3,6.4,3.7
			s-2.4,4-6.1,4c-4.4,0-7.7-1.3-9.8-3.7h-0.3v5.4c2.4,2,5.7,2.7,10.4,2.7c6.7,0,10.8-3.4,10.8-8.4c0-5.4-2.7-7.7-10.1-8.1
			c-4.4-0.3-6.1-1-6.1-3c0-2.4,2.4-4,5.7-4c3.7,0,6.7,1,8.4,3h0.3v-5.4C707.7,206.3,704.3,205.3,700.6,205.3 M679.1,233.2h5v-27.3
			h-5V233.2z M681.8,194.2c-2,0-3.4,1.3-3.4,3.4c0,2,1.3,3.4,3.4,3.4c2,0,3.4-1.3,3.4-3.4C684.8,195.5,683.4,194.2,681.8,194.2
			 M661.2,205.3c-4.7,0-7.7,1.7-9.8,4.7l0,0v-4.4h-4.4v27.3h5V219c0-5.7,3-9.1,8.1-9.1c4.7,0,7.4,3,7.4,8.1v15.1h5v-15.8
			C672.3,210,668,205.3,661.2,205.3 M628.9,205.3c-4,0-7.1,1.3-9.1,4l0,0v-16.8h-5v40.7h5V219c0-5.7,3-9.1,8.1-9.1
			c4.7,0,7.4,3,7.4,8.1v15.1h5v-15.8C640,210,636,205.3,628.9,205.3 M599.3,205.3c-8.7,0-14.5,5.7-14.5,14.1
			c0,8.1,5.7,14.1,14.5,14.1c3.7,0,6.7-1,8.7-2.7v-5h-0.3c-2,2.4-4.7,3.7-8.1,3.7c-6.1,0-10.1-4-10.1-9.8c0-5.7,4-9.8,10.1-9.8
			c3.4,0,6.1,1,8.1,3.7h0.3v-5.4C606.4,206.3,603.4,205.3,599.3,205.3 M567,210c5,0,8.4,2.7,9.1,7.4h-18.2
			C559,212.7,562.7,210,567,210 M580.8,221.1v-2.7c0-7.7-5.4-13.1-13.8-13.1c-8.4,0-14.1,5.7-14.1,14.1s6.1,14.1,15.8,14.1
			c4.4,0,8.1-1,10.4-3v-5h-0.3c-2.7,2.4-6.1,3.7-10.1,3.7c-6.1,0-10.1-3-10.8-8.1L580.8,221.1L580.8,221.1z M542.5,199.5h12.4v-5
			h-31v5h12.8v33.6h5.7V199.5z"/>
		<path class="st0" d="M1046.5,132.6c5,0,8.4,2.7,9.1,7.4h-18.2C1038,135.6,1041.7,132.6,1046.5,132.6 M1060.3,144v-2.7
			c0-7.7-5.4-13.1-13.8-13.1c-8.4,0-14.1,5.7-14.1,14.1s6.1,14.1,15.8,14.1c4.4,0,8.1-1,10.4-3v-5h-0.3c-2.7,2.4-6.1,3.7-10.1,3.7
			c-6.1,0-10.1-3-10.8-8.1L1060.3,144L1060.3,144z M1015.8,128.2c-4,0-7.1,1.3-9.1,4l0,0v-16.8h-5v40.7h5v-14.5c0-5.7,3-9.1,8.1-9.1
			c4.7,0,7.4,3,7.4,8.1v15.1h5V140C1026.9,132.6,1022.9,128.2,1015.8,128.2 M986.6,128.2c-8.7,0-14.5,5.7-14.5,14.1
			c0,8.1,5.7,14.1,14.5,14.1c3.7,0,6.7-1,8.7-2.7v-5.4H995c-2,2.4-4.7,3.7-8.1,3.7c-6.1,0-10.1-4-10.1-9.8c0-5.7,4-9.8,10.1-9.8
			c3.4,0,6.1,1,8.1,3.7h0.3v-5.4C993.3,128.9,990.3,128.2,986.6,128.2 M957.6,128.2c-6.4,0-10.4,3.4-10.4,8.7c0,5,2.7,7.1,9.8,7.7
			c4.7,0.3,6.4,1.3,6.4,3.7c0,2.4-2.4,4-6.1,4c-4.4,0-7.7-1.3-9.8-3.7h-0.3v5.4c2.4,2,5.7,2.7,10.4,2.7c6.7,0,10.8-3.4,10.8-8.4
			c0-5.4-2.7-7.7-10.1-8.1c-4.4-0.3-6.1-1-6.1-3c0-2.4,2.4-4,5.7-4c3.7,0,6.7,1,8.4,3h0.3v-5.4C964.4,128.9,961.3,128.2,957.6,128.2
			 M936.1,155.8h5v-27.3h-5V155.8z M938.5,117.1c-2,0-3.4,1.3-3.4,3.4s1.3,3.4,3.4,3.4c2,0,3.4-1.3,3.4-3.4S940.5,117.1,938.5,117.1
			 M906.5,155.8H930v-4.4h-16.8l16.5-18.8v-4h-22.5v4.4H923l-16.8,18.8L906.5,155.8L906.5,155.8z M895.1,155.8h5v-40.7h-5V155.8z
			 M878.9,117.1c-1.7,0-3,1.3-3,3c0,1.7,1.3,3,3,3s3-1.3,3-3C881.9,118.5,880.9,117.1,878.9,117.1 M867.5,117.1c-1.7,0-3,1.3-3,3
			c0,1.7,1.3,3,3,3c2,0,3-1.3,3-3C870.8,118.5,869.5,117.1,867.5,117.1 M873.5,152.1c-5.7,0-9.4-4-9.4-9.8c0-5.7,3.7-9.8,9.4-9.8
			c5.4,0,9.4,4,9.4,9.8C882.9,148.1,878.9,152.1,873.5,152.1 M887.7,155.8v-27.3h-4l-0.3,4.4l0,0c-2-3-5.7-5-10.4-5
			c-7.7,0-13.5,6.1-13.5,14.1c0,8.1,5.7,14.1,13.5,14.1c4.7,0,8.4-2,10.4-4.7l0,0l0.3,4.4H887.7z M853,114.8c-5.7,0-9.1,3.4-9.1,9.8
			v4.4h-5v4.4h5v22.9h5v-22.9h8.7v-4.4H849v-4.4c0-3.4,1.7-5.4,4.7-5.4c1.7,0,3.4,0.3,4.4,1.3h0.3v-4.7
			C857.4,115.1,855.4,114.8,853,114.8 M811.3,136.6v-14.5h10.8c5.7,0,8.4,2.4,8.4,7.1c0,4.7-2.7,7.4-8.4,7.4H811.3z M805.6,117.4
			v38.4h5.4v-14.1h11.1c9.1,0,13.8-4,13.8-12.1c0-8.1-4.7-12.1-13.8-12.1L805.6,117.4L805.6,117.4z M782.4,142.7h16.1v-5h-16.1
			V142.7z M761.8,152.1c-5.7,0-9.4-4-9.4-9.8c0-5.7,3.7-9.8,9.4-9.8c5.4,0,9.4,4,9.4,9.8C771.2,148.1,767.2,152.1,761.8,152.1
			 M776,155.8v-40.7h-5v17.2l0,0c-2-2.7-5.4-4-9.8-4c-7.7,0-13.5,6.1-13.5,14.1s5.7,14.1,13.5,14.1c4.7,0,8.4-2,10.4-4.7l0,0
			l0.3,4.4h4L776,155.8L776,155.8z M731.2,128.2c-4.7,0-7.7,1.7-9.8,4.7l0,0v-4.4h-4v27.3h5v-14.1c0-5.7,3-9.1,8.1-9.1
			c4.7,0,7.4,3,7.4,8.1v15.1h5V140C742.3,132.6,737.9,128.2,731.2,128.2 M695.2,152.1c-5.7,0-9.4-4-9.4-9.8c0-5.7,3.7-9.8,9.4-9.8
			c5.4,0,9.4,4,9.4,9.8C704.6,148.1,700.6,152.1,695.2,152.1 M709.3,155.8v-27.3h-4l-0.3,4.4l0,0c-2-3-5.7-5-10.4-5
			c-7.7,0-13.5,6.1-13.5,14.1c0,8.1,5.7,14.1,13.5,14.1c4.7,0,8.4-2,10.4-4.7l0,0l0.3,4.4H709.3z M670,155.8h5v-40.7h-5V155.8z
			 M651.8,128.2c-4.7,0-7.7,1.7-9.8,4.7l0,0v-4.4h-4v27.3h5v-14.1c0-5.7,3-9.1,8.1-9.1c4.7,0,7.4,3,7.4,8.1v15.1h5V140
			C662.9,132.6,658.9,128.2,651.8,128.2 M625.2,155.8h5v-27.3h-5V155.8z M627.9,117.1c-2,0-3.4,1.3-3.4,3.4s1.3,3.4,3.4,3.4
			s3.4-1.3,3.4-3.4S629.6,117.1,627.9,117.1 M605.7,132.6c5,0,8.4,2.7,9.1,7.4h-18.2C597.6,135.6,601.3,132.6,605.7,132.6
			 M619.5,144v-2.7c0-7.7-5.4-13.1-13.8-13.1c-8.4,0-14.1,5.7-14.1,14.1s6.1,14.1,15.8,14.1c4.4,0,8.1-1,10.4-3v-5h-0.3
			c-2.7,2.4-6.1,3.7-10.1,3.7c-6.1,0-10.1-3-10.8-8.1L619.5,144L619.5,144z M575.4,128.2c-4,0-7.1,1.3-9.1,4l0,0v-16.8h-5v40.7h5
			v-14.5c0-5.7,3-9.1,8.1-9.1c4.7,0,7.4,3,7.4,8.1v15.1h5V140C586.5,132.6,582.2,128.2,575.4,128.2 M529.3,136.3v-14.1h11.1
			c5.7,0,8.4,2.4,8.4,7.1c0,4.7-2.7,7.1-8.4,7.1L529.3,136.3L529.3,136.3z M529.3,155.8V141h10.4l9.4,14.8h6.7l-10.1-15.1
			c6.1-1.3,8.7-5,8.7-11.4c0-7.7-4.7-11.8-13.8-11.8H524v38.4H529.3z"/>
	</g>
</g>
</svg>
