<svg xmlns="http://www.w3.org/2000/svg" width="392.859" height="392.463" viewBox="0 0 392.859 392.463">
  <g id="Vereinigungsmenge_5" data-name="Vereinigungsmenge 5" transform="translate(191.108 -2.141)" fill="#ce0e2d">
    <path d="M -86.89270782470703 386.6036987304688 L -86.89275360107422 386.6036987304688 C -94.30570220947266 386.6037292480469 -101.8032302856445 383.7595825195312 -108.0041275024414 378.5951232910156 C -114.3463897705078 373.3130187988281 -118.4570236206055 366.0785217285156 -119.5787048339844 358.2244262695312 C -120.7516021728516 350.0117797851562 -118.54296875 342.0614929199219 -113.3597030639648 335.8380126953125 L -108.2097549438477 329.6546325683594 L -104.8212280273438 332.5106811523438 C -104.4626541137695 328.6411743164062 -103.0932540893555 324.5121459960938 -100.1692581176758 320.2426147460938 L -153.6212310791016 345.8523254394531 L -160.8359222412109 349.3089904785156 L -164.2926025390625 342.0942687988281 L -172.6643829345703 324.6207275390625 L -176.1209716796875 317.4062194824219 L -168.906494140625 313.9495239257812 L -159.9840087890625 309.6744079589844 L -173.5175476074219 281.4280700683594 L -176.9742889404297 274.2133178710938 L -169.7595977783203 270.7566223144531 L -132.6538696289062 252.9786987304688 C -135.4426574707031 253.5706634521484 -138.3345184326172 253.8814392089844 -141.3009643554688 253.8816375732422 L -141.3056030273438 253.8816375732422 L -142.8717041015625 253.8517456054688 C -165.6799163818359 252.9801635742188 -183.5211181640625 233.5630035400391 -182.6436462402344 210.5676422119141 C -181.7833862304688 188.0495758056641 -163.6249084472656 170.4107360839844 -141.3041229248047 170.4107360839844 L -139.6881256103516 170.4416351318359 C -116.8805999755859 171.3125305175781 -99.03933715820312 190.7296905517578 -99.91675567626953 213.7255859375 C -100.3964462280273 226.2823486328125 -106.262580871582 237.3224945068359 -115.2334518432617 244.6322937011719 L -112.5078582763672 243.3264312744141 L -105.2931747436523 239.8697357177734 L -101.8364944458008 247.08447265625 L -93.46470642089844 264.5580139160156 L -90.00807189941406 271.7726745605469 L -97.22275543212891 275.2293090820312 L -130.8139190673828 291.3232727050781 L -129.1091003417969 294.8814086914062 L -95.51765441894531 278.7873229980469 L -88.30333709716797 275.3308410644531 L -84.84649658203125 282.5450439453125 L -76.4737548828125 300.0185241699219 L -73.01665496826172 307.2333068847656 L -73.47357177734375 307.4522399902344 C -66.64070129394531 307.9736022949219 -59.98556518554688 310.6986999511719 -54.51191329956055 315.2568969726562 C -48.02475738525391 320.6597290039062 -43.79354476928711 328.0087280273438 -42.59733581542969 335.9504699707031 C -41.34228134155273 344.2828979492188 -43.53665161132812 352.3363342285156 -48.77622985839844 358.6272583007812 L -53.89607238769531 364.7743835449219 L -58.99018096923828 360.5315856933594 C -59.1226806640625 366.2832336425781 -61.26692581176758 371.6659240722656 -65.42044067382812 376.6537475585938 C -70.68785858154297 382.9772644042969 -78.513916015625 386.603515625 -86.89270782470703 386.6036987304688 Z M -141.630126953125 205.8936309814453 C -146.0980682373047 205.8934783935547 -148.1608581542969 207.7390594482422 -148.3187103271484 211.8777923583984 C -148.3702239990234 213.2236328125 -148.1918640136719 215.0915374755859 -147.0501708984375 216.3521118164062 C -145.7237091064453 217.8167419433594 -143.3078155517578 218.2055816650391 -141.5147552490234 218.2738952636719 C -141.5009307861328 218.27392578125 -141.4871368408203 218.2739410400391 -141.4733581542969 218.2739410400391 C -136.5796813964844 218.2739410400391 -134.3918609619141 216.3538665771484 -134.24169921875 212.41552734375 C -134.1913299560547 211.0990600585938 -134.3896484375 209.2473754882812 -135.6202239990234 207.8965759277344 C -137.0123901367188 206.3683776855469 -139.3367614746094 205.9701080322266 -141.0414428710938 205.9051055908203 L -141.6298675537109 197.8936309814453 L -141.630126953125 205.8936309814453 Z M -100.2666549682617 178.3622741699219 L -106.0813369750977 176.4886932373047 L -168.7123413085938 156.3079528808594 L -178.6832885742188 153.0951690673828 L -172.9587097167969 144.3217926025391 L -161.9355010986328 127.4279022216797 L -158.5488586425781 122.2376327514648 L -152.6769104003906 124.2197952270508 L -147.6598968505859 125.9133834838867 L -151.2237548828125 122.0347442626953 L -155.43017578125 117.4568481445312 L -152.0326995849609 112.2502136230469 L -142.9399719238281 98.31552886962891 L -139.5427093505859 93.10910797119141 L -133.6584930419922 95.11531829833984 L -129.0513153076172 96.68612670898438 L -132.3369140625 93.13211059570312 L -136.5703430175781 88.55284881591797 L -133.1626586914062 83.32994842529297 L -122.0773391723633 66.33974456787109 L -116.3629150390625 57.58142471313477 L -109.4049682617188 65.38848114013672 L -65.64338684082031 114.4906921386719 L -61.5715446472168 119.0594787597656 L -64.91570281982422 124.1848983764648 L -75.93891143798828 141.0796813964844 L -79.34691619873047 146.3030090332031 L -85.24381256103516 144.2722625732422 L -90.51255798339844 142.4578247070312 L -86.72965240478516 146.5493774414062 L -82.49549102783203 151.1289520263672 L -85.90396881103516 156.3522186279297 L -96.92807006835938 173.2461090087891 L -100.2666549682617 178.3622741699219 Z M 152.9915618896484 151.4072113037109 L 152.9909820556641 143.4072113037109 L 152.9915618896484 151.4072113037109 C 140.7113952636719 151.4081115722656 129.1487731933594 145.8921051025391 120.4335556030273 135.8753204345703 C 112.8252410888672 127.1316909790039 108.984504699707 116.1546325683594 109.6190872192383 104.9665298461914 C 109.7120590209961 103.3274688720703 109.8991546630859 101.708381652832 110.1772384643555 100.1164779663086 C 104.9542999267578 104.3148193359375 98.20182037353516 106.6953811645508 90.82529449462891 106.6956329345703 L 90.82534790039062 106.6956329345703 C 90.82529449462891 106.6956329345703 90.82529449462891 106.6956329345703 90.82529449462891 106.6956329345703 C 86.02708435058594 106.6958465576172 81.32614135742188 105.6816864013672 76.85303497314453 103.6813201904297 C 69.99789428710938 100.6161346435547 64.68363189697266 95.76687622070312 61.3048095703125 90.05352783203125 L 55.08955764770508 90.22110748291016 L 36.0626106262207 90.73410797119141 L 28.06545448303223 90.94973754882812 L 28.04681777954102 90.25839996337891 C 24.10514831542969 91.99247741699219 19.627197265625 92.88736724853516 14.46134853363037 93.02642822265625 L 14.35376930236816 93.02931976318359 L 13.41008567810059 93.04063415527344 L 13.41008567810059 93.04063415527344 L 13.40971660614014 93.04063415527344 C 4.686108112335205 93.04106903076172 -3.232689380645752 90.08025360107422 -9.565864562988281 84.98368072509766 C -13.34503841400146 93.26934814453125 -19.74337959289551 100.0653533935547 -27.98628234863281 104.4374771118164 C -33.99354553222656 107.6237945556641 -40.74712371826172 109.3081588745117 -47.51686096191406 109.3084259033203 L -47.51680755615234 109.3084259033203 C -47.51686096191406 109.3084259033203 -47.51686096191406 109.3084259033203 -47.51686096191406 109.3084259033203 C -63.01638793945312 109.3091125488281 -77.15402221679688 100.8080062866211 -84.41254425048828 87.12268829345703 C -95.16606903076172 66.84757995605469 -87.37486267089844 41.57979202270508 -67.04465484619141 30.79652976989746 C -61.02386093139648 27.60310935974121 -54.24412536621094 25.91521453857422 -47.43828201293945 25.91521453857422 C -42.86775588989258 25.91521453857422 -38.35580825805664 26.65410995483398 -34.02775573730469 28.11132049560547 L -26.68096733093262 30.58489990234375 L -28.9221248626709 38.00589752197266 L -34.1178092956543 55.21031951904297 L -36.35006713867188 62.60206604003906 L -30.05944061279297 64.56321716308594 L -22.10222053527832 67.0439453125 C -23.67557525634766 62.61909866333008 -24.59193992614746 57.78644943237305 -24.72991561889648 52.67505645751953 C -25.02886199951172 41.59126663208008 -21.59259796142578 31.17595100402832 -15.05407238006592 23.34763526916504 C -8.189651489257812 15.1291618347168 1.498980045318604 10.44389915466309 12.22713756561279 10.15500450134277 L 12.3348217010498 10.15211009979248 L 13.24798011779785 10.14121532440186 C 17.73702049255371 10.14121532440186 22.04695701599121 10.97500896453857 25.94974517822266 12.51834964752197 L 25.92213821411133 11.49600410461426 L 33.919189453125 11.28000450134277 L 52.9451904296875 10.76610946655273 L 60.94245529174805 10.55010986328125 L 61.15829467773438 18.54737281799316 L 62.21312713623047 57.6312141418457 L 62.8629264831543 56.17795181274414 L 68.91523742675781 58.88420104980469 C 67.48693084716797 53.31111145019531 68.09517669677734 47.54817581176758 70.74497985839844 41.62263488769531 C 75.30113983154297 31.43511009216309 85.36898040771484 25.106689453125 97.01961517333984 25.106689453125 C 101.7991409301758 25.106689453125 106.5752410888672 26.15868949890137 111.2151412963867 28.23337364196777 C 118.7497711181641 31.60242462158203 124.6643447875977 37.45495223999023 127.8693466186523 44.71289825439453 C 131.2206573486328 52.30226898193359 131.2454071044922 60.55363464355469 127.9390335083008 67.94711303710938 L 124.6541900634766 75.29248046875 L 120.6183013916016 73.45954132080078 C 120.9268341064453 75.13923645019531 121.0607147216797 76.92031097412109 120.9731292724609 78.8050537109375 C 121.8600769042969 77.87859344482422 122.7947998046875 76.98709869384766 123.7756118774414 76.13374328613281 C 131.1778717041016 69.6934814453125 140.6108703613281 66.14674377441406 150.3370361328125 66.14674377441406 C 162.6123504638672 66.14674377441406 174.5082397460938 71.72769165039062 182.9745025634766 81.45853424072266 C 198.7559814453125 99.59563446044922 196.9481964111328 126.1330032348633 178.8586120605469 141.8730621337891 C 178.7559967041016 141.9623413085938 178.6460418701172 142.0567016601562 178.5300140380859 142.1551361083984 L 179.4507751464844 143.2133178710938 L 173.8699035644531 145.7963562011719 L 168.4379272460938 149.7228393554688 L 167.5115509033203 148.6581726074219 C 162.8569793701172 150.4830932617188 157.9836578369141 151.4068603515625 152.9915618896484 151.4072113037109 Z M -46.80344009399414 59.92758178710938 C -48.03465270996094 59.92758178710938 -49.42949295043945 60.33626937866211 -50.9492301940918 61.14226913452148 C -54.13917922973633 62.83416366577148 -54.96601867675781 66.65773773193359 -52.95980834960938 70.44037628173828 C -51.5178108215332 73.159423828125 -49.20444107055664 74.78258514404297 -46.77133560180664 74.78258514404297 C -45.85012435913086 74.78258514404297 -44.94522857666016 74.55032348632812 -44.08175659179688 74.09221649169922 C -41.24839019775391 72.59005737304688 -40.47301864624023 71.10600280761719 -40.08802032470703 69.85221862792969 L -37.98603057861328 63.00722503662109 L -44.72581100463867 60.33390045166016 C -45.41512680053711 60.06047821044922 -46.09470367431641 59.92758178710938 -46.80344009399414 59.92758178710938 Z M 18.00187492370605 36.25053024291992 L 17.70692825317383 44.25453186035156 C 15.97529602050781 44.30131912231445 11.91834831237793 44.41100311279297 12.11461162567139 51.68079376220703 C 12.30255889892578 58.68474197387695 16.3056640625 58.68500518798828 17.81266403198242 58.68510818481445 C 19.63940048217773 58.63942718505859 24.34008598327637 58.51200485229492 24.14729499816895 51.35616302490234 C 23.95619010925293 44.25100326538086 19.47408485412598 44.25063705444336 18.00124359130859 44.25053024291992 L 18.00187492370605 36.25053024291992 Z" stroke="none"/>
    <path d="M -86.89286041259766 378.6036987304688 C -80.9564208984375 378.6035766601562 -75.41117095947266 376.1480712890625 -71.56798553466797 371.5344543457031 C -63.69116973876953 362.0753784179688 -66.91860961914062 352.4165649414062 -73.78017425537109 342.8451232910156 C -75.99961090087891 339.8103332519531 -78.85979461669922 336.8340148925781 -77.03729248046875 334.6452026367188 C -75.5054931640625 332.8056335449219 -73.88547515869141 332.8200378417969 -71.4329833984375 334.8621215820312 C -69.50611114501953 336.4677124023438 -68.23616790771484 338.8598937988281 -69.89942169189453 341.0343322753906 L -54.92341995239258 353.5074462890625 C -47.11861038208008 344.1365661621094 -49.38479614257812 329.9382019042969 -59.63129806518555 321.4044494628906 C -69.79141998291016 312.9435424804688 -84.2373046875 313.3710327148438 -91.96829986572266 322.653564453125 C -101.8881072998047 334.564208984375 -94.589111328125 344.5002136230469 -89.96129608154297 350.8758239746094 C -87.64017486572266 354.1437072753906 -84.94017028808594 357.1343994140625 -86.690673828125 359.23681640625 C -87.85709381103516 360.6381530761719 -89.65261077880859 360.4778747558594 -91.57860565185547 358.8731994628906 C -93.06716918945312 357.6330261230469 -94.05992126464844 355.6196899414062 -92.31029510498047 353.5181884765625 L -107.2124862670898 340.9578247070312 C -114.9444198608398 350.2413330078125 -112.7807998657227 364.2056884765625 -102.8844223022461 372.4478759765625 C -97.87067413330078 376.6235656738281 -92.22410583496094 378.603759765625 -86.89286041259766 378.6036987304688 M -157.0779266357422 338.6376342773438 L -83.68829345703125 303.4755249023438 L -92.06098175048828 286.0020141601562 L -132.8669891357422 305.5527038574219 L -141.4853515625 287.5653381347656 L -100.6794204711914 268.0146484375 L -109.0511703491211 250.5411376953125 L -166.3029174804688 277.9713134765625 L -149.3126678466797 313.4321899414062 L -165.4496765136719 321.1640625 L -157.0779266357422 338.6376342773438 M -141.3063812255859 245.8816375732422 C -141.3047637939453 245.8816375732422 -141.3031005859375 245.8816375732422 -141.3014831542969 245.8816375732422 C -123.5194244384766 245.8804473876953 -108.6036682128906 231.5545806884766 -107.9109191894531 213.4206390380859 C -107.2026062011719 194.8563232421875 -121.656608581543 179.1360168457031 -139.9931640625 178.4358215332031 C -158.6712951660156 177.7237091064453 -173.9403076171875 192.309326171875 -174.6494903564453 210.8726959228516 C -175.3578033447266 229.4361419677734 -161.2449188232422 245.1438293457031 -142.5671691894531 245.8575134277344 C -142.1446838378906 245.8736419677734 -141.7258148193359 245.8816375732422 -141.3063812255859 245.8816375732422 M -141.6298522949219 197.8936309814453 C -141.3367919921875 197.8936309814453 -141.0385437011719 197.8993225097656 -140.7366027832031 197.910888671875 C -130.9419250488281 198.2843933105469 -125.9469223022461 204.8625183105469 -126.2474822998047 212.7203826904297 C -126.5471725463867 220.5791931152344 -132.0242614746094 226.6424255371094 -141.8192901611328 226.2681427001953 C -151.9551086425781 225.8820037841797 -156.6134796142578 219.4308166503906 -156.3128662109375 211.5728912353516 C -156.0221099853516 203.9481964111328 -151.1759796142578 197.8933258056641 -141.6298522949219 197.8936309814453 M -103.627799987793 168.8741912841797 L -92.60366821289062 151.9803161621094 L -117.9746704101562 124.5393218994141 L -82.63892364501953 136.7081909179688 L -71.61566925048828 119.8133850097656 L -115.3772964477539 70.71119689941406 L -126.4626083374023 87.70138549804688 L -101.7314834594727 114.453010559082 L -136.2401733398438 102.6873245239258 L -145.3329162597656 116.6220092773438 L -120.6639175415039 143.4698791503906 L -155.2356109619141 131.7996368408203 L -166.2587890625 148.6935119628906 L -103.627799987793 168.8741912841797 M 152.9909515380859 143.4071960449219 C 157.5533905029297 143.4068908691406 162.1138305664062 142.4221343994141 166.4226379394531 140.4278869628906 L 152.2826995849609 124.1775131225586 C 147.7549133300781 125.3978881835938 143.8910827636719 122.8671493530273 140.3748321533203 118.8261337280273 C 135.4373931884766 113.1516342163086 133.2773895263672 107.0235137939453 137.5055847167969 101.9853210449219 L 169.6752014160156 138.9573211669922 C 170.6948852539062 138.2201995849609 172.5758972167969 136.7351989746094 173.6073303222656 135.837890625 C 188.1387023925781 123.1938247680664 189.9567108154297 101.6703262329102 176.9391479492188 86.70963287353516 C 163.9970703125 71.83440399169922 143.0423889160156 69.97501373291016 129.0267028808594 82.16913604736328 C 114.9255142211914 94.43788909912109 113.5260162353516 115.749885559082 126.4688949584961 130.6241912841797 C 133.8167724609375 139.0694427490234 143.4121398925781 143.4078826904297 152.9909515380859 143.4071960449219 M 152.12939453125 92.71288299560547 C 152.1296081542969 92.71288299560547 152.1299438476562 92.71288299560547 152.1301422119141 92.71288299560547 C 155.4742736816406 92.713134765625 159.4950714111328 94.44132232666016 162.9585113525391 98.42219543457031 C 168.1208953857422 104.354133605957 167.7150115966797 111.3552017211914 165.5730133056641 114.2756958007812 L 147.843017578125 93.89788818359375 C 149.0125579833984 93.12847900390625 150.4891967773438 92.71288299560547 152.12939453125 92.71288299560547 M -47.51716995239258 101.3084487915039 C -42.18004608154297 101.3081970214844 -36.76735687255859 100.0393218994141 -31.73492050170898 97.37013244628906 C -23.47829627990723 92.99069976806641 -17.83710861206055 85.87082672119141 -15.2837963104248 77.54938507080078 L -32.44048309326172 72.20069885253906 C -33.52861022949219 75.74401092529297 -35.90192031860352 78.81032562255859 -40.33260726928711 81.15932464599609 C -47.27965927124023 84.84482574462891 -55.80898284912109 82.14302062988281 -60.02729797363281 74.18881988525391 C -64.19248199462891 66.33538818359375 -61.64460754394531 57.75932312011719 -54.69748306274414 54.07469940185547 C -49.86448287963867 51.51151275634766 -45.53367233276367 51.40714263916016 -41.77617263793945 52.89751052856445 L -36.58048248291016 35.69313430786133 C -45.06210708618164 32.83738708496094 -54.73710632324219 33.32432174682617 -63.29610824584961 37.86388778686523 C -79.70761108398438 46.56869888305664 -86.04991912841797 66.96182250976562 -77.34510803222656 83.37419891357422 C -71.27273559570312 94.82313537597656 -59.58523559570312 101.3089447021484 -47.51716995239258 101.3084487915039 M 90.82501983642578 98.69563293457031 C 99.45995330810547 98.69532012939453 107.4145126342773 94.24788665771484 110.9115142822266 86.42613220214844 C 117.239387512207 72.27632141113281 107.5238876342773 64.68663787841797 101.3435821533203 59.80051040649414 C 98.22508239746094 57.28138732910156 94.81682586669922 55.13313674926758 95.93283081054688 52.63651275634766 C 96.67707824707031 50.97151184082031 98.44832611083984 50.64031600952148 100.7378921508789 51.66363525390625 C 102.5063934326172 52.45469665527344 104.006706237793 54.12419891357422 102.8898315429688 56.62170028686523 L 120.6360168457031 64.68119812011719 C 125.5680160522461 53.65263748168945 119.7063293457031 40.79338455200195 107.949577331543 35.5365104675293 C 95.35951232910156 29.90701293945312 82.70101165771484 34.48439025878906 78.04801940917969 44.88838577270508 C 73.02333068847656 56.12488555908203 78.74370574951172 64.5516357421875 87.93807983398438 71.90913391113281 C 90.89639282226562 74.23020172119141 94.45589447021484 76.32182312011719 93.29220581054688 78.92282104492188 C 92.31570434570312 81.10801696777344 90.75239562988281 81.53187561035156 87.83908081054688 80.22957611083984 C 85.54951477050781 79.20538330078125 83.68020629882812 77.24613952636719 84.69182586669922 74.70182037353516 L 66.90058135986328 66.74669647216797 C 61.92270278930664 77.87969970703125 67.94551849365234 90.93513488769531 80.11888885498047 96.37832641601562 C 83.62895202636719 97.94801330566406 87.28376770019531 98.69582366943359 90.82501983642578 98.69563293457031 M 13.40970420837402 85.04063415527344 C 13.68682861328125 85.04063415527344 13.96664142608643 85.03688812255859 14.24607849121094 85.02931976318359 C 22.90501594543457 84.79619598388672 29.44889068603516 82.22488403320312 35.03157806396484 73.63800811767578 L 35.6013298034668 73.62269592285156 L 35.84701538085938 82.73701477050781 L 54.8738899230957 82.22401428222656 L 53.16120529174805 18.76319885253906 L 34.13520431518555 19.27713584899902 L 34.39982986450195 29.07538604736328 L 33.82920455932617 29.0906982421875 C 30.11670303344727 22.46313667297363 22.23989486694336 17.88755035400391 12.4425163269043 18.15213584899902 C -5.103921413421631 18.62463569641113 -17.23679542541504 33.77432250976562 -16.73279571533203 52.45919799804688 C -16.23948287963867 70.73488616943359 -3.708858728408813 85.04145050048828 13.40970420837402 85.04063415527344 M 18.00189208984375 36.25051116943359 C 26.69482803344727 36.25119781494141 31.90695381164551 42.31175994873047 32.14439010620117 51.14069747924805 C 32.38382720947266 60.02732467651367 27.31232833862305 66.43438720703125 18.31139183044434 66.67832183837891 C 9.42479419708252 66.91770935058594 4.356016159057617 60.78332138061523 4.117516040802002 51.89669799804688 C 3.874516248703003 42.89582443237305 8.604016304016113 36.49769973754883 17.49151611328125 36.25738525390625 C 17.66345405578613 36.25282287597656 17.83257865905762 36.25051116943359 18.00189208984375 36.25051116943359 M -86.89254760742188 394.6036987304688 L -86.89266967773438 394.6036987304688 C -96.1724853515625 394.6038208007812 -105.4882354736328 391.1016235351562 -113.1238555908203 384.7424011230469 C -120.9911117553711 378.1901245117188 -126.0960464477539 369.1741943359375 -127.4983596801758 359.3554382324219 C -128.3914031982422 353.1023254394531 -127.7415618896484 346.9598693847656 -125.6600341796875 341.326416015625 L -164.5939788818359 359.9803161621094 L -186.7921142578125 313.6483154296875 L -170.6553497314453 305.9165344238281 L -187.6457366943359 270.4553833007812 L -161.0748138427734 257.7247924804688 C -179.1233520507812 249.7598114013672 -191.4391784667969 231.2632751464844 -190.6378631591797 210.2626342773438 C -189.8959350585938 190.8436279296875 -178.3399047851562 174.4690246582031 -161.9149169921875 166.9032287597656 L -191.1077270507812 157.4968872070312 L -165.5268707275391 118.292236328125 L -165.5274200439453 118.291633605957 L -146.6778259277344 89.40449523925781 L -146.6780395507812 89.40425872802734 L -117.3485488891602 44.45163726806641 L -97.24056243896484 67.01347351074219 C -96.98106384277344 49.45694351196289 -87.39764404296875 32.53623199462891 -70.79329681396484 23.72913551330566 C -63.62192153930664 19.92557334899902 -55.54604721069336 17.91519927978516 -47.43835830688477 17.91519927978516 C -41.99823379516602 17.91519927978516 -36.62735748291016 18.79482269287109 -31.47498321533203 20.52957344055176 L -24.60000038146973 22.84432792663574 C -23.55861854553223 21.23454475402832 -22.4220142364502 19.68939208984375 -21.1941089630127 18.21926116943359 C -12.83692169189453 8.213510513305664 -1.044171214103699 2.50951099395752 12.01182842254639 2.15794849395752 L 13.24795341491699 2.141198396682739 C 17.01778602600098 2.141198396682739 20.6917724609375 2.623660087585449 24.18220901489258 3.540146350860596 L 68.72370147705078 2.337011098861694 L 69.44559478759766 29.08467864990234 C 76.22476196289062 21.52257347106934 86.08470916748047 17.10669898986816 97.01957702636719 17.10669898986816 C 102.9318923950195 17.10669898986816 108.806640625 18.39307403564453 114.4806442260742 20.93019866943359 C 123.827018737793 25.10926055908203 131.1808929443359 32.40782165527344 135.1875762939453 41.48126220703125 C 137.7891387939453 47.37277603149414 138.8155212402344 53.58743667602539 138.2659759521484 59.68675231933594 C 142.1848602294922 58.67152786254883 146.2391204833984 58.14676284790039 150.3370208740234 58.14676284790039 C 164.9280090332031 58.14676284790039 179.0237731933594 64.72963714599609 189.010009765625 76.20751190185547 C 206.0408630371094 95.78059387207031 205.802978515625 123.6028442382812 189.4657592773438 142.5356903076172 L 192.4790802001953 145.9987640380859 L 177.9311828613281 152.7319641113281 L 167.2010192871094 160.4886932373047 L 164.9399108886719 157.8900451660156 C 161.0496673583984 158.8984527587891 157.0546417236328 159.4069061279297 152.9920806884766 159.4071960449219 L 152.9910125732422 144.1573638916016 L 152.9920806884766 159.4071960449219 C 138.5740814208984 159.4082641601562 124.5071411132812 152.7451324462891 114.3981399536133 141.1264495849609 C 107.3830108642578 133.0644989013672 103.0812683105469 123.3719177246094 101.890380859375 113.1875457763672 C 98.38798522949219 114.1756820678711 94.67197418212891 114.6954956054688 90.82557678222656 114.6956329345703 L 90.82588958740234 114.6956329345703 C 90.82557678222656 114.6956329345703 90.82557678222656 114.6956329345703 90.82557678222656 114.6956329345703 C 84.89457702636719 114.6959457397461 79.09464263916016 113.4473266601562 73.58714294433594 110.9843215942383 C 66.7974853515625 107.9484176635742 61.2303466796875 103.4832305908203 57.12880325317383 98.16902923583984 L 27.47801399230957 98.96847534179688 C 23.56619834899902 100.2173538208008 19.3052864074707 100.8988952636719 14.67670345306396 101.0235137939453 L 13.40970420837402 101.0406341552734 C 6.079254627227783 101.0409774780273 -0.7792222499847412 99.33934783935547 -6.852920532226562 96.26319122314453 C -11.29473209381104 102.5563049316406 -17.20290184020996 107.773551940918 -24.2376708984375 111.5048828125 C -31.39529609680176 115.3012619018555 -39.44485855102539 117.3080749511719 -47.51642227172852 117.3084487915039 L -47.51648330688477 117.3084487915039 C -49.24336624145508 117.3085174560547 -50.95659255981445 117.2199554443359 -52.64973068237305 117.0460968017578 L -51.52735900878906 118.3054504394531 L -72.38768005371094 150.2771606445312 L -72.38729858398438 150.2775726318359 L -96.90541839599609 187.8503265380859 L -98.46685791015625 187.3471984863281 C -93.97574615478516 195.1829223632812 -91.55279541015625 204.3396148681641 -91.92254638671875 214.0306396484375 C -92.2327880859375 222.1516265869141 -94.43584442138672 229.7396392822266 -98.09718322753906 236.3740692138672 L -67.4896240234375 300.2547302246094 C -60.9398078918457 301.6587524414062 -54.70616912841797 304.6844177246094 -49.39248275756836 309.1094360351562 C -41.39748382568359 315.76806640625 -36.17504501342773 324.8770751953125 -34.68660736083984 334.7589416503906 C -33.0865478515625 345.3816223144531 -35.90729522705078 355.676513671875 -42.62910842895508 363.7471313476562 L -52.86873245239258 376.0413208007812 L -54.52920532226562 374.6583557128906 C -55.89643096923828 377.3238525390625 -57.54405975341797 379.697021484375 -59.27279663085938 381.7730102539062 C -66.06560516357422 389.9276428222656 -76.13204956054688 394.6034545898438 -86.89254760742188 394.6036987304688 Z" stroke="none" fill="#fff"/>
  </g>
</svg>
