<svg xmlns="http://www.w3.org/2000/svg" width="1449.498" height="741.1" viewBox="0 0 1449.498 741.1">
  <g id="Gruppe_98" data-name="Gruppe 98" transform="translate(-476.337 -732.262)">
    <path id="Rechteck_33" data-name="Rechteck 33" d="M5.78,0H84.4a5.78,5.78,0,0,1,5.78,5.78v84.4a0,0,0,0,1,0,0H0a0,0,0,0,1,0,0V5.78A5.78,5.78,0,0,1,5.78,0Z" transform="translate(1020.065 732.262)" fill="#ea640c"/>
    <path id="Rechteck_34" data-name="Rechteck 34" d="M0,0H90.183a0,0,0,0,1,0,0V502.837a5.78,5.78,0,0,1-5.78,5.78H5.78A5.78,5.78,0,0,1,0,502.837V0A0,0,0,0,1,0,0Z" transform="translate(1020.065 848.503)" fill="#494b52"/>
    <path id="Pfad_209" data-name="Pfad 209" d="M332.379,419.987A113.6,113.6,0,0,0,308.008,455.8a109.309,109.309,0,0,0-8.946,44.094V882.758a13.028,13.028,0,0,0,13.027,13.027h64.122a13.028,13.028,0,0,0,13.027-13.027V499.89a21.421,21.421,0,0,1,6.8-15.912,22.615,22.615,0,0,1,16.408-6.635A22.644,22.644,0,0,1,434.99,499.89V882.758a13.028,13.028,0,0,0,13.03,13.027h64.125a13.028,13.028,0,0,0,13.029-13.027V499.89a111.086,111.086,0,0,0-8.79-44.094,111.7,111.7,0,0,0-59.844-59.845,115.075,115.075,0,0,0-88.189,0A114.669,114.669,0,0,0,332.379,419.987Z" transform="translate(449.138 461.336)" fill="#494b52"/>
    <path id="Pfad_210" data-name="Pfad 210" d="M817.935,455.8a111.688,111.688,0,0,0-59.842-59.845,115.075,115.075,0,0,0-88.189,0A113.375,113.375,0,0,0,609.562,455.8a109.3,109.3,0,0,0-8.946,44.094V782.729a110.853,110.853,0,0,0,8.77,43.768,114.67,114.67,0,0,0,24.035,35.972,113.461,113.461,0,0,0,35.809,24.369,109.261,109.261,0,0,0,44.092,8.948h113.4V805.609h-113.4a21.419,21.419,0,0,1-15.91-6.8,22.569,22.569,0,0,1-6.606-16.081V759.857h22.865v-.016a110.893,110.893,0,0,0,43.768-8.77,113.375,113.375,0,0,0,60.342-59.845,109.294,109.294,0,0,0,8.946-44.092V499.89A111.048,111.048,0,0,0,817.935,455.8ZM736.551,647.135a21.417,21.417,0,0,1-6.8,15.91,22.615,22.615,0,0,1-16.408,6.635,22.632,22.632,0,0,1-22.538-22.46V499.9h-.014v-.007a21.427,21.427,0,0,1,6.8-15.912A22.624,22.624,0,0,1,714,477.343a22.644,22.644,0,0,1,22.545,22.548Z" transform="translate(827.245 461.336)" fill="#494b52"/>
    <path id="Pfad_211" data-name="Pfad 211" d="M697.314,455.8a111.691,111.691,0,0,0-59.842-59.845,115.075,115.075,0,0,0-88.189,0A113.374,113.374,0,0,0,488.941,455.8a109.3,109.3,0,0,0-8.946,44.094V999a13.028,13.028,0,0,0,13.027,13.03h64.127A13.029,13.029,0,0,0,570.179,999V895.8h31.629v-.444A109.187,109.187,0,0,0,636.818,887a113.375,113.375,0,0,0,60.343-59.844,109.3,109.3,0,0,0,8.945-44.092V499.89A111.049,111.049,0,0,0,697.314,455.8ZM615.93,783.063a21.416,21.416,0,0,1-6.8,15.91,22.606,22.606,0,0,1-16.408,6.635,22.644,22.644,0,0,1-22.546-22.545l-.007-283.173a21.421,21.421,0,0,1,6.8-15.912,22.614,22.614,0,0,1,16.408-6.635,22.644,22.644,0,0,1,22.546,22.548Z" transform="translate(676.003 461.336)" fill="#494b52"/>
    <path id="Pfad_212" data-name="Pfad 212" d="M327.4,541.366h64.127a13.028,13.028,0,0,0,13.027-13.027V499.89a111.048,111.048,0,0,0-8.79-44.094,111.7,111.7,0,0,0-59.844-59.845,115.075,115.075,0,0,0-88.189,0A113.375,113.375,0,0,0,187.387,455.8a109.3,109.3,0,0,0-8.946,44.094v57.548h.052a110.642,110.642,0,0,0,8.718,42.756,113.361,113.361,0,0,0,59.844,60.34,109.305,109.305,0,0,0,44.094,8.946h.7a21.42,21.42,0,0,1,15.91,6.8,22.573,22.573,0,0,1,6.606,16.084l.014,90.7a21.423,21.423,0,0,1-6.8,15.91,22.615,22.615,0,0,1-16.41,6.635,22.644,22.644,0,0,1-22.545-22.545V727.79A13.028,13.028,0,0,0,255.6,714.762H191.471a13.028,13.028,0,0,0-13.03,13.027v55.274a111.044,111.044,0,0,0,8.792,44.092A111.69,111.69,0,0,0,247.075,887a115.046,115.046,0,0,0,88.189,0,114.668,114.668,0,0,0,35.972-24.035,113.509,113.509,0,0,0,24.371-35.809,109.3,109.3,0,0,0,8.945-44.092v-90.7a110.857,110.857,0,0,0-8.77-43.77,113.385,113.385,0,0,0-59.842-60.34,109.277,109.277,0,0,0-44.094-8.946h-.7a21.43,21.43,0,0,1-15.912-6.8,22.575,22.575,0,0,1-6.606-16.081l-.014-56.536a21.421,21.421,0,0,1,6.8-15.912,22.615,22.615,0,0,1,16.408-6.635,22.64,22.64,0,0,1,22.545,22.548v28.448A13.028,13.028,0,0,0,327.4,541.366Z" transform="translate(297.896 461.336)" fill="#494b52"/>
    <path id="Rechteck_35" data-name="Rechteck 35" d="M0,0H90.183a0,0,0,0,1,0,0V78.393A4.308,4.308,0,0,1,85.875,82.7H4.308A4.308,4.308,0,0,1,0,78.393V0A0,0,0,0,1,0,0Z" transform="translate(1835.652 1002.702)" fill="#ea640c"/>
    <path id="Pfad_213" data-name="Pfad 213" d="M947.349,515.307V499.89a111.048,111.048,0,0,0-8.792-44.094,111.69,111.69,0,0,0-59.842-59.845,115.075,115.075,0,0,0-88.189,0A113.376,113.376,0,0,0,730.182,455.8a109.3,109.3,0,0,0-8.945,44.094v146.9a110.866,110.866,0,0,0,8.77,43.768,113.345,113.345,0,0,0,59.843,60.34,109.314,109.314,0,0,0,44.094,8.946h.7a21.412,21.412,0,0,1,15.91,6.8,22.874,22.874,0,0,1,0,32.165,21.412,21.412,0,0,1-15.91,6.8h-113.4v90.177h113.4a109.274,109.274,0,0,0,44.095-8.948,113.512,113.512,0,0,0,35.809-24.369A114.677,114.677,0,0,0,938.579,826.5a113.608,113.608,0,0,0,0-87.538,113.382,113.382,0,0,0-59.844-60.34,109.272,109.272,0,0,0-44.095-8.946h-.7a21.429,21.429,0,0,1-15.91-6.8,22.576,22.576,0,0,1-6.606-16.081V541.366h-.013V499.89a21.427,21.427,0,0,1,6.8-15.912,22.619,22.619,0,0,1,16.41-6.635,22.644,22.644,0,0,1,22.545,22.548v15.416Z" transform="translate(978.484 461.336)" fill="#494b52"/>
  </g>
</svg>
