<svg xmlns="http://www.w3.org/2000/svg" width="1449.497" height="741.101" viewBox="0 0 1449.497 741.101">
  <path id="Vereinigungsmenge_3" data-name="Vereinigungsmenge 3" d="M5496.688-2021.9a13.029,13.029,0,0,1-13.027-13.031v-499.106a109.318,109.318,0,0,1,8.945-44.094,113.564,113.564,0,0,1,24.372-35.81,114.633,114.633,0,0,1,35.971-24.034,110.932,110.932,0,0,1,44.095-8.784,110.959,110.959,0,0,1,44.094,8.784,112.756,112.756,0,0,1,35.81,24.034,112.751,112.751,0,0,1,24.033,35.81,111.045,111.045,0,0,1,8.793,44.094v283.174a109.31,109.31,0,0,1-8.946,44.091,113.543,113.543,0,0,1-24.372,35.809,114.677,114.677,0,0,1-35.971,24.036,109.218,109.218,0,0,1-35.012,8.356v.444h-31.628v103.2a13.029,13.029,0,0,1-13.029,13.031Zm83.949-528.047a21.415,21.415,0,0,0-6.8,15.911l.006,283.174a21.69,21.69,0,0,0,6.629,15.909,21.692,21.692,0,0,0,15.917,6.635,22.6,22.6,0,0,0,16.409-6.635,21.418,21.418,0,0,0,6.8-15.909l-.006-283.174a21.693,21.693,0,0,0-6.629-15.911,21.7,21.7,0,0,0-15.917-6.635A22.6,22.6,0,0,0,5580.636-2549.947Zm446.748,411.807v-90.177h113.4a21.417,21.417,0,0,0,15.911-6.8,22.569,22.569,0,0,0,6.607-16.082,22.571,22.571,0,0,0-6.607-16.083,21.417,21.417,0,0,0-15.911-6.8h-.7a109.32,109.32,0,0,1-44.093-8.946,113.621,113.621,0,0,1-35.811-24.368,114.763,114.763,0,0,1-24.032-35.973,110.846,110.846,0,0,1-8.769-43.768v-146.9a109.31,109.31,0,0,1,8.944-44.094,113.556,113.556,0,0,1,24.372-35.81,114.622,114.622,0,0,1,35.971-24.034,110.933,110.933,0,0,1,44.094-8.784,110.955,110.955,0,0,1,44.094,8.784,112.756,112.756,0,0,1,35.81,24.034,112.751,112.751,0,0,1,24.033,35.81,111.037,111.037,0,0,1,8.793,44.094v15.416h-90.184v-15.416a21.694,21.694,0,0,0-6.629-15.911,21.7,21.7,0,0,0-15.917-6.635,22.612,22.612,0,0,0-16.41,6.635,21.424,21.424,0,0,0-6.8,15.911v41.477h.014v105.427a22.567,22.567,0,0,0,6.606,16.082,21.426,21.426,0,0,0,15.909,6.8h.7a109.266,109.266,0,0,1,44.094,8.946,113.56,113.56,0,0,1,35.81,24.372,114.678,114.678,0,0,1,24.036,35.969,110.914,110.914,0,0,1,8.77,43.77,110.912,110.912,0,0,1-8.77,43.768,114.688,114.688,0,0,1-24.036,35.971,113.475,113.475,0,0,1-35.81,24.368,109.268,109.268,0,0,1-44.094,8.949Zm-159.155,0a109.247,109.247,0,0,1-44.091-8.949,113.425,113.425,0,0,1-35.81-24.368,114.688,114.688,0,0,1-24.036-35.971,110.861,110.861,0,0,1-8.77-43.768v-282.839a109.311,109.311,0,0,1,8.946-44.094,113.532,113.532,0,0,1,24.372-35.81,114.622,114.622,0,0,1,35.971-24.034,110.928,110.928,0,0,1,44.094-8.784,110.955,110.955,0,0,1,44.094,8.784,112.756,112.756,0,0,1,35.81,24.034,112.751,112.751,0,0,1,24.033,35.81,111.061,111.061,0,0,1,8.792,44.094v147.245a109.284,109.284,0,0,1-8.946,44.093,113.6,113.6,0,0,1-24.37,35.81,114.685,114.685,0,0,1-35.971,24.036,110.891,110.891,0,0,1-43.768,8.768v.016h-22.865v22.873a22.559,22.559,0,0,0,6.606,16.082,21.421,21.421,0,0,0,15.909,6.8h113.4v90.177ZM5852.5-2549.947a21.424,21.424,0,0,0-6.8,15.911v.008h.014v147.323a21.683,21.683,0,0,0,6.622,15.824,21.7,21.7,0,0,0,15.916,6.635,22.613,22.613,0,0,0,16.408-6.635,21.415,21.415,0,0,0,6.8-15.911l-.008-147.245a21.692,21.692,0,0,0-6.628-15.911,21.7,21.7,0,0,0-15.917-6.635A22.615,22.615,0,0,0,5852.5-2549.947ZM5224.82-2138.14a13.028,13.028,0,0,1-13.029-13.028v-382.868a21.693,21.693,0,0,0-6.629-15.911,21.7,21.7,0,0,0-15.917-6.635,22.607,22.607,0,0,0-16.407,6.635,21.415,21.415,0,0,0-6.8,15.911v382.868a13.029,13.029,0,0,1-13.028,13.028h-64.122a13.027,13.027,0,0,1-13.026-13.028v-382.868a109.323,109.323,0,0,1,8.944-44.094,113.6,113.6,0,0,1,24.372-35.81,114.681,114.681,0,0,1,35.971-24.034,110.93,110.93,0,0,1,44.094-8.784,110.947,110.947,0,0,1,44.095,8.784,112.808,112.808,0,0,1,35.81,24.034,112.808,112.808,0,0,1,24.036,35.81,111.094,111.094,0,0,1,8.79,44.094v382.868a13.029,13.029,0,0,1-13.029,13.028Zm-352.186-8.786a112.824,112.824,0,0,1-35.809-24.036,112.691,112.691,0,0,1-24.033-35.809,111.052,111.052,0,0,1-8.792-44.091v-55.273a13.028,13.028,0,0,1,13.029-13.028h64.126a13.028,13.028,0,0,1,13.028,13.028v55.273a21.685,21.685,0,0,0,6.629,15.909,21.689,21.689,0,0,0,15.916,6.635,22.617,22.617,0,0,0,16.412-6.635,21.42,21.42,0,0,0,6.794-15.909l-.013-90.7a22.576,22.576,0,0,0-6.606-16.083,21.421,21.421,0,0,0-15.911-6.8h-.7a109.3,109.3,0,0,1-44.1-8.946,113.6,113.6,0,0,1-35.808-24.368,114.67,114.67,0,0,1-24.036-35.973,110.647,110.647,0,0,1-8.718-42.754H4804v-57.549a109.319,109.319,0,0,1,8.946-44.094,113.633,113.633,0,0,1,24.37-35.81,114.634,114.634,0,0,1,35.973-24.034,110.933,110.933,0,0,1,44.094-8.784,110.959,110.959,0,0,1,44.095,8.784,112.759,112.759,0,0,1,35.809,24.034,112.771,112.771,0,0,1,24.034,35.81,111.035,111.035,0,0,1,8.791,44.094v28.449a13.028,13.028,0,0,1-13.026,13.028h-64.128a13.029,13.029,0,0,1-13.029-13.028v-28.449a21.7,21.7,0,0,0-6.626-15.911,21.7,21.7,0,0,0-15.919-6.635,22.61,22.61,0,0,0-16.408,6.635,21.419,21.419,0,0,0-6.8,15.911l.013,56.537a22.574,22.574,0,0,0,6.606,16.08,21.435,21.435,0,0,0,15.914,6.8h.7a109.274,109.274,0,0,1,44.095,8.946,113.507,113.507,0,0,1,35.808,24.37,114.652,114.652,0,0,1,24.034,35.969,110.869,110.869,0,0,1,8.77,43.77v90.7a109.277,109.277,0,0,1-8.946,44.091,113.5,113.5,0,0,1-24.37,35.809,114.661,114.661,0,0,1-35.973,24.036,110.925,110.925,0,0,1-44.094,8.786A110.966,110.966,0,0,1,4872.634-2146.926Zm480.874,8.784a5.779,5.779,0,0,1-5.78-5.78v-502.836h90.182v502.836a5.779,5.779,0,0,1-5.78,5.78Zm814.115-271.717a4.308,4.308,0,0,1-4.308-4.308v-78.393H6253.5v78.393a4.308,4.308,0,0,1-4.308,4.308Zm-819.9-262.958v-84.4a5.78,5.78,0,0,1,5.78-5.78h78.622a5.78,5.78,0,0,1,5.78,5.78v84.4Z" transform="translate(-4804 2763.001)" fill="#fff"/>
</svg>
