<svg id="Instagram" xmlns="http://www.w3.org/2000/svg" xmlns:xlink="http://www.w3.org/1999/xlink" width="32" height="32" viewBox="0 0 32 32">
  <defs>
    <clipPath id="clip-path">
      <rect id="Rechteck_7" data-name="Rechteck 7" width="32" height="32" fill="#ffffff"/>
    </clipPath>
  </defs>
  <g id="Gruppe_7" data-name="Gruppe 7" opacity="0">
    <g id="Gruppe_6" data-name="Gruppe 6" clip-path="url(#clip-path)">
      <path id="Pfad_52" data-name="Pfad 52" d="M16,2.883c4.272,0,4.778.016,6.465.093a8.852,8.852,0,0,1,2.971.551,4.958,4.958,0,0,1,1.84,1.2,4.957,4.957,0,0,1,1.2,1.84,8.853,8.853,0,0,1,.551,2.971c.077,1.687.093,2.193.093,6.465s-.016,4.778-.093,6.465a8.853,8.853,0,0,1-.551,2.971,5.3,5.3,0,0,1-3.037,3.037,8.852,8.852,0,0,1-2.971.551c-1.687.077-2.193.093-6.465.093s-4.778-.016-6.465-.093a8.853,8.853,0,0,1-2.971-.551,4.959,4.959,0,0,1-1.84-1.2,4.958,4.958,0,0,1-1.2-1.84,8.855,8.855,0,0,1-.551-2.971C2.9,20.778,2.882,20.272,2.882,16s.016-4.778.093-6.465a8.855,8.855,0,0,1,.551-2.971,4.958,4.958,0,0,1,1.2-1.84,4.959,4.959,0,0,1,1.84-1.2,8.853,8.853,0,0,1,2.971-.551C11.221,2.9,11.727,2.883,16,2.883M16,0c-4.345,0-4.89.018-6.6.1A11.745,11.745,0,0,0,5.518.84,7.843,7.843,0,0,0,2.685,2.685,7.843,7.843,0,0,0,.839,5.519,11.744,11.744,0,0,0,.1,9.4C.017,11.11,0,11.655,0,16s.018,4.89.1,6.6a11.744,11.744,0,0,0,.744,3.884,7.843,7.843,0,0,0,1.846,2.834A7.843,7.843,0,0,0,5.518,31.16,11.745,11.745,0,0,0,9.4,31.9c1.706.078,2.251.1,6.6.1s4.89-.018,6.6-.1a11.745,11.745,0,0,0,3.884-.744,8.181,8.181,0,0,0,4.679-4.679A11.744,11.744,0,0,0,31.9,22.6c.078-1.707.1-2.251.1-6.6s-.018-4.89-.1-6.6a11.744,11.744,0,0,0-.744-3.884,7.844,7.844,0,0,0-1.845-2.834A7.844,7.844,0,0,0,26.48.84,11.745,11.745,0,0,0,22.6.1C20.889.018,20.344,0,16,0" transform="translate(0.001 0)" fill="#ffffff"/>
      <path id="Pfad_53" data-name="Pfad 53" d="M130.771,122.556a8.216,8.216,0,1,0,8.216,8.216,8.216,8.216,0,0,0-8.216-8.216m0,13.55a5.333,5.333,0,1,1,5.333-5.333,5.333,5.333,0,0,1-5.333,5.333" transform="translate(-114.771 -114.772)" fill="#ffffff"/>
      <path id="Pfad_54" data-name="Pfad 54" d="M360.006,89.135a1.92,1.92,0,1,1-1.92-1.92,1.92,1.92,0,0,1,1.92,1.92" transform="translate(-333.545 -81.676)" fill="#ffffff"/>
    </g>
  </g>
  <g id="Gruppe_8" data-name="Gruppe 8">
    <g id="Gruppe_6-2" data-name="Gruppe 6" clip-path="url(#clip-path)">
      <path id="Pfad_52-2" data-name="Pfad 52" d="M16,2.883c4.272,0,4.778.016,6.465.093a8.852,8.852,0,0,1,2.971.551,4.958,4.958,0,0,1,1.84,1.2,4.957,4.957,0,0,1,1.2,1.84,8.853,8.853,0,0,1,.551,2.971c.077,1.687.093,2.193.093,6.465s-.016,4.778-.093,6.465a8.853,8.853,0,0,1-.551,2.971,5.3,5.3,0,0,1-3.037,3.037,8.852,8.852,0,0,1-2.971.551c-1.687.077-2.193.093-6.465.093s-4.778-.016-6.465-.093a8.853,8.853,0,0,1-2.971-.551,4.959,4.959,0,0,1-1.84-1.2,4.958,4.958,0,0,1-1.2-1.84,8.855,8.855,0,0,1-.551-2.971C2.9,20.778,2.882,20.272,2.882,16s.016-4.778.093-6.465a8.855,8.855,0,0,1,.551-2.971,4.958,4.958,0,0,1,1.2-1.84,4.959,4.959,0,0,1,1.84-1.2,8.853,8.853,0,0,1,2.971-.551C11.221,2.9,11.727,2.883,16,2.883M16,0c-4.345,0-4.89.018-6.6.1A11.745,11.745,0,0,0,5.518.84,7.843,7.843,0,0,0,2.685,2.685,7.843,7.843,0,0,0,.839,5.519,11.744,11.744,0,0,0,.1,9.4C.017,11.11,0,11.655,0,16s.018,4.89.1,6.6a11.744,11.744,0,0,0,.744,3.884,7.843,7.843,0,0,0,1.846,2.834A7.843,7.843,0,0,0,5.518,31.16,11.745,11.745,0,0,0,9.4,31.9c1.706.078,2.251.1,6.6.1s4.89-.018,6.6-.1a11.745,11.745,0,0,0,3.884-.744,8.181,8.181,0,0,0,4.679-4.679A11.744,11.744,0,0,0,31.9,22.6c.078-1.707.1-2.251.1-6.6s-.018-4.89-.1-6.6a11.744,11.744,0,0,0-.744-3.884,7.844,7.844,0,0,0-1.845-2.834A7.844,7.844,0,0,0,26.48.84,11.745,11.745,0,0,0,22.6.1C20.889.018,20.344,0,16,0" transform="translate(0.001 0)" fill="#ffffff"/>
      <path id="Pfad_53-2" data-name="Pfad 53" d="M130.771,122.556a8.216,8.216,0,1,0,8.216,8.216,8.216,8.216,0,0,0-8.216-8.216m0,13.55a5.333,5.333,0,1,1,5.333-5.333,5.333,5.333,0,0,1-5.333,5.333" transform="translate(-114.771 -114.772)" fill="#ffffff"/>
      <path id="Pfad_54-2" data-name="Pfad 54" d="M360.006,89.135a1.92,1.92,0,1,1-1.92-1.92,1.92,1.92,0,0,1,1.92,1.92" transform="translate(-333.545 -81.676)" fill="#ffffff"/>
    </g>
  </g>
</svg>
