<svg xmlns="http://www.w3.org/2000/svg" xmlns:xlink="http://www.w3.org/1999/xlink" width="367.517" height="78.407" viewBox="0 0 367.517 78.407">
  <defs>
    <linearGradient id="linear-gradient" y1="0.5" x2="1" y2="0.5" gradientUnits="objectBoundingBox">
      <stop offset="0" stop-color="#f7164e"/>
      <stop offset="1" stop-color="#f83a5a"/>
    </linearGradient>
  </defs>
  <g id="Gruppe_148" data-name="Gruppe 148" transform="translate(-117.374 -1663.007)">
    <path id="Pfad_260" data-name="Pfad 260" d="M664.72,1745.828a4.381,4.381,0,0,0-1.567-1.234,5.365,5.365,0,0,0-2.358-.472,5.144,5.144,0,0,0-3.827,1.4,7.3,7.3,0,0,0-1.831,4.035h10.706a7.594,7.594,0,0,0-.264-2A4.854,4.854,0,0,0,664.72,1745.828Z" transform="translate(-295.417 -44.56)" fill="url(#linear-gradient)"/>
    <path id="Pfad_261" data-name="Pfad 261" d="M384.433,1745.107a5.016,5.016,0,0,0-4.466,2.08q-1.414,2.08-1.415,6.352t1.415,6.365a5,5,0,0,0,4.466,2.094,4.882,4.882,0,0,0,4.368-2.094q1.4-2.094,1.4-6.365t-1.4-6.352A4.894,4.894,0,0,0,384.433,1745.107Z" transform="translate(-143.477 -45.101)" fill="url(#linear-gradient)"/>
    <path id="Pfad_262" data-name="Pfad 262" d="M156.563,1663.007a7.81,7.81,0,0,0-5.493,2.286l-31.19,30.832a8.641,8.641,0,0,0,0,12.171l31.19,30.832a7.81,7.81,0,0,0,5.493,2.286h5.453l38.163-78.407Z" transform="translate(0 0)" fill="url(#linear-gradient)"/>
    <path id="Pfad_263" data-name="Pfad 263" d="M547.721,1696.125l-31.19-30.832a7.811,7.811,0,0,0-5.493-2.286H274.471l-38.163,78.407H511.037a7.811,7.811,0,0,0,5.493-2.286l31.19-30.832A8.641,8.641,0,0,0,547.721,1696.125ZM287.57,1715.455a10.974,10.974,0,0,1-2.926,3.869,13.868,13.868,0,0,1-4.757,2.579,20.667,20.667,0,0,1-6.462.929H258.5l3.442-7.072h11.312a8.272,8.272,0,0,0,3.037-.472,4.8,4.8,0,0,0,1.844-1.22,4.1,4.1,0,0,0,.916-1.692,7.467,7.467,0,0,0,.25-1.913,6.4,6.4,0,0,0-.291-2,3.306,3.306,0,0,0-1-1.5,4.889,4.889,0,0,0-1.872-.943,10.941,10.941,0,0,0-2.94-.333h-6.357l3.051-6.268h1.64a16.115,16.115,0,0,0,2.8-.222,5.827,5.827,0,0,0,2.122-.777,3.562,3.562,0,0,0,1.331-1.526,5.72,5.72,0,0,0,.458-2.441,6.872,6.872,0,0,0-.361-2.4,3.432,3.432,0,0,0-1.109-1.539,4.654,4.654,0,0,0-1.9-.832c-.07-.015-.157-.02-.228-.034l3.285-6.75c.463.088.915.182,1.339.294a13.587,13.587,0,0,1,4.8,2.191,8.309,8.309,0,0,1,2.7,3.439,11.624,11.624,0,0,1,.846,4.521,8.866,8.866,0,0,1-.388,2.621,7.551,7.551,0,0,1-1.22,2.357,9.494,9.494,0,0,1-2.136,2.011,13.394,13.394,0,0,1-3.134,1.581,11.187,11.187,0,0,1,5.908,3.135,8.141,8.141,0,0,1,1.913,5.6A11.553,11.553,0,0,1,287.57,1715.455Zm32.3-.874a13.327,13.327,0,0,1-3,4.687,13.146,13.146,0,0,1-4.618,2.968,16.422,16.422,0,0,1-5.964,1.04,16.608,16.608,0,0,1-6-1.04,13.4,13.4,0,0,1-4.66-2.968,13.135,13.135,0,0,1-3.023-4.687,17.048,17.048,0,0,1-1.068-6.2,16.748,16.748,0,0,1,1.068-6.143,13.056,13.056,0,0,1,3.023-4.646,13.345,13.345,0,0,1,4.66-2.94,16.81,16.81,0,0,1,6-1.026,16.621,16.621,0,0,1,5.964,1.026,13.091,13.091,0,0,1,4.618,2.94,13.246,13.246,0,0,1,3,4.646,16.756,16.756,0,0,1,1.069,6.143A17.056,17.056,0,0,1,319.868,1714.581Zm31.466,8.251h-8.6v-18.278a5.032,5.032,0,0,0-.971-3.287,3.487,3.487,0,0,0-2.857-1.179,6.014,6.014,0,0,0-2.649.6,10.707,10.707,0,0,0-2.4,1.623v20.524h-8.6v-28.761h5.325a2.022,2.022,0,0,1,2.108,1.441l.5,1.665a20.968,20.968,0,0,1,1.72-1.443,10.023,10.023,0,0,1,1.9-1.123,11.32,11.32,0,0,1,2.192-.722,11.745,11.745,0,0,1,2.566-.263,10.069,10.069,0,0,1,4.174.818,8.668,8.668,0,0,1,3.065,2.274,9.82,9.82,0,0,1,1.886,3.468,14.387,14.387,0,0,1,.638,4.368Zm14.339,0h-8.6v-28.761h8.6Zm.472-34.711a5.064,5.064,0,0,1-1.137,1.581,5.558,5.558,0,0,1-1.678,1.081,5.194,5.194,0,0,1-2.039.4,4.83,4.83,0,0,1-1.969-.4,5.536,5.536,0,0,1-1.622-1.081,4.982,4.982,0,0,1-1.109-1.581,4.674,4.674,0,0,1-.4-1.928,4.841,4.841,0,0,1,.4-1.969,5.111,5.111,0,0,1,1.109-1.608,5.212,5.212,0,0,1,1.622-1.082,4.992,4.992,0,0,1,1.969-.388,5.37,5.37,0,0,1,2.039.388,5.21,5.21,0,0,1,2.815,2.69,4.706,4.706,0,0,1,.416,1.969A4.544,4.544,0,0,1,366.145,1688.121Zm25.156,29.3a8.357,8.357,0,0,1-2.316,3.106,10.946,10.946,0,0,1-3.8,2.025,17.125,17.125,0,0,1-5.2.721,15.868,15.868,0,0,1-2.94-.277,20.278,20.278,0,0,1-2.843-.749,15.509,15.509,0,0,1-2.538-1.124,10.976,10.976,0,0,1-2-1.4l2-3.162a2.554,2.554,0,0,1,.846-.874,2.46,2.46,0,0,1,1.318-.319,2.709,2.709,0,0,1,1.345.333l1.29.721a10.668,10.668,0,0,0,1.623.721,7.027,7.027,0,0,0,2.344.333,5.941,5.941,0,0,0,1.691-.208,2.976,2.976,0,0,0,1.11-.569,2.229,2.229,0,0,0,.8-1.72,1.87,1.87,0,0,0-.582-1.414,5.09,5.09,0,0,0-1.525-.957,18.663,18.663,0,0,0-2.15-.749q-1.207-.347-2.454-.791a19.609,19.609,0,0,1-2.455-1.068,8.44,8.44,0,0,1-2.149-1.581,7.334,7.334,0,0,1-1.525-2.343,9.4,9.4,0,0,1,.125-6.837,8.086,8.086,0,0,1,2.122-2.9,10.407,10.407,0,0,1,3.55-1.983,15.351,15.351,0,0,1,4.993-.735,16.082,16.082,0,0,1,3.009.277,15.456,15.456,0,0,1,2.732.777,13.073,13.073,0,0,1,2.329,1.179,11.222,11.222,0,0,1,1.859,1.483l-1.942,3.023a2.219,2.219,0,0,1-.708.749,1.849,1.849,0,0,1-.956.222,3.053,3.053,0,0,1-1.22-.263l-1.318-.569a14.352,14.352,0,0,0-1.594-.568,7.12,7.12,0,0,0-2.025-.264,4.281,4.281,0,0,0-2.51.624,2.011,2.011,0,0,0-.874,1.734,1.736,1.736,0,0,0,.569,1.331,5.191,5.191,0,0,0,1.511.929,20.69,20.69,0,0,0,2.136.763q1.192.361,2.44.8a21.81,21.81,0,0,1,2.441,1.04,9.133,9.133,0,0,1,2.135,1.47,6.564,6.564,0,0,1,1.512,2.121,7.189,7.189,0,0,1,.568,3A9.856,9.856,0,0,1,391.3,1717.424Zm18.029,5.408h-9.375v-32.978H388.583v-7.433H420.7v7.433H409.33Zm34.059-14.45a2.5,2.5,0,0,1-.305.971,1.162,1.162,0,0,1-.6.5,2.77,2.77,0,0,1-.956.139H424.945a8.108,8.108,0,0,0,2.191,5.228,6.516,6.516,0,0,0,4.576,1.623,8.188,8.188,0,0,0,2.58-.361,13.011,13.011,0,0,0,1.928-.8q.846-.443,1.553-.8a3.231,3.231,0,0,1,1.484-.36,1.778,1.778,0,0,1,1.553.749l2.5,3.078a12.78,12.78,0,0,1-2.871,2.482,14.882,14.882,0,0,1-3.162,1.5,17.148,17.148,0,0,1-3.245.749,24.355,24.355,0,0,1-3.092.208,16.166,16.166,0,0,1-5.672-.985,13.015,13.015,0,0,1-4.632-2.926,13.792,13.792,0,0,1-3.134-4.826,18.023,18.023,0,0,1-1.151-6.713,15.2,15.2,0,0,1,.985-5.464,13.27,13.27,0,0,1,7.295-7.6,15.921,15.921,0,0,1,11.15-.25,11.371,11.371,0,0,1,4.077,2.579,11.774,11.774,0,0,1,2.663,4.147,15.22,15.22,0,0,1,.956,5.561A12.149,12.149,0,0,1,443.389,1708.382Zm25.211,12.439a14.024,14.024,0,0,1-3.009,1.5,15.553,15.553,0,0,1-3.092.749,22.777,22.777,0,0,1-3.024.208,12.965,12.965,0,0,1-5.034-1,12.317,12.317,0,0,1-4.216-2.9,13.867,13.867,0,0,1-2.885-4.674,17.489,17.489,0,0,1-1.068-6.323,17.763,17.763,0,0,1,.929-5.811,13.2,13.2,0,0,1,2.746-4.687,12.761,12.761,0,0,1,4.493-3.12,15.755,15.755,0,0,1,6.2-1.137,15.1,15.1,0,0,1,5.935,1.082,14.246,14.246,0,0,1,4.605,3.162l-2.275,3.022a4.74,4.74,0,0,1-.749.749,1.65,1.65,0,0,1-1.026.277,2.207,2.207,0,0,1-1.152-.3q-.513-.306-1.151-.68a8.763,8.763,0,0,0-1.5-.679,6.448,6.448,0,0,0-2.136-.305,5.981,5.981,0,0,0-2.731.582,5.066,5.066,0,0,0-1.9,1.664,7.6,7.6,0,0,0-1.109,2.649,15.809,15.809,0,0,0-.361,3.536,10.767,10.767,0,0,0,1.6,6.351,5.115,5.115,0,0,0,4.4,2.219,6.142,6.142,0,0,0,2.371-.374,7.165,7.165,0,0,0,1.484-.832q.61-.457,1.124-.846a2.073,2.073,0,0,1,1.29-.388,1.778,1.778,0,0,1,1.553.749l2.5,3.078A13.572,13.572,0,0,1,468.6,1720.822Zm32.229,2.011h-8.6v-18.278a5.027,5.027,0,0,0-.971-3.287,3.488,3.488,0,0,0-2.857-1.179,6.015,6.015,0,0,0-2.649.6,10.688,10.688,0,0,0-2.4,1.623v20.524h-8.6v-41.52h8.6v15.282a14,14,0,0,1,3.37-2.149,10.511,10.511,0,0,1,4.341-.818,10.078,10.078,0,0,1,4.175.818,8.681,8.681,0,0,1,3.065,2.274,9.823,9.823,0,0,1,1.885,3.468,14.385,14.385,0,0,1,.638,4.368Z" transform="translate(-65.336 0)" fill="url(#linear-gradient)"/>
  </g>
</svg>
