<svg xmlns="http://www.w3.org/2000/svg" width="941.501" height="247.051" viewBox="0 0 941.501 247.051">
  <g id="Gruppe_3" data-name="Gruppe 3" transform="translate(-327.635 -481.604)">
    <path id="Vereinigungsmenge_1" data-name="Vereinigungsmenge 1" d="M165.694,127.269a26.575,26.575,0,0,1-26.575-26.575V17.164a5.315,5.315,0,0,1,5.315-5.315h5.4V0h5.917a5.315,5.315,0,0,1,5.315,5.315v94.7a5.316,5.316,0,0,0,5.315,5.316h94.7a5.315,5.315,0,0,1,5.316,5.314v5.917H254.539v5.4a5.315,5.315,0,0,1-5.316,5.315Zm-148.529,0a5.315,5.315,0,0,1-5.316-5.314v-5.4H0v-5.917a5.315,5.315,0,0,1,5.315-5.314h94.7a5.316,5.316,0,0,0,5.315-5.315V5.316A5.315,5.315,0,0,1,110.642,0h5.917V11.85h5.4a5.315,5.315,0,0,1,5.315,5.315v83.53a26.575,26.575,0,0,1-26.576,26.575Z" transform="translate(663.962 481.604)" fill="#f4f4f4"/>
    <path id="Vereinigungsmenge_2" data-name="Vereinigungsmenge 2" d="M166.419,50.794V40.23c5.934.652,13.531,1.23,18.813,1.23a59.1,59.1,0,0,0,10.274-.723c2.605-.579,3.184-1.954,3.184-4.052,0-2.243-.868-3.4-3.328-4.124-2.822-.724-7.019-1.3-10.781-1.954-12.735-2.1-18.307-5.571-18.307-14.906,0-5.789,2.1-10.491,7.815-13.241C178.43.362,184.364,0,189.574,0c6,0,12.011.362,18.45.8V11.071a180.562,180.562,0,0,0-18.668-1.159,44.613,44.613,0,0,0-7.814.579c-2.388.58-3.112,1.809-3.112,3.763,0,2.1.868,3.257,3.257,3.835,2.749.724,6.728,1.23,10.274,1.809,12.735,1.953,19.175,5.282,19.175,15.34,0,6.005-2.17,10.781-7.886,13.6-4.414,2.17-10.781,2.75-16.353,2.75C180.167,51.59,173.654,51.228,166.419,50.794ZM760.9,46.453c-6.8-4.486-9.117-11.867-9.117-20.694,0-8.755,2.316-16.28,9.117-20.766C766.9,1.013,774.645,0,784.413,0,794.326,0,802,1.085,808,4.992c6.729,4.559,9.117,12.011,9.117,20.766,0,8.828-2.388,16.208-9.117,20.767C802,50.5,794.253,51.59,784.486,51.59,774.573,51.59,766.9,50.5,760.9,46.453Zm3.98-21.056c0,11.359,6.005,16.208,19.536,16.208,13.386,0,19.609-3.835,19.609-15.484,0-11.36-6.005-16.135-19.536-16.135C771.027,9.985,764.877,13.748,764.877,25.4Zm-35.6,25.18L716.039,33.5c-1.158.073-2.388.073-3.546.073h-8.176v17H691.511V1.013H715.6c9.7,0,16.715.434,21.491,3.979,3.617,2.677,5.281,6.513,5.281,12.011,0,5.861-1.809,9.7-5.716,12.373A16.738,16.738,0,0,1,730,32.054l14.761,18.523ZM704.318,24.529h11.5c9.624,0,13.531-1.23,13.531-7.163,0-6.44-5.21-6.874-13.675-6.874h-11.36ZM636.592,50.577,623.351,33.5c-1.158.073-2.388.073-3.545.073h-8.176v17H598.822V1.013h24.094c9.7,0,16.715.434,21.491,3.979,3.617,2.677,5.281,6.513,5.281,12.011,0,5.861-1.809,9.7-5.716,12.373a16.739,16.739,0,0,1-6.657,2.677l14.761,18.523ZM611.629,24.529h11.5c9.623,0,13.531-1.23,13.531-7.163,0-6.44-5.21-6.874-13.675-6.874h-11.36ZM898.521,50.577V1.013h41.75v9.84H911.328v9.624H938.1v9.551H911.328V40.663H941.5v9.913Zm-29.014,0v-20.4h-29.16v20.4H827.541V1.013h12.806V20.331h29.16V1.013h12.807V50.577Zm-327.414,0V1.013h41.751v9.84H554.9v9.624h26.772v9.551H554.9V40.663h30.173v9.913Zm-68.81,0V1.013H497.6c9.768,0,17.51,1.085,23.516,4.847,6.874,4.269,9.045,11.432,9.045,19.826,0,8.465-2.243,15.629-9.045,19.97-6.005,3.835-13.748,4.92-23.516,4.92Zm12.807-9.768h11.5c14.037,0,19.537-3.69,19.537-14.977,0-10.854-5.355-15.051-19.537-15.051h-11.5Zm-69.679,9.768-28.943-33.79h-.218v33.79H375.53V1.013h14.905l27.929,33.718h.29V1.013H430.3V50.577Zm-62.808,0L348.249,39.8H320.826l-5.21,10.781H301.8L327.265,1.013h15.267L368,50.577ZM325.24,30.389h18.523l-9.117-18.6h-.29ZM268.008,50.577,243.189,1.013h14.4l17.727,37.842h.362L293.333,1.013H307.08L282.334,50.577Zm-154.771,0V1.013h41.749v9.84H126.044v9.624h26.772v9.551H126.044V40.663h30.173v9.913Zm-29.014,0V1.013H97.029V50.577Zm-29.014,0V14.616h-.289L40.158,50.577H26.266L11.432,14.616h-.29v35.96H0V1.013H18.378L33.791,39h.289L49.709,1.013H68.015V50.577Z" transform="translate(327.635 677.064)" fill="#f4f4f4"/>
  </g>
</svg>
