<svg id="Gruppe_20" data-name="Gruppe 20" xmlns="http://www.w3.org/2000/svg" width="147.501" height="147.501" viewBox="0 0 147.501 147.501">
  <path id="Pfad_35" data-name="Pfad 35" d="M137.791,238.491a73.751,73.751,0,1,1,73.751-73.75A73.833,73.833,0,0,1,137.791,238.491Zm0-139.054a65.3,65.3,0,1,0,65.3,65.3A65.377,65.377,0,0,0,137.791,99.437Z" transform="translate(-64.041 -90.99)" fill="#fff"/>
  <path id="Pfad_36" data-name="Pfad 36" d="M131.478,187.911a10.4,10.4,0,0,1,10.4-10.395h57.066a1.91,1.91,0,0,0,1.92-1.889v-.019A52.2,52.2,0,1,0,128.831,223.9a1.925,1.925,0,0,0,2.647-1.785Z" transform="translate(-74.909 -101.857)" fill="#fff"/>
  <g id="Gruppe_15" data-name="Gruppe 15" transform="translate(64.015 85.409)">
    <path id="Pfad_37" data-name="Pfad 37" d="M179.266,240.616h-9.342L168.5,244.3a.939.939,0,0,1-.876.6h-6.35a.939.939,0,0,1-.86-1.314l9.927-22.709a.939.939,0,0,1,.86-.562h6.92a.939.939,0,0,1,.86.562l9.927,22.709a.939.939,0,0,1-.86,1.314h-6.491a.939.939,0,0,1-.876-.6Zm-2.283-5.972-2.389-6.181-2.388,6.181Z" transform="translate(-160.339 -219.753)" fill="#fff"/>
    <path id="Pfad_38" data-name="Pfad 38" d="M213.517,244.494a17.459,17.459,0,0,1-3.975-1.4.946.946,0,0,1-.441-1.224l1.916-4.335a.948.948,0,0,1,1.3-.448,17.652,17.652,0,0,0,3.041,1.155,15.388,15.388,0,0,0,4.18.614,6.474,6.474,0,0,0,2.458-.334,1.071,1.071,0,0,0,.738-1q0-.772-.967-1.159a20.8,20.8,0,0,0-3.178-.843,35.959,35.959,0,0,1-4.742-1.282,8.08,8.08,0,0,1-3.3-2.248,6.1,6.1,0,0,1-1.4-4.232,7.293,7.293,0,0,1,1.3-4.215,8.591,8.591,0,0,1,3.882-2.985,16.13,16.13,0,0,1,6.269-1.088,22.731,22.731,0,0,1,4.97.544,16.318,16.318,0,0,1,3.54,1.2.927.927,0,0,1,.432,1.192l-1.786,4.3a.946.946,0,0,1-1.27.487,14.579,14.579,0,0,0-5.957-1.4q-3.2,0-3.2,1.546,0,.738.948,1.107a20.113,20.113,0,0,0,3.126.79,32.2,32.2,0,0,1,4.742,1.212,8.258,8.258,0,0,1,3.354,2.231,5.981,5.981,0,0,1,1.423,4.215,7.213,7.213,0,0,1-1.3,4.2,8.744,8.744,0,0,1-3.881,2.985,15.9,15.9,0,0,1-6.269,1.107A25.783,25.783,0,0,1,213.517,244.494Z" transform="translate(-176.659 -219.47)" fill="#fff"/>
  </g>
</svg>
