<svg xmlns="http://www.w3.org/2000/svg" width="147.501" height="147.5" viewBox="0 0 147.501 147.5">
  <g id="Gruppe_21" data-name="Gruppe 21" transform="translate(0 0)">
    <g id="Gruppe_19" data-name="Gruppe 19" transform="translate(68.359 86.347)">
      <path id="Pfad_43" data-name="Pfad 43" d="M171.368,555.975a17.5,17.5,0,0,1-3.974-1.4.946.946,0,0,1-.441-1.224l1.916-4.335a.948.948,0,0,1,1.3-.448,17.637,17.637,0,0,0,3.042,1.155,15.359,15.359,0,0,0,4.179.615,6.478,6.478,0,0,0,2.459-.334,1.072,1.072,0,0,0,.737-1q0-.772-.966-1.159a20.878,20.878,0,0,0-3.178-.844,36.077,36.077,0,0,1-4.742-1.281,8.081,8.081,0,0,1-3.3-2.248A6.1,6.1,0,0,1,167,539.239a7.288,7.288,0,0,1,1.3-4.215,8.589,8.589,0,0,1,3.881-2.985,16.132,16.132,0,0,1,6.269-1.089,22.729,22.729,0,0,1,4.97.545,16.329,16.329,0,0,1,3.541,1.2.927.927,0,0,1,.432,1.192l-1.786,4.3a.946.946,0,0,1-1.27.487,14.57,14.57,0,0,0-5.958-1.4q-3.2,0-3.2,1.546,0,.737.948,1.107a20.184,20.184,0,0,0,3.126.79,32.2,32.2,0,0,1,4.742,1.212,8.255,8.255,0,0,1,3.354,2.23,5.984,5.984,0,0,1,1.423,4.215,7.214,7.214,0,0,1-1.3,4.2,8.75,8.75,0,0,1-3.881,2.985,15.9,15.9,0,0,1-6.269,1.107A25.787,25.787,0,0,1,171.368,555.975Z" transform="translate(-166.873 -530.95)" fill="#fff"/>
      <path id="Pfad_44" data-name="Pfad 44" d="M212.14,538.223h-6.261a.938.938,0,0,1-.939-.939v-4.55a.938.938,0,0,1,.939-.939H226.69a.938.938,0,0,1,.939.939v4.55a.938.938,0,0,1-.939.939h-6.261v17.22a.939.939,0,0,1-.939.939h-6.412a.939.939,0,0,1-.939-.939Z" transform="translate(-179.635 -531.234)" fill="#fff"/>
    </g>
    <path id="Pfad_45" data-name="Pfad 45" d="M137.791,548.558a73.75,73.75,0,1,1,73.751-73.75A73.833,73.833,0,0,1,137.791,548.558Zm0-139.053a65.3,65.3,0,1,0,65.3,65.3A65.377,65.377,0,0,0,137.791,409.505Z" transform="translate(-64.041 -401.058)" fill="#fff"/>
    <path id="Pfad_46" data-name="Pfad 46" d="M131.478,497.979a10.4,10.4,0,0,1,10.4-10.395h57.066a1.91,1.91,0,0,0,1.92-1.889v-.019a52.2,52.2,0,1,0-72.028,48.288,1.925,1.925,0,0,0,2.647-1.785Z" transform="translate(-74.909 -411.926)" fill="#fff"/>
  </g>
</svg>
