<svg xmlns="http://www.w3.org/2000/svg" width="147.501" height="147.501" viewBox="0 0 147.501 147.501">
  <g id="Gruppe_22" data-name="Gruppe 22" transform="translate(0 0)">
    <g id="Gruppe_17" data-name="Gruppe 17" transform="translate(64.015 85.971)">
      <path id="Pfad_39" data-name="Pfad 39" d="M179.266,860.752h-9.342l-1.419,3.683a.939.939,0,0,1-.876.6h-6.35a.939.939,0,0,1-.86-1.315l9.927-22.708a.939.939,0,0,1,.86-.562h6.92a.939.939,0,0,1,.86.562l9.927,22.708a.939.939,0,0,1-.86,1.315h-6.491a.939.939,0,0,1-.876-.6Zm-2.283-5.972-2.389-6.181-2.388,6.181Z" transform="translate(-160.339 -840.451)" fill="#fff"/>
      <path id="Pfad_40" data-name="Pfad 40" d="M219.238,846.7v4.215h9.317a.939.939,0,0,1,.939.939v4.375a.938.938,0,0,1-.939.939h-9.317V864.1a.939.939,0,0,1-.939.939h-6.412a.939.939,0,0,1-.939-.939V841.39a.939.939,0,0,1,.939-.939H230a.939.939,0,0,1,.939.939v4.374a.938.938,0,0,1-.939.939Z" transform="translate(-177.305 -840.451)" fill="#fff"/>
    </g>
    <path id="Pfad_41" data-name="Pfad 41" d="M137.791,858.626a73.751,73.751,0,1,1,73.751-73.75A73.833,73.833,0,0,1,137.791,858.626Zm0-139.053a65.3,65.3,0,1,0,65.3,65.3A65.377,65.377,0,0,0,137.791,719.573Z" transform="translate(-64.041 -711.125)" fill="#fff"/>
    <path id="Pfad_42" data-name="Pfad 42" d="M131.478,808.047a10.4,10.4,0,0,1,10.4-10.4h57.066a1.909,1.909,0,0,0,1.92-1.889v-.019a52.2,52.2,0,1,0-72.028,48.288,1.925,1.925,0,0,0,2.647-1.785Z" transform="translate(-74.909 -721.993)" fill="#fff"/>
  </g>
</svg>
