<svg xmlns="http://www.w3.org/2000/svg" width="415.655" height="183.719" viewBox="0 0 415.655 183.719">
  <g id="Gruppe_61" data-name="Gruppe 61" transform="translate(0 0)">
    <path id="Vereinigungsmenge_3" data-name="Vereinigungsmenge 3" d="M91.86,183.719A91.863,91.863,0,0,1,.068,88.268C1.91,39.974,41.774.924,90.1.017a91.861,91.861,0,0,1,86.739,56.95,3.387,3.387,0,0,1-3.141,4.659H113.511A18.293,18.293,0,0,0,95.218,79.919V180.34a3.36,3.36,0,0,1-3.324,3.379Zm35.481-42.327a42.1,42.1,0,0,1-10.173-3.656,1.846,1.846,0,0,1-.84-2.373l5.082-11.5a1.844,1.844,0,0,1,2.547-.867,42.942,42.942,0,0,0,7.908,3.056,37.694,37.694,0,0,0,10.256,1.508,15.9,15.9,0,0,0,6.033-.818,2.63,2.63,0,0,0,1.809-2.456q0-1.9-2.371-2.844a51.349,51.349,0,0,0-7.8-2.068,88.329,88.329,0,0,1-11.635-3.144,19.825,19.825,0,0,1-8.1-5.517q-3.448-3.834-3.447-10.384A17.889,17.889,0,0,1,119.8,89.985a21.07,21.07,0,0,1,9.524-7.325,39.573,39.573,0,0,1,15.383-2.671A55.8,55.8,0,0,1,156.9,81.324a39.674,39.674,0,0,1,9.087,3.139,1.814,1.814,0,0,1,.832,2.32L162.078,98.2a1.835,1.835,0,0,1-2.479.938A36.1,36.1,0,0,0,144.534,95.5q-7.844,0-7.842,3.792,0,1.81,2.327,2.716a49.319,49.319,0,0,0,7.67,1.939,79.116,79.116,0,0,1,11.635,2.972,20.278,20.278,0,0,1,8.23,5.474q3.49,3.792,3.489,10.341a17.7,17.7,0,0,1-3.188,10.3,21.464,21.464,0,0,1-9.523,7.324,39,39,0,0,1-15.384,2.716A63.307,63.307,0,0,1,127.341,141.391Zm247.336-.776a13.655,13.655,0,0,1-7.972-12.712q0-6.981,5.343-10.6t16.2-3.621h7.843q-.951-5.512-8.877-5.515a22.191,22.191,0,0,0-6.463.992,19.747,19.747,0,0,0-3.945,1.646,1.825,1.825,0,0,1-2.551-.783l-4.566-9.45a1.845,1.845,0,0,1,.826-2.435,36.412,36.412,0,0,1,8.211-3.026,47.3,47.3,0,0,1,11.419-1.422q12.41,0,18.959,5.559t6.55,17.107v23.507a1.829,1.829,0,0,1-1.829,1.83h-14.44a1.829,1.829,0,0,1-1.829-1.83v-4.375q-3.361,7.066-13.359,7.065A21.3,21.3,0,0,1,374.677,140.616Zm10.729-13.573a3.434,3.434,0,0,0,1.249,2.716,5.042,5.042,0,0,0,3.4,1.077,6.4,6.4,0,0,0,3.705-1.122,5.636,5.636,0,0,0,1.172-1.074,6.023,6.023,0,0,0,1.241-3.854v-1.706h-4.827Q385.406,123.079,385.407,127.043Zm-149.522,10.04q-5.43-5.472-5.43-16.5v-24.2a1.831,1.831,0,0,1,1.83-1.83H248.1a1.831,1.831,0,0,1,1.83,1.83v20.835q0,4.828,1.551,6.9a5.35,5.35,0,0,0,4.567,2.067,5.909,5.909,0,0,0,4.74-2.283q1.9-2.284,1.9-7.2V96.383a1.83,1.83,0,0,1,1.83-1.83h15.818a1.83,1.83,0,0,1,1.829,1.83v43.481a1.829,1.829,0,0,1-1.829,1.83h-14.87a1.829,1.829,0,0,1-1.829-1.83v-2.653a16.684,16.684,0,0,1-6.032,4.008,20.112,20.112,0,0,1-7.325,1.335Q241.312,142.554,235.884,137.083Zm-45.158.689q-5.344-4.783-5.343-14.349V111.358h-4.634a1.829,1.829,0,0,1-1.829-1.829V98.967a1.829,1.829,0,0,1,1.829-1.829h4.634V85.782a1.83,1.83,0,0,1,1.83-1.83H203.03a1.83,1.83,0,0,1,1.83,1.83V97.138h7.824a1.829,1.829,0,0,1,1.829,1.829v10.562a1.829,1.829,0,0,1-1.829,1.829H204.86V123.25a4.746,4.746,0,0,0,1.121,3.362,3.809,3.809,0,0,0,2.93,1.206,8.112,8.112,0,0,0,2.782-.465A1.838,1.838,0,0,1,214,128.545l3.431,9.977a1.843,1.843,0,0,1-1.03,2.3,26.952,26.952,0,0,1-10.422,1.734Q196.069,142.554,190.726,137.772Zm110.244,3.921a1.829,1.829,0,0,1-1.83-1.83V83.2a1.829,1.829,0,0,1,1.83-1.83h27.213a35.617,35.617,0,0,1,14.565,2.758,21.728,21.728,0,0,1,0,39.987,35.619,35.619,0,0,1-14.565,2.756h-8.7v12.995a1.829,1.829,0,0,1-1.83,1.83Zm18.51-30.508h7.41q4.137,0,6.2-1.853a7.6,7.6,0,0,0,0-10.428q-2.067-1.851-6.2-1.852h-7.41Z" transform="translate(0 0)" fill="#fff"/>
    <text id="Universität_Trier" data-name="Universität Trier" transform="translate(117.493 173.82)" fill="#fff" font-size="21" font-family="Montserrat-SemiBold, Montserrat" font-weight="600" letter-spacing="0.06em"><tspan x="0" y="0">Universität Trier</tspan></text>
  </g>
</svg>
