<svg xmlns="http://www.w3.org/2000/svg" width="375.754" height="183.719" viewBox="0 0 375.754 183.719">
  <g id="Gruppe_60" data-name="Gruppe 60" transform="translate(0 0)">
    <path id="Vereinigungsmenge_5" data-name="Vereinigungsmenge 5" d="M91.86,183.719A91.862,91.862,0,0,1,.068,88.268C1.909,39.974,41.774.924,90.1.017a91.86,91.86,0,0,1,86.739,56.95,3.387,3.387,0,0,1-3.141,4.659H113.51A18.294,18.294,0,0,0,95.217,79.919V180.34a3.36,3.36,0,0,1-3.323,3.379Zm175.006-43.534a13.658,13.658,0,0,1-7.972-12.713q0-6.98,5.343-10.6t16.2-3.621h7.842q-.949-5.511-8.877-5.514a22.23,22.23,0,0,0-6.463.991A19.8,19.8,0,0,0,269,110.376a1.824,1.824,0,0,1-2.551-.783l-4.566-9.449a1.846,1.846,0,0,1,.826-2.436,36.465,36.465,0,0,1,8.211-3.026,47.33,47.33,0,0,1,11.419-1.422q12.41,0,18.96,5.559t6.549,17.106v23.508a1.829,1.829,0,0,1-1.829,1.829h-14.44a1.829,1.829,0,0,1-1.83-1.829v-4.375q-3.359,7.067-13.357,7.066A21.306,21.306,0,0,1,266.866,140.185ZM277.6,126.612a3.435,3.435,0,0,0,1.25,2.716,5.035,5.035,0,0,0,3.4,1.077,6.4,6.4,0,0,0,3.705-1.122,5.606,5.606,0,0,0,1.172-1.074,6.024,6.024,0,0,0,1.242-3.854v-1.706h-4.827Q277.6,122.648,277.6,126.612Zm61.983,14.65a1.829,1.829,0,0,1-1.83-1.829V96.707H321.911a1.829,1.829,0,0,1-1.83-1.829V82.766a1.829,1.829,0,0,1,1.83-1.829h52.013a1.829,1.829,0,0,1,1.829,1.829V94.879a1.829,1.829,0,0,1-1.829,1.829H358.088v42.726a1.83,1.83,0,0,1-1.83,1.829Zm-138.318,0a1.829,1.829,0,0,1-1.83-1.829V82.766a1.829,1.829,0,0,1,1.83-1.829h45.378a1.829,1.829,0,0,1,1.829,1.829V94.447a1.829,1.829,0,0,1-1.829,1.83H219.769v10.341H243.1a1.829,1.829,0,0,1,1.83,1.83v11.681a1.83,1.83,0,0,1-1.83,1.83H219.769v17.474a1.829,1.829,0,0,1-1.83,1.829Zm-32.633,0a1.829,1.829,0,0,1-1.707-1.171l-3.6-9.342H140.4l-3.6,9.342a1.83,1.83,0,0,1-1.707,1.171H118.46a1.829,1.829,0,0,1-1.676-2.562l24.772-56.667a1.828,1.828,0,0,1,1.676-1.1h17.6a1.829,1.829,0,0,1,1.676,1.1L187.279,138.7a1.829,1.829,0,0,1-1.676,2.562ZM146,116.1h11.721l-5.86-15.166Z" transform="translate(0 0)" fill="#fff"/>
    <text id="Universität_Trier" data-name="Universität Trier" transform="translate(117.492 173.819)" fill="#fff" font-size="21" font-family="Montserrat-SemiBold, Montserrat" font-weight="600" letter-spacing="0.06em"><tspan x="0" y="0">Universität Trier</tspan></text>
  </g>
</svg>
