<svg xmlns="http://www.w3.org/2000/svg" width="521.366" height="255.115" viewBox="0 0 521.366 255.115">
  <g id="Gruppe_402" data-name="Gruppe 402" transform="translate(-415.002 -422.443)">
    <path id="Vereinigungsmenge_21" data-name="Vereinigungsmenge 21" d="M2118.558,18384.113a127.557,127.557,0,0,1-127.461-132.545c2.551-67.062,57.913-121.287,125.011-122.547a127.558,127.558,0,0,1,120.443,79.08,4.7,4.7,0,0,1-4.36,6.473h-83.57a25.4,25.4,0,0,0-25.4,25.4v139.449a4.664,4.664,0,0,1-4.614,4.691Zm158.983-60.094a58.6,58.6,0,0,1-14.128-5.076,2.568,2.568,0,0,1-1.167-3.3l7.059-15.969a2.556,2.556,0,0,1,3.539-1.2,59.827,59.827,0,0,0,10.976,4.244,52.3,52.3,0,0,0,14.243,2.094q5.862,0,8.379-1.139a3.641,3.641,0,0,0,2.51-3.41q0-2.628-3.29-3.949a71.027,71.027,0,0,0-10.829-2.869,123.211,123.211,0,0,1-16.157-4.365,27.548,27.548,0,0,1-11.249-7.664q-4.789-5.32-4.785-14.422a24.827,24.827,0,0,1,4.425-14.357q4.429-6.466,13.223-10.174t21.362-3.705a77.332,77.332,0,0,1,16.933,1.854,54.814,54.814,0,0,1,12.619,4.361,2.507,2.507,0,0,1,1.158,3.211c-1.583,3.816-4.9,11.816-6.588,15.871a2.544,2.544,0,0,1-3.442,1.3,50.13,50.13,0,0,0-20.919-5.057q-10.886,0-10.889,5.264,0,2.52,3.23,3.775a68.605,68.605,0,0,0,10.653,2.689,109.96,109.96,0,0,1,16.153,4.129,28.075,28.075,0,0,1,11.428,7.6q4.851,5.265,4.849,14.357a24.558,24.558,0,0,1-4.429,14.3q-4.429,6.4-13.223,10.174t-21.362,3.77A87.915,87.915,0,0,1,2277.541,18324.02Zm88.018-5.025q-7.426-6.645-7.419-19.928v-16.752H2351.7a2.544,2.544,0,0,1-2.542-2.543v-14.662a2.545,2.545,0,0,1,2.542-2.543h6.436v-15.77a2.536,2.536,0,0,1,2.538-2.537h21.966a2.536,2.536,0,0,1,2.538,2.537v15.77h10.865a2.545,2.545,0,0,1,2.542,2.543v14.662a2.543,2.543,0,0,1-2.542,2.543H2385.18v16.514a6.591,6.591,0,0,0,1.56,4.668,5.28,5.28,0,0,0,4.065,1.676,11.3,11.3,0,0,0,3.866-.646,2.55,2.55,0,0,1,3.207,1.656l4.761,13.852a2.556,2.556,0,0,1-1.43,3.191q-5.7,2.408-14.469,2.408Q2372.974,18325.633,2365.558,18318.994Zm120.692,5.439a2.537,2.537,0,0,1-2.367-1.623l-5-12.975h-31.831l-5,12.975a2.543,2.543,0,0,1-2.372,1.623h-23.1a2.54,2.54,0,0,1-2.325-3.557l34.4-78.689a2.533,2.533,0,0,1,2.325-1.518h24.439a2.545,2.545,0,0,1,2.33,1.518l34.4,78.689a2.538,2.538,0,0,1-2.325,3.557Zm-31.42-34.945H2471.1l-8.134-21.057Zm-231.013,34.945a2.543,2.543,0,0,1-2.372-1.623l-5-12.975h-31.831l-5,12.975a2.541,2.541,0,0,1-2.367,1.623h-23.1a2.542,2.542,0,0,1-2.33-3.557l34.4-78.689a2.543,2.543,0,0,1,2.325-1.518h24.444a2.543,2.543,0,0,1,2.325,1.518l34.4,78.689a2.536,2.536,0,0,1-2.325,3.557Zm-31.425-34.945h16.278l-8.139-21.057Z" transform="translate(-1576 -17706.555)" fill="#98cb33"/>
    <path id="Pfad_526" data-name="Pfad 526" d="M10.665.27a8.219,8.219,0,0,1-6.1-2.2,8.563,8.563,0,0,1-2.187-6.3V-18.9h3.51V-8.37q0,5.562,4.806,5.562,4.779,0,4.779-5.562V-18.9h3.456V-8.235a8.6,8.6,0,0,1-2.174,6.3A8.173,8.173,0,0,1,10.665.27ZM33.318-14.58a6.025,6.025,0,0,1,4.374,1.593,6.284,6.284,0,0,1,1.647,4.725V0H35.964V-7.83a4.048,4.048,0,0,0-.891-2.849,3.294,3.294,0,0,0-2.538-.958,3.9,3.9,0,0,0-2.943,1.121,4.466,4.466,0,0,0-1.08,3.226V0H25.137V-14.418H28.35v1.863a5.276,5.276,0,0,1,2.106-1.512A7.579,7.579,0,0,1,33.318-14.58Zm11.934.162h3.375V0H45.252Zm1.7-2.376a2.168,2.168,0,0,1-1.539-.58,1.9,1.9,0,0,1-.621-1.445,1.9,1.9,0,0,1,.621-1.444,2.168,2.168,0,0,1,1.539-.58,2.229,2.229,0,0,1,1.539.553,1.784,1.784,0,0,1,.621,1.391,2.036,2.036,0,0,1-.608,1.5A2.1,2.1,0,0,1,46.953-16.794Zm21.222,2.376L61.992,0H58.509L52.326-14.418h3.51L60.318-3.726l4.617-10.692ZM85.05-7.128q0,.351-.054,1H73.683A3.921,3.921,0,0,0,75.235-3.6a5.089,5.089,0,0,0,3.118.931,5.255,5.255,0,0,0,3.915-1.566L84.078-2.16A6.1,6.1,0,0,1,81.621-.405a8.949,8.949,0,0,1-3.348.594,8.91,8.91,0,0,1-4.185-.945,6.806,6.806,0,0,1-2.795-2.632,7.434,7.434,0,0,1-.985-3.82A7.544,7.544,0,0,1,71.266-11a6.8,6.8,0,0,1,2.66-2.633,7.76,7.76,0,0,1,3.834-.945,7.565,7.565,0,0,1,3.767.932,6.6,6.6,0,0,1,2.592,2.619A7.942,7.942,0,0,1,85.05-7.128ZM77.76-11.88a4.071,4.071,0,0,0-2.74.958A4.032,4.032,0,0,0,73.656-8.37h8.181a3.979,3.979,0,0,0-1.323-2.538A4.023,4.023,0,0,0,77.76-11.88Zm15.363-.432q1.458-2.268,5.13-2.268v3.213a4.285,4.285,0,0,0-.783-.081A4.076,4.076,0,0,0,94.392-10.3a4.576,4.576,0,0,0-1.107,3.307V0H89.91V-14.418h3.213ZM107.244.189a12.909,12.909,0,0,1-3.429-.459,8.628,8.628,0,0,1-2.673-1.161L102.438-4a8.332,8.332,0,0,0,2.336,1.039,9.7,9.7,0,0,0,2.687.391q3.024,0,3.024-1.593a1.064,1.064,0,0,0-.77-1.053,13.286,13.286,0,0,0-2.47-.567,20.043,20.043,0,0,1-2.9-.621A4.455,4.455,0,0,1,102.4-7.628a3.431,3.431,0,0,1-.824-2.444,3.841,3.841,0,0,1,1.715-3.281,7.8,7.8,0,0,1,4.631-1.229,13.363,13.363,0,0,1,2.97.338,8.327,8.327,0,0,1,2.43.9l-1.3,2.565a7.994,7.994,0,0,0-4.131-1.08,4.579,4.579,0,0,0-2.255.446,1.329,1.329,0,0,0-.77,1.175,1.173,1.173,0,0,0,.824,1.148,13.087,13.087,0,0,0,2.551.634,19.687,19.687,0,0,1,2.835.621,4.437,4.437,0,0,1,1.9,1.188,3.312,3.312,0,0,1,.8,2.376,3.76,3.76,0,0,1-1.755,3.24A8.275,8.275,0,0,1,107.244.189Zm11.07-14.607h3.375V0h-3.375Zm1.7-2.376a2.168,2.168,0,0,1-1.539-.58,1.9,1.9,0,0,1-.621-1.445,1.9,1.9,0,0,1,.621-1.444,2.168,2.168,0,0,1,1.539-.58,2.229,2.229,0,0,1,1.539.553,1.784,1.784,0,0,1,.621,1.391,2.036,2.036,0,0,1-.607,1.5A2.1,2.1,0,0,1,120.015-16.794ZM136.4-.783a3.973,3.973,0,0,1-1.445.729,6.505,6.505,0,0,1-1.8.243,5.1,5.1,0,0,1-3.672-1.242,4.78,4.78,0,0,1-1.3-3.618V-11.61H125.82v-2.7H128.2V-17.6h3.375v3.294h3.861v2.7h-3.861v6.858a2.281,2.281,0,0,0,.513,1.606,1.925,1.925,0,0,0,1.485.553,2.965,2.965,0,0,0,1.89-.594Zm9.909-13.8a7.03,7.03,0,0,1,4.874,1.526,5.9,5.9,0,0,1,1.688,4.6V0h-3.186V-1.755A3.927,3.927,0,0,1,147.92-.31a6.913,6.913,0,0,1-2.768.5,6.78,6.78,0,0,1-2.835-.554A4.38,4.38,0,0,1,140.441-1.9a3.906,3.906,0,0,1-.661-2.227,3.818,3.818,0,0,1,1.445-3.118,7.174,7.174,0,0,1,4.549-1.174H149.5V-8.64a2.955,2.955,0,0,0-.9-2.322,3.913,3.913,0,0,0-2.686-.81,7.755,7.755,0,0,0-2.389.378,5.87,5.87,0,0,0-1.985,1.053L140.211-12.8a8.192,8.192,0,0,1,2.727-1.323A12.133,12.133,0,0,1,146.313-14.58Zm-.459,12.312a4.358,4.358,0,0,0,2.255-.581,3.159,3.159,0,0,0,1.391-1.66V-6.183h-3.483q-2.916,0-2.916,1.917a1.721,1.721,0,0,0,.729,1.458A3.342,3.342,0,0,0,145.854-2.268Zm-1.863-14.418a1.573,1.573,0,0,1-1.161-.459,1.574,1.574,0,0,1-.459-1.161,1.607,1.607,0,0,1,.459-1.188,1.573,1.573,0,0,1,1.161-.459,1.574,1.574,0,0,1,1.161.459,1.607,1.607,0,0,1,.459,1.188,1.574,1.574,0,0,1-.459,1.161A1.574,1.574,0,0,1,143.991-16.686Zm5.238,0a1.573,1.573,0,0,1-1.161-.459,1.574,1.574,0,0,1-.459-1.161,1.607,1.607,0,0,1,.459-1.188,1.573,1.573,0,0,1,1.161-.459,1.573,1.573,0,0,1,1.161.459,1.607,1.607,0,0,1,.459,1.188,1.574,1.574,0,0,1-.459,1.161A1.573,1.573,0,0,1,149.229-16.686Zm18.252,15.9a3.973,3.973,0,0,1-1.445.729,6.505,6.505,0,0,1-1.8.243,5.1,5.1,0,0,1-3.672-1.242,4.78,4.78,0,0,1-1.3-3.618V-11.61H156.9v-2.7h2.376V-17.6h3.375v3.294h3.861v2.7h-3.861v6.858a2.281,2.281,0,0,0,.513,1.606,1.925,1.925,0,0,0,1.485.553,2.965,2.965,0,0,0,1.89-.594ZM185.112-15.93h-6.264V-18.9h16.038v2.97h-6.264V0h-3.51Zm16.578,3.618q1.458-2.268,5.13-2.268v3.213a4.285,4.285,0,0,0-.783-.081,4.076,4.076,0,0,0-3.078,1.148,4.576,4.576,0,0,0-1.107,3.307V0h-3.375V-14.418h3.213Zm9.612-2.106h3.375V0H211.3Zm1.7-2.376a2.168,2.168,0,0,1-1.539-.58,1.9,1.9,0,0,1-.621-1.445,1.9,1.9,0,0,1,.621-1.444,2.168,2.168,0,0,1,1.539-.58,2.229,2.229,0,0,1,1.539.553,1.784,1.784,0,0,1,.621,1.391,2.036,2.036,0,0,1-.607,1.5A2.1,2.1,0,0,1,213-16.794Zm21.276,9.666q0,.351-.054,1H222.912A3.921,3.921,0,0,0,224.465-3.6a5.089,5.089,0,0,0,3.118.931A5.255,5.255,0,0,0,231.5-4.239l1.809,2.079A6.1,6.1,0,0,1,230.85-.405,8.949,8.949,0,0,1,227.5.189a8.91,8.91,0,0,1-4.185-.945,6.806,6.806,0,0,1-2.794-2.632,7.434,7.434,0,0,1-.986-3.82A7.544,7.544,0,0,1,220.5-11a6.8,6.8,0,0,1,2.66-2.633,7.76,7.76,0,0,1,3.834-.945,7.565,7.565,0,0,1,3.767.932,6.6,6.6,0,0,1,2.592,2.619A7.942,7.942,0,0,1,234.279-7.128Zm-7.29-4.752a4.071,4.071,0,0,0-2.74.958,4.032,4.032,0,0,0-1.364,2.552h8.181a3.979,3.979,0,0,0-1.323-2.538A4.023,4.023,0,0,0,226.989-11.88Zm15.363-.432q1.458-2.268,5.13-2.268v3.213a4.285,4.285,0,0,0-.783-.081,4.076,4.076,0,0,0-3.078,1.148,4.576,4.576,0,0,0-1.107,3.307V0h-3.375V-14.418h3.213Z" transform="translate(578.15 662.037)" fill="#141414"/>
  </g>
</svg>
